<mxfile host="65bd71144e">
    <diagram id="D2SdiiROKehjlWz91XPK" name="Page-1">
        <mxGraphModel dx="2191" dy="1369" grid="1" gridSize="10" guides="1" tooltips="1" connect="1" arrows="1" fold="1" page="1" pageScale="1" pageWidth="850" pageHeight="1100" math="0" shadow="0">
            <root>
                <mxCell id="0"/>
                <mxCell id="1" parent="0"/>
                <mxCell id="2" value="http://ics2o.mths.ca" style="swimlane;whiteSpace=wrap;html=1;" parent="1" vertex="1">
                    <mxGeometry x="40" y="40" width="1180" height="665.01" as="geometry"/>
                </mxCell>
                <mxCell id="3" value="" style="shape=image;verticalLabelPosition=bottom;labelBackgroundColor=default;verticalAlign=top;aspect=fixed;imageAspect=0;image=data:image/png,iVBORw0KGgoAAAANSUhEUgAAB4AAAAQ4CAYAAADo08FDAAAAAXNSR0IArs4c6QAAIABJREFUeF7s3V2MnNV5B3DbGIMNicHg1kYJNWCqQiNakFhRJEzUNm6qJptWastGe91WClWFqNI2ilcJWleRmpuo6lUqtb2oK6O0gpimKlxUIbSoWcCWHEgIOK6hATu28Udimw9/VXTQo4d4jv2+OzPrmTM/rs6+e97znvM7Z8aO/5lnFi9atOjsIv8RIECAAAECBAgQIECAAAECBAgQIECAAAECBAgQIECAwMgLLBYAj/weWgABAgQIECBAgAABAgQIECBAgAABAgQIECBAgAABAgT+X0AA7CAQIECAAAECBAgQIECAAAECBAgQIECAAAECBAgQIECgEgEBcCUbaRkECBAgQIAAAQIECBAgQIAAAQIECBAgQIAAAQIECBAQADsDBAgQIECAAAECBAgQIECAAAECBAgQIECAAAECBAgQqERAAFzJRloGAQIECBAgQIAAAQIECBAgQIAAAQIECBAgQIAAAQIEBMDOAAECBAgQIECAAAECBAgQIECAAAECBAgQIECAAAECBCoREABXspGWQYAAAQIECBAgQIAAAQIECBAgQIAAAQIECBAgQIAAAQGwM0CAAAECBAgQIECAAAECBAgQIECAAAECBAgQIECAAIFKBATAlWykZRAgQIAAAQIECBAgQIAAAQIECBAgQIAAAQIECBAgQEAA7AwQIECAAAECBAgQIECAAAECBAgQIECAAAECBAgQIECgEgEBcCUbaRkECBAgQIAAAQIECBAgQIAAAQIECBAgQIAAAQIECBAQADsDBAgQIECAAAECBAgQIECAAAECBAgQIECAAAECBAgQqERAAFzJRloGAQIECBAgQIAAAQIECBAgQIAAAQIECBAgQIAAAQIEBMDOAAECBAgQIECAAAECBAgQIECAAAECBAgQIECAAAECBCoREABXspGWQYAAAQIECBAgQIAAAQIECBAgQIAAAQIECBAgQIAAAQGwM0CAAAECBAgQIECAAAECBAgQIECAAAECBAgQIECAAIFKBATAlWykZRAgQIAAAQIECBAgQIAAAQIECBAgQIAAAQIECBAgQEAA7AwQIECAAAECBAgQIECAAAECBAgQIECAAAECBAgQIECgEgEBcCUbaRkECBAgQIAAAQIECBAgQIAAAQIECBAgQIAAAQIECBAQADsDBAgQIECAAAECBAgQIECAAAECBAgQIECAAAECBAgQqERAAFzJRloGAQIECBAgQIAAAQIECBAgQIAAAQIECBAgQIAAAQIEBMDOAAECBAgQIECAAAECBAgQIECAAAECBAgQIECAAAECBCoREABXspGWQYAAAQIECBAgQIAAAQIECBAgQIAAAQIECBAgQIAAAQGwM0CAAAECBAgQIECAAAECBAgQIECAAAECBAgQIECAAIFKBATAlWykZRAgQIAAAQIECBAgQIAAAQIECBAgQIAAAQIECBAgQEAA7AwQIECAAAECBAgQIECAAAECBAgQIECAAAECBAgQIECgEgEBcCUbaRkECBAgQIAAAQIECBAgQIAAAQIECBAgQIAAAQIECBAQADsDBAgQIECAAAECBAgQIECAAAECBAgQIECAAAECBAgQqERAAFzJRloGAQIECBAgQIAAAQIECBAgQIAAAQIECBAgQIAAAQIEBMDOAAECBAgQIECAAAECBAgQIECAAAECBAgQIECAAAECBCoREABXspGWQYAAAQIECBAgQIAAAQIECBAgQIAAAQIECBAgQIAAAQGwM0CAAAECBAgQIECAAAECBAgQIECAAAECBAgQIECAAIFKBATAlWykZRAgQIAAAQIECBAgQIAAAQIECBAgQIAAAQIECBAgQEAA7AwQIECAAAECBAgQIECAAAECBAgQIECAAAECBAgQIECgEgEBcCUbaRkECBAgQIAAAQIECBAgQIAAAQIECBAgQIAAAQIECBAQADsDBAgQIECAAAECBAgQIECAAAECBAgQIECAAAECBAgQqERAAFzJRloGAQIECBAgQIAAAQIECBAgQIAAAQIECBAgQIAAAQIEBMDOAAECBAgQIECAAAECBAgQIECAAAECBAgQIECAAAECBCoREABXspGWQYAAAQIECBAgQIAAAQIECBAgQIAAAQIECBAgQIAAAQGwM0CAAAECBAgQIECAAAECBAgQIECAAAECBAgQIECAAIFKBATAlWykZRAgQIAAAQIECBAgQIAAAQIECBAgQIAAAQIECBAgQEAA7AwQIECAAAECBAgQIECAAAECBAgQIECAAAECBAgQIECgEgEBcCUbaRkECBAgQIAAAQIECBAgQIAAAQIECBAgQIAAAQIECBAQADsDBAgQIECAAAECBAgQIECAAAECBAgQIECAAAECBAgQqERAAFzJRloGAQIECBAgQIAAAQIECBAgQIAAAQIECBAgQIAAAQIEBMDOAAECBAgQIECAAAECBAgQIECAAAECBAgQIECAAAECBCoREABXspGWQYAAAQIECBAgQIAAAQIECBAgQIAAAQIECBAgQIAAAQGwM0CAAAECBAgQIECAAAECBAgQIECAAAECBAgQIECAAIFKBATAlWykZRAgQIAAAQIECBAgQIAAAQIECBAgQIAAAQIECBAgQEAA7AwQIECAAAECBAgQIECAAAECBAgQIECAAAECBAgQIECgEgEBcCUbaRkECBAgQIAAAQIECBAgQIAAAQIECBAgQIAAAQIECBAQADsDBAgQIECAAAECBAgQIECAAAECBAgQIECAAAECBAgQqERAAFzJRloGAQIECBAgQIAAAQIECBAgQIAAAQIECBAgQIAAAQIEBMDOAAECBAgQIECAAAECBAgQIECAAAECBAgQIECAAAECBCoREABXspGWQYAAAQIECBAgQIAAAQIECBAgQIAAAQIECBAgQIAAAQGwM0CAAAECBAgQIECAAAECBAgQIECAAAECBAgQIECAAIFKBATAlWykZRAgQIAAAQIECBAgQIAAAQIECBAgQIAAAQIECBAgQEAA7AwQIECAAAECBAgQIECAAAECBAgQIECAAAECBAgQIECgEgEBcCUbaRkECBAgQIAAAQIECBAgQIAAAQIECBAgQIAAAQIECBAQADsDBAgQIECAAAECBAgQIECAAAECBAgQIECAAAECBAgQqERAAFzJRloGAQIECBAgQIAAAQIECBAgQIAAAQIECBAgQIAAAQIEBMDOAAECBAgQIECAAAECBAgQIECAAAECBAgQIECAAAECBCoREABXspGWQYAAAQIECBAgQIAAAQIECBAgQIAAAQIECBAgQIAAAQGwM0CAAAECBAgQIECAAAECBAgQIECAAAECBAgQIECAAIFKBATAlWykZRAgQIAAAQIECBAgQIAAAQIECBAgQIAAAQIECBAgQEAA7AwQIECAAAECBAgQIECAAAECBAgQIECAAAECBAgQIECgEgEBcCUbaRkECBAgQIAAAQIECBAgQIAAAQIECBAgQIAAAQIECBAQADsDBAgQIECAAAECBAgQIECAAAECBAgQIECAAAECBAgQqERAAFzJRloGAQIECBAgQIAAAQIECBAgQIAAAQIECBAgQIAAAQIEBMDOAAECBAgQIECAAAECBAgQIECAAAECBAgQIECAAAECBCoREABXspGWQYAAAQIECBAgQIAAAQIECBAgQIAAAQIECBAgQIAAAQGwM0CAAAECBAgQIECAAAECBAgQIECAAAECBAgQIECAAIFKBATAlWykZRAgQIAAAQIECBAgQIAAAQIECBAgQIAAAQIECBAgQEAA7AwQIECAAAECBAgQIECAAAECBAgQIECAAAECBAgQIECgEgEBcCUbaRkECBAgQIAAAQIECBAgQIAAAQIECBAgQIAAAQIECBAQADsDBAgQIECAAAECBAgQIECAAAECBAgQIECAAAECBAgQqERAAFzJRloGAQIECBAgQIAAAQIECBAgQIAAAQIECBAgQIAAAQIEBMDOAAECBAgQIECAAAECBAgQIECAAAECBAgQIECAAAECBCoREABXspGWQYAAAQIECBAgQIAAAQIECBAgQIAAAQIECBAgQIAAAQGwM0CAAAECBAgQIECAAAECBAgQIECAAAECBAgQIECAAIFKBATAlWykZRAgQIAAAQIECBAgQIAAAQIECBAgQIAAAQIECBAgQEAA7AwQIECAAAECBAgQIECAAAECBAgQIECAAAECBAgQIECgEgEBcCUbaRkECBAgQIAAAQIECBAgQIAAAQIECBAgQIAAAQIECBAQADsDBAgQIECAAAECBAgQIECAAAECBAgQIECAAAECBAgQqERAAFzJRloGAQIECBAgQIAAAQIECBAgQIAAAQIECBAgQIAAAQIEBMDOAAECBAgQIECAAAECBAgQIECAAAECBAgQIECAAAECBCoREABXspGWQYAAAQIECBAgQIAAAQIECBAgQIAAAQIECBAgQIAAAQGwM0CAAAECBAgQIECAAAECBAgQIECAAAECBAgQIECAAIFKBATAlWykZRAgQIAAAQIECBAgQIAAAQIECBAgQIAAAQIECBAgQEAA7AwQIECAAAECBAgQIECAAAECBAgQIECAAAECBAgQIECgEgEBcCUbaRkECBAgQIAAAQIECBAgQIAAAQIECBAgQIAAAQIECBAQADsDBAgQIECAAAECBAgQIECAAAECBAgQIECAAAECBAgQqERAAFzJRloGAQIECBAgQIAAAQIECBAgQIAAAQIECBAgQIAAAQIEBMDOAAECBAgQIECAAAECBAgQIECAAAECBAgQIECAAAECBCoREABXspGWQYAAAQIECBAgQIAAAQIECBAgQIAAAQIECBAgQIAAAQGwM0CAAAECBAgQIECAAAECBAgQIECAAAECBAgQIECAAIFKBATAlWykZRAgQIAAAQIECBAgQIAAAQIECBAgQIAAAQIECBAgQEAA7AwQIECAAAECBAgQIECAAAECBAgQIECAAAECBAgQIECgEgEBcCUbaRkECBAgQIAAAQIECBAgQIAAAQIECBAgQIAAAQIECBAQADsDBAgQIECAAAECBAgQIECAAAECBAgQIECAAAECBAgQqERAAFzJRloGAQIECBAgQIAAAQIECBAgQIAAAQIECBAgQIAAAQIEBMDOAAECBAgQIECAAAECBAgQIECAAAECBAgQIECAAAECBCoREABXspGWQYAAAQIECBAgQIAAAQIECBAgQIAAAQIECBAgQIAAAQGwM0CAAAECBAgQIECAAAECBAgQIECAAAECBAgQIECAAIFKBATAlWykZRAgQIAAAQIECBAgQIAAAQIECBAgQIAAAQIECBAgQEAA7AwQIECAAAECBAgQIECAAAECBAgQIECAAAECBAgQIECgEgEBcCUbaRkECBAgQIAAAQIECBAgQIAAAQIECBAgQIAAAQIECBAQADsDBAgQIECAAAECBAgQIECAAAECBAgQIECAAAECBAgQqERAAFzJRloGAQIECBAgQIAAAQIECBAgQIAAAQIECBAgQIAAAQIEBMDOAAECBAgQIECAAAECBAgQIECAAAECBAgQIECAAAECBCoREABXspGWQYAAAQIECBAgQIAAAQIECBAgQIAAAQIECBAgQIAAAQGwM0CAAAECBAgQIECAAAECBAgQIECAAAECBAgQIECAAIFKBATAlWykZRAgQIAAAQIECBAgQIAAAQIECBAgQIAAAQIECBAgQEAA7AwQIECAAAECBAgQIECAAAECBAgQIECAAAECBAgQIECgEgEBcCUbaRkECBAgQIAAAQIECBAgQIAAAQIECBAgQIAAAQIECBAQADsDBAgQIECAAAECBAgQIECAAAECBAgQIECAAAECBAgQqERAAFzJRloGAQIECBAgQIAAAQIECBAgQIAAAQIECBAgQIAAAQIEBMDOAAECBAgQIECAAAECBAgQIECAAAECBAgQIECAAAECBCoREABXspGWQYAAAQIECBAgQIAAAQIECBAgQIAAAQIECBAgQIAAAQGwM0CAAAECBAgQIECAAAECBAgQIECAAAECBAgQIECAAIFKBATAlWykZRAgQIAAAQIECBAgQIAAAQIECBAgQIAAAQIECBAgQEAA7AwQIECAAAECBAgQIECAAAECBAgQIECAAAECBAgQIECgEgEBcCUbaRkECBAgQIAAAQIECBAgQIAAAQIECBAgQIAAAQIECBAQADsDBAgQIECAAAECBAgQIECAAAECBAgQIECAAAECBAgQqERAAFzJRloGAQIECBAgQIAAAQIECBAgQIAAAQIECBAgQIAAAQIEBMDOAAECBAgQIECAAAECBAgQIECAAAECBAgQIECAAAECBCoREABXspGWQYAAAQIECBAgQIAAAQIECBAgQIAAAQIECBAgQIAAAQGwM0CAAAECBAgQIECAAAECBAgQIECAAAECBAgQIECAAIFKBATAlWykZRAgQIAAAQIECBAgQIAAAQIECBAgQIAAAQIECBAgQEAA7AwQIECAAAECBAgQIECAAAECBAgQIECAAAECBAgQIECgEgEBcCUbaRkECBAgQIAAAQIECBAgQIAAAQIECBAgQIAAAQIECBAQADsDBAgQIECAAAECBAgQIECAAAECBAgQIECAAAECBAgQqERAAFzJRloGAQIECBAgQIAAAQIECBAgQIAAAQIECBAgQIAAAQIEBMDOAAECBAgQIECAAAECBAgQIECAAAECBAgQIECAAAECBCoREABXspGWQYAAAQIECBAgQIAAAQIECBAgQIAAAQIECBAgQIAAAQGwM0CAAAECBAgQIECAAAECBAgQIECAAAECBAgQIECAAIFKBATAlWykZRAgQIAAAQIECBAgQIAAAQIECBAgQIAAAQIECBAgQEAA7AwQIECAAAECBAgQIECAAAECBAgQIECAAAECBAgQIECgEgEBcCUbaRkECBAgQIAAAQIECBAgQIAAAQIECBAgQIAAAQIECBAQADsDBAgQIECAAAECBAgQIECAAAECBAgQIECAAAECBAgQqERAAFzJRloGAQIECBAgQIAAAQIECBAgQIAAAQIECBAgQIAAAQIEBMDOAAECBAgQIECAAAECBAgQIECAAAECBAgQIECAAAECBCoREABXspGWQYAAAQIECBAgQIAAAQIECBAgQIAAAQIECBAgQIAAAQGwM0CAAAECBAgQIECAAAECBAgQIECAAAECBAgQIECAAIFKBATAlWykZRAgQIAAAQIECBAgQIAAAQIECBAgQIAAAQIECBAgQEAA7AwQIECAAAECBAgQIECAAAECBAgQIECAAAECBAgQIECgEgEBcCUbaRkECBAgQIAAAQIECBAgQIAAAQIECBAgQIAAAQIECBAQADsDBAgQIECAAAECBAgQIECAAAECBAgQIECAAAECBAgQqERAAFzJRloGAQIECBAgQIAAAQIECBAgQIAAAQIECBAgQIAAAQIEBMDOAAECBAgQIECAAAECBAgQIECAAAECBAgQIECAAAECBCoREABXspGWQYAAAQIECBAgQIAAAQIECBAgQIAAAQIECBAgQIAAAQGwM0CAAAECBAgQIECAAAECBAgQIECAAAECBAgQIECAAIFKBATAlWykZRAgQIAAAQIECBAgQIAAAQIECBAgQIAAAQIECBAgQEAA7AwQIECAAAECBAgQIECAAAECBAgQIECAAAECBAgQIECgEgEBcCUbaRkECBAgQIAAAQIECBAgQIAAAQIECBAgQIAAAQIECBAQADsDBAgQIECAAAECBAgQIECAAAECBAgQIECAAAECBAgQqERAAFzJRloGAQIECBAgQIAAAQIECBAgQIAAAQIECBAgQIAAAQIEBMDOAAECBAgQIECAAAECBAgQIECAAAECBAgQIECAAAECBCoREABXspGWQYAAAQIECBAgQIAAAQIECBAgQIAAAQIECBAgQIAAAQGwM0CAAAECBAgQIECAAAECBAgQIECAAAECBAgQIECAAIFKBATAlWykZRAgQIAAAQIECBAgQIAAAQIECBAgQIAAAQIECBAgQEAA7AwQIECAAAECBAgQIECAAAECBAgQIECAAAECBAgQIECgEgEBcCUbaRkECBAgQIAAAQIECBAgQIAAAQIECBAgQIAAAQIECBAQADsDBAgQIECAAAECBAgQIECAAAECBAgQIECAAAECBAgQqERAAFzJRloGAQIECBAgQIAAAQIECBAgQIAAAQIECBAgQIAAAQIEBMDOAAECBAgQIECAAAECBAgQIECAAAECBAgQIECAAAECBCoREABXspGWQYAAAQIECBAgQIAAAQIECBAgQIAAAQIECBAgQIAAAQGwM0CAAAECBAgQIECAAAECBAgQIECAAAECBAgQIECAAIFKBATAlWykZRAgQIAAAQIECBAgQIAAAQIECBAgQIAAAQIECBAgQEAA7AwQIECAAAECBAgQIECAAAECBAgQIECAAAECBAgQIECgEgEBcCUbaRkECBAgQIAAAQIECBAgQIAAAQIECBAgQIAAAQIECBAQADsDBAgQIECAAAECBAgQIECAAAECBAgQIECAAAECBAgQqERAAFzJRloGAQIECBAgQIAAAQIECBAgQIAAAQIECBAgQIAAAQIEBMDOAAECBAgQIECAAAECBAgQIECAAAECBAgQIECAAAECBCoREABXspGWQYAAAQIECBAgQIAAAQIECBAgQIAAAQIECBAgQIAAAQGwM0CAAAECBAgQIECAAAECBAgQIECAAAECBAgQIECAAIFKBATAlWykZRAgQIAAAQIECBAgQIAAAQIECBAgQIAAAQIECBAgQEAA7AwQIECAAAECBAgQIECAAAECBAgQIECAAAECBAgQIECgEgEBcCUbaRkECBAgQIAAAQIECBAgQIAAAQIECBAgQIAAAQIECBAQADsDBAgQIECAAAECBAgQIECAAAECBAgQIECAAAECBAgQqERAAFzJRloGAQIECBAgQIAAAQIECBAgQIAAAQIECBAgQIAAAQIEBMDOAAECBAgQIECAAAECBAgQIECAAAECBAgQIECAAAECBCoREABXspGWQYAAAQIECBAgQIAAAQIECBAgQIAAAQIECBAgQIAAAQGwM0CAAAECBAgQIECAAAECBAgQIECAAAECBAgQIECAAIFKBATAlWykZRAgQIAAAQIECBAgQIAAAQIECBAgQIAAAQIECBAgQEAA7AwQIECAAAECBAgQIECAAAECBAgQIECAAAECBAgQIECgEgEBcCUbaRkECBAgQIAAAQIECBAgQIAAAQIECBAgQIAAAQIECBAQADsDBAgQIECAAAECBAgQIECAAAECBAgQIECAAAECBAgQqERAAFzJRloGAQIECBAgQIAAAQIECBAgQIAAAQIECBAgQIAAAQIEBMDOAAECBAgQIECAAAECBAgQIECAAAECBAgQIECAAAECBCoREABXspGWQYAAAQIECBAgQIAAAQIECBAgQIAAAQIECBAgQIAAAQGwM0CAAAECBAgQIECAAAECBAgQIECAAAECBAgQIECAAIFKBATAlWykZRAgQIAAAQIECBAgQIAAAQIECBAgQIAAAQIECBAgQEAA7AwQIECAAAECBAgQIECAAAECBAgQIECAAAECBAgQIECgEgEBcCUbaRkECBAgQIAAAQIECBAgQIAAAQIECBAgQIAAAQIECBAQADsDBAgQIECAAAECBAgQIECAAAECBAgQIECAAAECBAgQqERAAFzJRloGAQIECBAgQIAAAQIECBAgQIAAAQIECBAgQIAAAQIEBMDOAAECBAgQIECAAAECBAgQIECAAAECBAgQIECAAAECBCoREABXspGWQYAAAQIECBAgQIAAAQIECBAgQIAAAQIECBAgQIAAAQGwM0CAAAECBAgQIECAAAECBAgQIECAAAECBAgQIECAAIFKBATAlWykZRAgQIAAAQIECBAgQIAAAQIECBAgQIAAAQIECBAgQEAA7AwQIECAAAECBAgQIECAAAECBAgQIECAAAECBAgQIECgEgEBcCUbaRkECBAgQIAAAQIECBAgQIAAAQIECBAgQIAAAQIECBAQADsDBAgQIECAAAECBAgQIECAAAECBAgQIECAAAECBAgQqERAAFzJRloGAQIECBAgQIAAAQIECBAgQIAAAQIECBAgQIAAAQIEBMDOAAECBAgQIECAAAECBAgQIECAAAECBAgQIECAAAECBCoREABXspGWQYAAAQIECBAgQIAAAQIECBAgQIAAAQIECBAgQIAAAQGwM0CAAAECBAgQIECAAAECBAgQIECAAAECBAgQIECAAIFKBATAlWykZRAgQIAAAQIECBAgQIAAAQIECBAgQIAAAQIECBAgQEAA7AwQIECAAAECBAgQIECAAAECBAgQIECAAAECBAgQIECgEgEBcCUbaRkECBAgQIAAAQIECBAgQIAAAQIECBAgQIAAAQIECBAQADsDBAgQIECAAAECBAgQIECAAAECBAgQIECAAAECBAgQqERAAFzJRloGAQIECBAgQIAAAQIECBAgQIAAAQIECBAgQIAAAQIEBMDOAAECBAgQIECAAAECBAgQIECAAAECBAgQIECAAAECBCoREABXspGWQYAAAQIECBAgQIAAAQIECBAgQIAAAQIECBAgQIAAAQGwM0CAAAECBAgQIECAAAECPQmcPXu26/2PPfZYXP/kJz8Z7ZmZmWhPTExcsM/s7Oy859fLHPK9eQJt11KaQ2lRixe/+z/V/UeAAAECBAgQIECAAAECBOYnIACen5u7CBAgQIAAAQIECBAgQOA9AQFwB6IUZguAvVQIECBAgAABAgQIECBAYCEFBMALqe1ZBAgQIECAAAECBAgQqFBAACwArvBYWxIBAgQIECBAgAABAgRGVkAAPLJbZ+IECBAgQIAAAQIECBBj/IOlAAAgAElEQVRoL1AKa/NIbT+x2kv/ubm5eHQvpZ5zWek8TqmMc0kul3duUgK67Q40sSqtpXS9tHf5+uTkZNup6k+AAAECBAgQIECAAAECIyogAB7RjTNtAgQIECBAgAABAgQIzEdAAHx+NQHwfE6VewgQIECAAAECBAgQIEBgmAQEwMO0G+ZCgAABAgQIECBAgACBAQsIgAXAAz5ihidAgAABAgQIECBAgACBiywgAL7IG+DxBAgQIECAAAECBAgQaCuQQ9wmJY57+VTr1NRUTG/r1q3R7qU8cpMyyNmkl5LIpXEmJibiVyWfJteb7F3bPcrrLc0zP7eJZ5P9yn1yae7Nmzc3WaY+BAgQIECAAAECBAgQIDAkAgLgIdkI0yBAgAABAgQIECBAgEBTAQFwR6rJd+Jm0ybBailMbRKylvZPANz0ZOtHgAABAgQIECBAgAABAv0QEAD3Q9EYBAgQIECAAAECBAgQWEABAXAHWwDccWgSTvsE8AK+QD2KAAECBAgQIECAAAECF1lAAHyRN8DjCRAgQIAAAQIECBAgUPpe3lL55ZJYkyCwFJo2uTc/t0n/ts8qlSDOz+2ldHMeJ5d3XsgT2MStyf72MufS2tt++lnJ6F52wb0ECBAgQIAAAQIECBAYnIAAeHC2RiZAgAABAgQIECBAgEAjAQFwh0kAfP7j0qSUdJMDJwBuoqQPAQIECBAgQIAAAQIERldAADy6e2fmBAgQIECAAAECBAhUIiAAFgA3OcoC4CZK+hAgQIAAAQIECBAgQICAANgZIECAAAECBAgQIECAQJ8FNm3aFCPOzs52Hb1JKeC2febm5uJZuVRynkC/Sh+XPq3b5Lm9BJmlNeZ1tf1u4NL253lu2bIlum3dunXeJ6atW2nvSobZJ5+9JmcpP6vJPJucpSZ7sXjxu/804T8CBAgQIECAAAECBAgQ6JeAALhfksYhQIAAAQIECBAgQIDAewIC4HOPQg4LBcAdnyaBfZZsYigA9jZEgAABAgQIECBAgAABAgJgZ4AAAQIECBAgQIAAAQJ9FhAAC4BLR6rJJ2tL9wqA+/xCNRwBAgQIECBAgAABAgQqFRAAV7qxlkWAAAECBAgQIECAwGAE8vf1lj7JWgrqSiVzS+V525btLa14amoqfjU9PR3tJiV8S4FlLi+cx8/lkUv35nmWyhQ3KblcWlcev8kaS/NvcoJKJY57+ZRzac75WaVS26W1N5lPk3Pb5DyU5tnL+Z+cnGyyHfoQIECAAAECBAgQIECAwKJFiwTAjgEBAgQIECBAgAABAgRaCAiAO1gC4I6DAPjc8yAAbvGGoisBAgQIECBAgAABAgQGICAAHgCqIQkQIECAAAECBAgQqFdAAHxu4OcTwOeaNPnEbelV4hPAHZls6BPA9b6nWhkBAgQIECBAgAABAv0XEAD339SIBAgQIECAAAECBAiMqEAOd0tLaFuWuUmZ6LbPajKH0idTS89qUga5SfnfJuWsmxyPJiWgmzg0+c7dQZQ+LpW2blKSusl5mJub69qt9NzcP/fJgzQJrduWcc7jtz2Tpf0tjbN48bv/xOE/AgQIECBAgAABAgQIEBAAOwMECBAgQIAAAQIECBB4T0AA3IHI3+ObD4cAuKNRClOblIMWAHcMSyF06bxlNwGwt2wCBAgQIECAAAECBAicX0AA7IQQIECAAAECBAgQIEDgPQEBcAdCANxxKH0yWAB87ltGk09j+wSwt1oCBAgQIECAAAECBAgsjIAAeGGcPYUAAQIECBAgQIAAgSESaBL0NpluDr1KJYublERu8qnQJuPkOTcp+dtkjblPk5CvXyWvS3NrW4I4l7aenp6OYZuMkw0nJiZa3dt2T/N6S8FzqU9pj0r9mwSxbfe6iWcTk36dtzyO7w9u+0rXnwABAgQIECBAgACBURcQAI/6Dpo/AQIECBAgQIAAAQKtBQTArcn+/4a2oWApgCw9fRDfQSsA7mg3KaGc96XtXguA5/eachcBAgQIECBAgAABAgQGISAAHoSqMQkQIECAAAECBAgQGGoBAfD8tqdtKJif0uTTnwLgjphPAHccejlv+ez5BPD8Xu/uIkCAAAECBAgQIEBgdAUEwKO7d2ZOgAABAgQIECBAgEAXgRzuNimb3OT7XHP539w/P75JieBcevfll1+O20vfuVva4DxO6blNwrMmB6j0rHxvk8Cy5DY7O9t1GosXv/s/V4f/v9L/mSD7f/nLX46FfPazn+26qJJhvz5Z2+ST0E3OTO7Tdk/b7maec5PXSNv5Z9tROW9tDfUnQIAAAQIECBAgQGA8BQTA47nvVk2AAAECBAgQIECgWgEBcGdrm4RhTQ6BAPj8SgLgc31KoX6T85b7CIDbiulPgAABAgQIECBAgACBjoAA2EkgQIAAAQIECBAgQKAqAQFwZzsFwAtzrAXA5zoLgBfm7HkKAQIECBAgQIAAAQIESgICYGeDAAECBAgQIECAAIGRFNi2bVvMu0kJ4tyn9MnC0nfQ5lK3pZLLTcoyDwK6NOe2pYOblMsujal8bn93tnS281PaBvz9OiellbadT3699BIYt31u251yttuK6U+AAAECBAgQIECAwDAICICHYRfMgQABAgQIECBAgACB1gIC4A5Zv4I9AXDrIziwGwTAzWkFwM2t9CRAgAABAgQIECBAYHwEBMDjs9dWSoAAAQIECBAgQKAqAQGwALiqA50WIwBuvrMC4OZWehIgQIAAAQIECBAgMD4CAuDx2WsrJUCAAAECBAgQIDCSAk2+Y7VtieYMkUs65+ulstJbtmzp6rh169au10uf0C09K1/PZXJffvnl+NX09HS0m5R6brLxk5OTTbrpM+QCpe/AbjLtJq+jtp84Lz03j5Of27YcdJNPruc5NFlj7l8aX2noJidKHwIECBAgQIAAAQIELpaAAPhiyXsuAQIECBAgQIAAAQKNBATAHSYBcKPjMvadBMCdI9DL93nnQyQAHvuXFAACBAgQIECAAAECIykgAB7JbTNpAgQIECBAgAABAuMjIADu7LUAeHzOfC8rFQB39ATAvZwi9xIgQIAAAQIECBAgMOoCAuBR30HzJ0CAAAECBAgQIFCJQCnoLS0vl0culXEu3dukbHKpTx6zbTnctv1LJaBL5abz3JSoreSFMeBl9PJ9w6XXYC4n3jaQbvK6a0tSmmepzHsv7w9ed213R38CBAgQIECAAAECBAYhIAAehKoxCRAgQIAAAQIECBBoLSAAPpdMANz6GLmhpYAAuANWKvWcOZv0EQC3PIC6EyBAgAABAgQIECAwEAEB8EBYDUqAAAECBAgQIECAQFsBAfC5YgLgtqdI/7YCAuCOWJNwt0kfAXDbE6g/AQIECBAgQIAAAQKDEBAAD0LVmAQIECBAgAABAgQIFAVy4JQ75bKrOfjMfWZnZ+PHJmFM221oMmaeW55P22eV+pfKROeyuv16lnEItBVoUtK5SRnn0uuodL1J+fTS67fJ+0l2aPL9wfm13+Q9QTDc9qTpT4AAAQIECBAgQIBALwIC4F703EuAAAECBAgQIECAQGsBAfD5yQTArY+UGxZQQADcwRYAL+Ch8ygCBAgQIECAAAECBFoLCIBbk7mBAAECBAgQIECAAIFeBATA59cTAPdyutw7aAEBcEdYADzok2Z8AgQIECBAgAABAgR6ERAA96LnXgIECBAgQIAAAQIEigJtv9O3SYnXJtylMrBNrs/NzcUjJiYmmjwu+uSyt/lZpTFzf+VhW1HrPOQCpZC49Fpoez0vv/S6K/XJ15uUfG/yvtFkO0rzVNq9iZ4+BAgQIECAAAECBAi0FRAAtxXTnwABAgQIECBAgACBRgIC4A6TALjRcdGpIgEB8LmbKQCu6IBbCgECBAgQIECAAIEREBAAj8AmmSIBAgQIECBAgACBURQQAAuAR/HcmnPvAgJgAXDvp8gIBAgQIECAAAECBAj0IiAA7kXPvQQIECBAgAABAgQIvE+gSeg7MzMT9+Qyy/kTcnnQtv1LW9Kk3GuTZ01NTcUjpqeno50/6Zu/H1R5Zy8SAucKbNq0KS7m10vJKr82m/TP4zQp41x6/2nyvtHLs/K6Nm/e7KgQIECAAAECBAgQIECgLwIC4L4wGoQAAQIECBAgQIAAgXcFBMCdcyAA9nogcH4BAXDHRwDslUKAAAECBAgQIECAwCAEBMCDUDUmAQIECBAgQIAAgTEVEAB3Nl4APKYvAMtuLCAA7lAJgBsfGR0JECBAgAABAgQIEGghIABugaUrAQIECBAgQIAAAQIdgX4Fvbm8arYtlVNuW461tF95nNKzSiVnS3OenJx0PAgQ6FFg27ZtMUIuy1x6PZbKtudpNBmnl/eWJiWm276n5TG9t/R4qNxOgAABAgQIECBAYAwFBMBjuOmWTIAAAQIECBAgQKBXAQHwuYJCml5PlfsJLFokAO6cAgGwVwMBAgQIECBAgAABAr0ICIB70XMvAQIECBAgQIAAgTEVEAALgMf06Fv2gAUEwALgAR8xwxMgQIAAAQIECBAYCwEB8Fhss0USIECAAAECBAgQmJ9AKYzJozUpnTqIEqlNSjRv2bIlpnrzzTdHO39Hb15LHjNf37x58/wA3UWAQN8F8vtSLq08MTERz2pScjlPLJeJnpqail9t3bq11fxLJanze9H09HSMmZ9bepCy8622QGcCBAgQIECAAAECBBYtWiQAdgwIECBAgAABAgQIECgKCIA7NAJgLxICwyMgAO7shbLzw3MmzYQAAQIECBAgQIDAsAkIgIdtR8yHAAECBAgQIECAwBAJCIA7myEAHqJDaSpjLyAA7hwBAfDYvxQAECBAgAABAgQIECgKCIAdDgIECBAgQIAAAQIE3ieQv9+3SXnnJqWY8wPaljzN/UulUJuMn8u65nLQuWysQMWLgcDoCrR97yq9v5Xe07JMqdRzk/e3PE6TctNN3ocXL373n3f8R4AAAQIECBAgQIAAgY6AANhJIECAAAECBAgQIEDgfQJtQxQBsANEgMAwCLR97xIAD8OumQMBAgQIECBAgAABAoMQEAAPQtWYBAgQIECAAAECBEZYoG2IIgAe4c02dQIVCbR97xIAV7T5lkKAAAECBAgQIECAwPsEBMAOBAECBAgQIECAAIExFdi4cWOs/PHHH5+3QqkU6tzcXIyZyyxv2bIlrudSzLOzs63m0LYcdO6v1HMrap0JjLTApk2bYv75faZJaeUmfTJO6X2pbWnoJmWoS5uS7/X95SN9dE2eAAECBAgQIECAwLwFBMDzpnMjAQIECBAgQIAAgdEWEACP9v6ZPQECzQQEwM2c9CJAgAABAgQIECBAoB4BAXA9e2klBAgQIECAAAECBFoJCIBbcelMgMCICgiAR3TjTJsAAQIECBAgQIAAgXkLCIDnTedGAgQIECBAgAABAqMnkEPfPPsDBw7Ej7/1W78V7Vy6OZd0bluuOT+rVDI6l0gtlT9tcq9Sz6N3Ls2YwMUQGEQwXCoZ3fb7hpt8t3p+z2xSenrx4nf/Cch/BAgQIECAAAECBAiMg4AAeBx22RoJECBAgAABAgQIvCcgAHYUCBAg0BEQADsJBAgQIECAAAECBAjUKiAArnVnrYsAAQIECBAgQIBAFwEBsGNBgAABAbAzQIAAAQIECBAgQIBA3QIC4Lr31+oIECBAgAABAgTGVKAU9GaOXbt2xY/r16+Pdi4H/dBDD8X1UrnRXBo6j18qH52v5/6l8fP10nYqbTqmB92yCQxA4OzZszFqk9LKeQqlUs+labbt36/les/sl6RxCBAgQIAAAQIECAyngAB4OPfFrAgQIECAAAECBAj0JCAA7onPzQQIjLGAAHiMN9/SCRAgQIAAAQIECFQiIACuZCMtgwABAgQIECBAgEAWEAA7DwQIEJifgAB4fm7uIkCAAAECBAgQIEBgeAQEwMOzF2ZCgAABAgQIECBAoCeBfoW+q1evjnmUykHnss+zs7PRv1TOtF9lTpUt7emIuJkAgR4EcjCch5mZmYkfX3755WhPT0+3elqp3H1+/2zy3psf2mTM3Md7bKst05kAAQIECBAgQIDA0AoIgId2a0yMAAECBAgQIECAQDsBAXA7L70JECDQRkAA3EZLXwIECBAgQIAAAQIELqaAAPhi6ns2AQIECBAgQIAAgT4KCID7iGkoAgQI/JSAANiRIECAAAECBAgQIEBgVAQEwKOyU+ZJgAABAgQIECBAoItAKfTNpZubwJXKPud79+7dGz9+9atfjXYuH5pLoZZKQ+cxm5QnnZycbLIEfQgQILBgAtu2bYtnfe5zn4v2888/H+1curnJ+17byfertH5+bh7Te2/bHdGfAAECBAgQIECAwPAICICHZy/MhAABAgQIECBAgEBrAQFwazI3ECBAoGcBAXDPhAYgQIAAAQIECBAgQGCAAgLgAeIamgABAgQIECBAgMCgBQTAgxY2PgECBM4VEAA7FQQIECBAgAABAgQIDLOAAHiYd8fcCBAgQIAAAQIECHQRyMHDAw88ED1WrlwZ7VJJ53w9D51LRpf67Nq1q+uzHnroobg+NzfXdc9yOeipqanos3Xr1mgvXvzu/zzxHwECBEZXYNOmTTH5/L7XZEW5hP7ExETc0qRUfqkUf5NxmszN+3MTJX0IECBAgAABAgQIDI+AAHh49sJMCBAgQIAAAQIECDQSEAA3YtKJAAECCy4gAF5wcg8kQIAAAQIECBAgQKCLgADYsSBAgAABAgQIECAwYgIC4BHbMNMlQGBsBATAY7PVFkqAAAECBAgQIEBgqAUEwEO9PSZHgAABAgQIECAwzgJnz57tuvzHHnssrueynzfddFNcz+Wgjx49GtfXr18f7VzSOV/P5aDzBEqloXOfxx9/PH7M89yyZUtcf/jhh8d5W62dAIExFCi9n5co8vtnqU+T0tD53lL/JttR+nNHaegmevoQIECAAAECBAgQWHgBAfDCm3siAQIECBAgQIAAgUYCAuBGTDoRIEBg6AUEwEO/RSZIgAABAgQIECBAoCoBAXBV22kxBAgQIECAAAECNQkIgGvaTWshQGCcBQTA47z71k6AAAECBAgQIEBg4QUEwAtv7okECBAgQIAAAQIEigK///u/H7+bmpqK9ic+8Ylo51KcufzmkiVLos+DDz4Y7VwOuvTgUnnnnTt3xi0rVqyIdi4ZXRozl4NWJtShJ0CAQEegSRhcKgHdpIzzzMxMUE9MTER7bm4u2rOzsxfcjrbjeJ+/IKkOBAgQIECAAAECBBZMQAC8YNQeRIAAAQIECBAgQODCAgLgCxvpQYAAgVEWEACP8u6ZOwECBAgQIECAAIHREBAAj8Y+mSUBAgQIECBAgMCYCAiAx2SjLZMAgbEVEACP7dZbOAECBAgQIECAAIEFExAALxi1BxEgQIAAAQIECIy7QC7RfPvttwfHt771rWg/+uij0f7v//7vaH/xi1+Mdg4PcpnQPP5zzz0X/Z9++ulor1q1qus2HDhwIK4fPXo02qVSz7l/aV/37t0bv9q3b9+4b7/1EyBA4LwCmzZtit/n0s1Nyj7nPwty/3y9VAK6bbnp0rPy4pSDdtgJECBAgAABAgQIXFwBAfDF9fd0AgQIECBAgACBMRIQAI/RZlsqAQIEWgoIgFuC6U6AAAECBAgQIECAQFFAAOxwECBAgAABAgQIEFggAQHwAkF7DAECBEZQQAA8gptmygQIECBAgAABAgSGVEAAPKQbY1oECBAgQIAAAQJ1CFx66aWxkGXLlkX7hz/8YbR/7/d+L9rXX399tHMY8PnPfz6u53LQWSkHzJdcckn8avPmzdF+/vnno33mzJlo59LQubxzLuN82223Rf9du3ZFO5eJbnJ99+7ddWyuVRAgQGBAArnU/8zMTDxldnY22k1KN+d7c1npPO1cGjpfb/Ks0vJzGWrloAd0SAxLgAABAgQIECBA4DwCAmDHgwABAgQIECBAgMAABQTAHdwcDAuAB3jgDE2AQBUCAuAqttEiCBAgQIAAAQIECFw0AQHwRaP3YAIECBAgQIAAgXEQEAALgMfhnFsjAQL9FRAA99fTaAQIECBAgAABAgTGTUAAPG47br0ECBAgQIAAAQIDF7jsssviGbn9la98Ja4/8sgj0d6wYUO0/+Vf/iXaq1evjnYu4/noo4/G9U984hPRziWgv/GNb8T173znO9G+/PLLo71///6u977yyitx/YYbbuiLV/4E8MqVK2PMHTt29GV8gxAgQKBWgW3btsXScrnmXNI5l1xuUho6WzUpMZ3HL/XPY+Y5KAdd68m0LgIECBAgQIAAgWEWEAAP8+6YGwECBAgQIECAwEgKCIDP3TYB8EgeZZMmQGAIBATAQ7AJpkCAAAECBAgQIEBgxAQEwCO2YaZLgAABAgQIECAw/AICYAHw8J9SMyRAYFQEBMCjslPmSYAAAQIECBAgQGB4BATAw7MXZkKAAAECBAgQIDDCAjn0zWWWP/rRj8aqPvCBD0T7lltuifbHPvaxaH/ta1+L9nPPPRftY8eORfuXf/mXo/3ss89G+6GHHor2v/7rv0b7d3/3d6P9l3/5l9HOpaf/7d/+La7nEs2HDx+O69dee220S5/ozVu4Z8+e+HHdunXRzqWt8zi7d+8e4RNg6gQIEFhYgRwM5zLLpVlMTU3Fr7Zu3Rrt0vU8Ti7pnMtQ5z6zs7PxY5My0YsXv/tPUv4jQIAAAQIECBAgQGAQAgLgQagakwABAgQIECBAYOwEBMDnbrkAeOxeBhZMgMACCgiAFxDbowgQIECAAAECBAiMmIAAeMQ2zHQJECBAgAABAgSGU0AALAAezpNpVgQI1CogAK51Z62LAAECBAgQIECAQO8CAuDeDY1AgAABAgQIECAwpgKXXnpprPzee++N9o9//ONof/rTn452Lgd94sSJuJ7buSznxz/+8ejzt3/7t9Genp6O9te//vVof+pTn4p2DgaWLl0a13M56L/6q7+K67kc9H/+53/G9SuvvDLar776arRvuOGGaB84cKDrCdi7d29cX7FiRbRzielcDnrnzp3RZ9++fWN6qiybAAEC7QXOnj0bN5XKL5fKOOfSzblPk7LSuf+WLVtiDvnPsiarUQ66iZI+BAgQIECAAAECBJoLCICbW+lJgAABAgQIECBA4H0CAuAOhwDYC4MAAQIXV0AAfHH9PZ0AAQIECBAgQIDAsAkIgIdtR8yHAAECBAgQIEBgZAQEwALgkTmsJkqAQNUCAuCqt9fiCBAgQIAAAQIECLQWEAC3JnMDAQIECBAgQIDAOAssWbIklr98+fJo55LIuWxyDom/9KUvRf9cKvP48eNx/c0334z2t7/97Wh/7nOf63rvqlWr4vorr7wS7T/4gz+Idi4H/d3vfjeub968Odr//u//Hu1cwvrYsWNx/e233472yZMno52Dh6NHj3Y9HqWyz6WztGvXrvjV7t27x/nIWTsBAgRaCeT35CY3lkpG53tL5aNzn4mJifgxl49uW3p6cnKyybT1IUCAAAECBAgQIEDgPAICYMeDAAECBAgQIECAQAsBAXAHSwDc4tDoSoAAgQUUEAAvILZHESBAgAABAgQIEBhSAQHwkG6MaREgQIAAAQIECAyngABYADycJ9OsCBAg0BEQADsJBAgQIECAAAECBAgIgJ0BAgQIECBAgAABAi0Eli1bFr3/6I/+KNq33nprtL/2ta9FO/9D/JkzZ+L6Zz7zmWj/+Z//ebR/4Rd+Idof//jHo3369Omu7SeffDKu33PPPdHOQfXBgwe7zid/ivedd96JPm+99Va0jxw5Eu3Dhw9H+8SJE9F+9dVXo71mzZqumnv37u16fe3atXE998nlpq+++urooxx0i8OqKwECBJJA/jqAubm5+M3LL78c7a1bt0Y7l25uApnLPpf6T01Nxa+mp6ejXSoZrRx0E3l9CBAgQIAAAQIECJwrIAB2KggQIECAAAECBAi0EBAAd7AEwC0Oja4ECBAYAgEB8BBsgikQIECAAAECBAgQWCABAfACQXsMAQIECBAgQIBAHQICYAFwHSfZKggQGDcBAfC47bj1EiBAgAABAgQIjLOAAHicd9/aCRAgQIAAAQIEWgscP3487smfgv3Hf/zHuJ7LJj/11FNxffny5dE+evRotD/96U9HO5ePfvbZZ+N6Lh/9+c9/vuv1b3/723H9rrvuinYu6ZwXnMc8depU/CqXg86lmPO6Xnvtta79Dxw4ENezVS71nMuN3n333dE/35vnuXr16vjxmWeeiXYuSd16I91AgACBMRZo+z3BmSqXhm5S9rktc2n8xYvf/Scs/xEgQIAAAQIECBAg0ERAANxESR8CBAgQIECAAAEC7wkIgDsQAmAvCQIECIyugAB4dPfOzAkQIECAAAECBAg0ERAAN1HShwABAgQIECBAgIAAeJFPAHsZECBAoA4BAXAd+2gVBAgQIECAAAECBEoCAmBngwABAgQIECBAgMAFBB599NHo8cUvfjHa999/f7QPHToU7Q0bNkT74MGD0f7rv/7raC9dujTauazlk08+Gdc/8pGPRDuXaP7Upz4V17/+9a93nf1ll10W13/913+91R6fPn06+pfKQecS1nv27In+udx0NvnJT34SfXJZ6TvvvDOuty0BvW7durh3x44drdaoMwECBAh0BNqGwblEczYslYMulXRuO05+lnLQTi8BAgQIECBAgACB8wsIgJ0QAgQIECBAgAABAhcQEAB3gHJwKwD2siFAgEAdAgLgOvbRKggQIECAAAECBAhkAQGw80CAAAECBAgQIEBAAPw+AZ8A9pIgQIDA+AgIgMdnr62UAAECBAgQIEBgfAQEwOOz11ZKgAABAgQIECDQQmDbtm3R+zd/8zej/eCDD0b7+PHj0X7ggQei/cYbb0T7H/7hH6L9zW9+MyzYp7IAACAASURBVNof/vCHo53/8X3VqlVxfd++fdE+c+ZMtEtlNkvL2717d/zqhhtuuKBCnk9+bi5DnUtD5/LO//u//xvjlz4xnMfP5aNzOejSJHfu3Bm/Wrt2bbTzJ5Lzei+4WB0IECBAIAQ2bdoU7YmJia4yc3NzcX12drZrn5mZmQv2KbG3LQ2tHLQDTIAAAQIECBAgQOBcAQGwU0GAAAECBAgQIECgi4AAuIMiAPbyIECAwPgICIDHZ6+tlAABAgQIECBAoG4BAXDd+2t1BAgQIECAAAEC8xQQAAuA53l03EaAAIGRFRAAj+zWmTgBAgQIECBAgACB9wkIgB0IAgQIECBAgAABAu8JlP7h+7/+67/C6Omnn472fffdF+1Dhw5F+1d+5VeiffDgwWjnMsX/9E//FNc/9KEPRfvYsWNd9+OHP/xhXM9lkPOcm2xkqRx0kxKa+dPA+XuCc6nnXA76tdde67qu3Oeaa66JPrt27eq6hBMnTsT1Utnn/fv3R5+777472k888UQTFn0IECBA4KcEcrn+qamp+O309PQFrdp+VUEesG0J6Nx/cnLygnPTgQABAgQIECBAgMA4CAiAx2GXrZEAAQIECBAgQKCRgAD4/EwC4EbHSCcCBAhUISAArmIbLYIAAQIECBAgQGBMBQTAY7rxlk2AAAECBAgQIHCugABYAOx1QYAAAQIdAQGwk0CAAAECBAgQIEBgdAUEwKO7d2ZOgAABAgQIECDQQmDjxo3R+8CBA9HOZZnXr18f1x9//PFo/8Vf/EW0X3rppWh/5Stfifbf/d3fRTuXIP77v//7uH7vvfdGO5eAziWUly5d2nVVN910U1y/8cYbo92kdHOJKZeDzmM2Yc2fBs7tvJZczvqFF16IYd95551oX3nlldF+4403mjy6a588/kc/+tHo88wzz0T78OHD8x7fjQQIEBhngW3btsXyc3nnUrnmklWpNHQv4+R78/i9/Pk4zntt7QQIECBAgAABAnUICIDr2EerIECAAAECBAgQuICAAPhcIAGwlw0BAgQINBEQADdR0ocAAQIECBAgQIDA8AgIgIdnL8yEAAECBAgQIEBggAICYAGwTwAP8AVmaAIEqhYQAFe9vRZHgAABAgQIECBQoYAAuMJNtSQCBAgQIECAAIFzBXKJ41zqedeuXV25cp877rgj+uRy0A888EBc/5M/+ZNo79+/P9q5BHQOIE+dOhV9jh8/Hu3Tp09He9myZdG+9tpru87z9ttvj+u9lLvs5dPAeWJ5/idPnoxf5VLb2fzEiRPRJ5fmzj6l/crXd+7cGeOsXbu2q9Xq1avj+hNPPOFlQoAAAQLzEMhh8NzcXIwwOzt7wdFmZmaiz8TERNf+pTFLpZ6VgL4guw4ECBAgQIAAAQJjKCAAHsNNt2QCBAgQIECAwDgKCIDPv+sC4HF8VVgzAQIE2gsIgNubuYMAAQIECBAgQIDAQgsIgBda3PMIECBAgAABAgQuioAAWADsE8AX5aXnoQQIVCYgAK5sQy2HAAECBAgQIECgSgEBcJXbalEECBAgQIAAAQI/LVD6DuCSVC5ZfNVVV0W3P/3TP432T37yk2jfdddd0f7MZz4T7fvvvz/aDz74YNdx/vmf/zmuX3nlldHesGFDtPMndI8cOdJ12v0qB71v374Yf82aNfM+TE3KQX/3u9+N8XPJ6FdeeSWu53Fuu+22uJ5LRudwN5eYXrlyZdf5C4Pnva1uJECAQAiUwuBSeedMl0s9N+nfhP2Tn/xkdMuloScnJ5vcrg8BAgQIECBAgACBagQEwNVspYUQIECAAAECBAicT0AA3Px8CICbW+lJgACBcRYQAI/z7ls7AQIECBAgQIDAMAsIgId5d8yNAAECBAgQIECgbwIC4OaUAuDmVnoSIEBgnAUEwOO8+9ZOgAABAgQIECAwzAIC4GHeHXMjQIAAAQIECBDom0Auj5zL/+YHlEoK5+tLliyJW+68885o/9zP/Vy0c4C6f//+uJ5LN//qr/5qXJ+ZmYn2n/3Zn0U7PyvPc/v27fHjddddF+2dO3dG+2Mf+1i0Fy9+96/98/svl57O36PcdrRcxvmdd96J23Op7Zdeeimunz17Ntovvvhi1+srVqyI67nU8549e+L6unXruj7rxIkTcT2XlX7iiSfaLk1/AgQIEFi0aFEOg0ulmPP1Elou3Vzqn//cbFI+Oo/Ty5+JNpoAAQIECBAgQIDAqAgIgEdlp8yTAAECBAgQIECgJwEB8Pz4BMDzc3MXAQIExk1AADxuO269BAgQIECAAAECwywgAB7m3TE3AgQIECBAgACBvgkIgOdHKQCen5u7CBAgMG4CAuBx23HrJUCAAAECBAgQGGYBAfAw7465ESBAgAABAgQI9CSwadOmuD+XiPzCF74Q15uUg85liq+++uq49/Dhw9G+//77o51LQO/duzeuf/Ob34z2sWPHov3Hf/zH0c6lKS+55JILrr9Usvjaa6+Ne3P43Uvpy0GEwW+99VbMM5fI3rVrV1w/fvx4tE+ePBntUqnnvKe5fHfex1wCeu3atV2dd+zYcUF/HQgQIEDgXIFcxr/kMzU1Fb/aunVrtHMJ6Hxvk/LRuX+TUtK9/Jlo3wkQIECAAAECBAgMs4AAeJh3x9wIECBAgAABAgR6EhAAd/gEwB0HAXBPLyc3EyBAoLGAALgxlY4ECBAgQIAAAQIEBiIgAB4Iq0EJECBAgAABAgSGQUAA3NkFAXDHQQA8DK9KcyBAYBwEBMDjsMvWSIAAAQIECBAgMMwCAuBh3h1zI0CAAAECBAgQ6Engvvvui/tzeck86B133BE/lkoHlyaRSzQvXbo0uq1atSraP/rRj6L9xhtvRPu3f/u3o33FFVdEe8mSJV3bTcpUbt++Pe697rrrov36669HO6+3F9xDhw51XW+TMXMwcObMmbgll3rOpZtfeeWV6JOvf/jDH+76uNwnl+DOpZ5zGLx+/fqu4+cS07ncd5M16kOAAAECHYH83cBbtmzp+udyLgc9PT0dfUr9s+3MzEz8mL/uIfcplY9u8merfSRAgAABAgQIECAwigIC4FHcNXMmQIAAAQIECBBoJCAA7jAJgDsOAuBGLxudCBAg0FcBAXBfOQ1GgAABAgQIECBAoJGAALgRk04ECBAgQIAAAQKjKCAA7uyaALjjIAAexVexORMgMOoCAuBR30HzJ0CAAAECBAgQGEUBAfAo7po5EyBAgAABAgQIFAVK3zuYS0TOzs52vf83fuM34vquXbuiXSoRfO2110afZ555Jto33nhjtHN55+uvvz6uX3311V37LFu2LK7nEtN5XU1KVu7evTvGOXLkSNf1DkM56Dyxd955J348duxYtHMZ59w+ceJE9Ml7UTocuTR0qdx3Lg2dyz6vW7cuht2xY4dXIAECBAjMQyCHwZOTkzHCpk2bol0q4zw3Nxd9Sn+OP/bYY9Enl31ucj3PZx5LcwsBAgQIECBAgACBoRIQAA/VdpgMAQIECBAgQIBArwIC4I6gAPjckyQA7vXV5X4CBAj0JiAA7s3P3QQIECBAgAABAgSaCgiAm0rpR4AAAQIECBAgMBICAuDONgmAzz2uAuCReAmbJAECFQsIgCveXEsjQIAAAQIECBAYKgEB8FBth8kQIECAAAECBAjMRyB/1+/09PQFhyiVhczlJb/xjW9ccJzcIZcsXrVqVfzqsssui/Y111wT7Vyy+IMf/GBcv/zyy6N96aWXRrttCeg8t0OHDsWPe/bsiXYua5zn3GrhP9V5+/btcaVtiekzZ87EvW+//Xa0cwnrPP98/dVXX43+y5cvj/b+/fujfffdd0c7l+zODrkEdMkhl57et29fL1zuJUCAwNgK5D+7b7755nDI5Z3z1zdkqFwmulQaOpd9zvfmvwPk61NTU/Hjww8/PLb7YuEECBAgQIAAAQJ1CAiA69hHqyBAgAABAgQIjLWAAPj82y8A7vgIgMf6bcLiCRAYMgEB8JBtiOkQIECAAAECBAhUJSAArmo7LYYAAQIECBAgMJ4CAmABsE8Aj+dr36oJEBhdAQHw6O6dmRMgQIAAAQIECAy/gAB4+PfIDAkQIECAAAECBLoI5JLIucxjqbRjHqLUv1Qu8g//8A+77sGKFSvi+sqVK6OdyzsfPHiwa5/rrrsurufyy1dccUVcX7ZsWbQvueSSvpyD0ncDX3XVVTH+jTfe2Jdn5fLIa9asueCYeU9zOei33nor7s3f4/u9730vrr/++uvRzqWz876UJpDLSueS3WvXro1b9u7dG+18PZeMzrYXXKwOBAgQGHOB/H3ATco4l76+ofTnftsS0KXtWLz43X868x8BAgQIECBAgACB0RIQAI/WfpktAQIECBAgQIDAewIC4PkdBQHwuW4C4PmdJXcRIECgFwEBcC967iVAgAABAgQIECBwfgEBsBNCgAABAgQIECAwkgIC4PltmwBYADy/k+MuAgQI9FdAANxfT6MRIECAAAECBAgQyAICYOeBAAECBAgQIEBgJAXyPxw3Kf+Y+0xNTcWap6eno91knC984QvRf/Xq1dHetWtXtNevXx/t73//+9H+0Ic+FO1cPvr666+P6x/84Ae79lm6dGlc71c5ylIYnMtWb9y4sS/nY/v27THOHXfcccExc8B/6tSp6H/8+PFov/baa9HO4990001x/Zlnnon2nXfeGe1cSro0mSZln/O9udz0jh07LrhGHQgQIECgI9D2z/RcMnpiYiIY8/VsOzs7Gz/OzMxEO99bKjE9OTlpmwgQIECAAAECBAiMnIAAeOS2zIQJECBAgAABAgTm84/FAuBzz40A+PyvJQGw9xoCBAgsjIAAeGGcPYUAAQIECBAgQGB8BATA47PXVkqAAAECBAgQqEqg7T8WC4AFwD4BXNVbgMUQIFCRQNs/030CuKLNtxQCBAgQIECAAIGBCAiAB8JqUAIECBAgQIAAgUEIlL73t+2zmpR6LpWCzM/6m7/5m/gxlxTO5X9zCeU33ngj+ue1fOADH4jrt9xyS7Tz9csuuyyu53LQbdde6j/M3w2c5/z222/Hj9nzBz/4QVx/7rnnon355ZdHe+3atdE+evRotHPJ7lLJ6Fziu4n54cOHo1tuN7lXHwIECIyzQOnP+lLoW/rzutQ/25b+PlDy79dXMIzz/lo7AQIECBAgQIDAwggIgBfG2VMIECBAgAABAgT6ICAA7iAKgDsOAuA+vKgMQYAAgSETEAAP2YaYDgECBAgQIECAwEgKCIBHcttMmgABAgQIECAwngIC4M6+C4A7DgLg8XwfsGoCBOoWEADXvb9WR4AAAQIECBAgsDACAuCFcfYUAgQIECBAgACBeQrcc889cee3vvWtaM/MzER7YmIi2rnkY37k7Oxs/PjYY49Fu1Q6skkJ6MnJyRjn9ttvj/bevXujvWLFiq4rv+GGG+L6yZMno51LPf/8z/98XL/yyiu79lmyZMk8Zcu3PfHEE/HLDRs2RPvIkSPRXrNmTV+em5+Vy2WXBj99+nT86s0334z2/v37o51LcL/00ktx/d577+06bD5XV111Vdc+t912W1zP5aBz+ehcBjyXmM4D5lLbfQGsbJAc/OTXeH795iXnPvl6k/eE3GfLli1x+80333xB1SeffLJrn6eeeuqC9+pAgEBzgfye0Pyu+fVs+3cD5aDn5+wuAgQIECBAgACBhREQAC+Ms6cQIECAAAECBAjMU0AA3IETAHccBMDzfCGNyG0C4BHZKNMksEACAuAFgvYYAgQIECBAgACB6gQEwNVtqQURIECAAAECBOoSEAB39lMA3HEQANf1+v7p1QiA695fqyPQVkAA3FZMfwIECBAgQIAAAQIdAQGwk0CAAAECBAgQIDDUAtu2bYv55fLOpZKwpcXk0o5NFtzkWaXyj7kcdOlZuUz0rbfeGt3efvvtaOdyxLks7fLly6NPLhndZF1t++SSxbkE9MGDB2OoJqWbmzy3STnoHAbkMPjYsWPxiDznZ599Nq7v27cv2r/0S7/UdUqrV6+O66VSz/nG3GflypUXHDOXic6lqpv4DHOf++67r+v0pqen4/qXv/zlaOdy3LkUc5PS6/lBuXRzflYeJ79O8/tJk2eV3gc+8pGPxDRWrVoV7c9+9rPRzuOXStbn+ed1Pfzww8O83eZGYMEE8mu29ND8Wms7sVLZ56mpqRgqv7fk8fPXQLR9rv4ECBAgQIAAAQIEBi0gAB60sPEJECBAgAABAgR6EhAAd/gEwB0HAXBPL6eB3SwA7tAKgAd2xAw8pgIC4DHdeMsmQIAAAQIECBDoWUAA3DOhAQgQIECAAAECBAYpIADu6AqAOw4C4EG+2uY/tgC4YycAnv8ZcieBbgICYOeCAAECBAgQIECAwPwEBMDzc3MXAQIECBAgQIDAAAVyyNekdHPb8o+lcqxNximVfS5x3HjjjV1/tX79+q7XX3311bh+3XXXRXvZsmXR/sVf/MVo53LQS5cuHeCuLFqUSzRfe+21XZ91xx139GUObctBnzx5Mp576NChaL/88svR3r59e7QPHz4c7bxHeV9yeecTJ05E/1ymO5fgvu2226JPqXx0LgGdy4Dn8tR9AezjIDnczaVQc3nk/Lhc0jlfz+WOt27dGr/Kr8cnn3wyrj/11FN9XMXghtq0aVMMXlp7qRx0Pp/5/+RRmu0jjzwSv3rhhRcGtygjExhCgUH/3aC05NLfQ/J74ObNm4dQzJQIECBAgAABAgTGWUAAPM67b+0ECBAgQIAAgSEVGPQ/8gqA57fxAuCOmwC44yAA7jgIgOf3fuIuAm0FBv13g9J8BMBtd0p/AgQIECBAgACBYRAQAA/DLpgDAQIECBAgQIDA+wQG/Y+8AuD5HTgBcMdNANxxEAB3HATA83s/cReBtgKD/rtBaT4C4LY7pT8BAgQIECBAgMAwCAiAh2EXzIEAAQIECBAgQOB9AjlQmZ2djd+V/hE2l1fNfUolnXOfHGLl8q2DKO2YSw2vXLky1rV69epo5xLBp0+fjuvXXHNNtE+dOhXtu+66K9qXX355tC+55JKBnqrdu3fH+LnccS4N3a9y0PlZpZLaORh46623Ym779++P9osvvhjt73znO9E+duxYtDdu3Nh1XaWS3Xm/8j5m/CZ9/uM//qPr/g5iE++5554YNpcZL5VlznPIJZrvvffe+FV+nbYtkz6INY7imLm0++/8zu/EEnKZ6FyCO7+/TU1NRf+8j/m9bnJychRZzJlAV4H8np87tP07QIm3yd8fch/vew4qAQIECBAgQIDAsAkIgIdtR8yHAAECBAgQIEDgfZ+oEwB3DoQAuOMgAO79DUIA3LvhIEYQAA9C1Zi1CgiAa91Z6yJAgAABAgQIEOiXgAC4X5LGIUCAAAECBAgQ6JuATwB3KH0CuOPgE8B9e2n9/0AC4P569ms0AXC/JI0zDgIC4HHYZWskQIAAAQIECBDoRUAA3IueewkQIECAAAECBPomsG3bthirVNI5P6zt94/mMZt8B/CgyzmWPsmaS0Pn9f7oRz+KH2+55ZZo5/65TPHy5cujz6DXsm/fvnjWiRMnup6J0nrbHqD8PcS5XHMOA86cORPDvvnmm9HOhrkEdC5hnctBr1mzJu4tfe/vihUruu5FXtfevXu7LjOPeeedd0afPJ8cfre1yv9HilIZ4dKYpdLoygi33YXB9b/vvvti8Fz2ecOGDXE9l+l+5JFH4vrzzz+/YO8PgxMwMoGOQH7/b1IOvVTeua1n6WspvE+2ldSfAAECBAgQIEBgEAIC4EGoGpMAAQIECBAgQKC1gAC4QyYAPv/REQA3f2kJgJtbjWJPAfAo7po5D0JAADwIVWMSIECAAAECBAiMuoAAeNR30PwJECBAgAABApUICIAFwE2OsgC4iVKnjwC4udUo9hQAj+KumfMgBATAg1A1JgECBAgQIECAwKgLCIBHfQfNnwABAgQIECAwwgKl7/DLS8olFpuUhi6Ves4lcG+++eZ4xOzsbLTzsxayhOPtt98ec8jlgteuXdv1+s/8zM/E9auvvjraP/uzPxvtXA562bJlC3ZKDh06FM86cuRItHNZ41y6uZeJlb4bOJeAzu1cnjo7f+9734tp5HNy/PjxuJ73aM+ePV398/i33XZb17XnT3ivXr26a59skvvv2LGjK1cOAqenp6NP6bWQz/ygy4P3sr/u7V2gyf+xZsuWLfGgfH4W8j2w95UaYZwF8t8lmvydofR3iSbX81dI5PfSkr/32HE+mdZOgAABAgQIELi4AgLgi+vv6QQIECBAgACBsRYQAHe2XwA8v5eBALjjJgCe3/kZh7sEwOOwy9YoAHYGCBAgQIAAAQIECJwrIAB2KggQIECAAAECBC6agABYANzL4RMAC4B7OT/jcK8AeBx22RoFwM4AAQIECBAgQIAAAQGwM0CAAAECBAgQIDBEAqV/tM1TzCUZ8/Vc5rFUwjRf37p1a9y+YcOGaOeSxS+88MJF18klne+8886YTy6hnMs7v/7669Hnuuuui3YuX/xrv/ZrcX3JkiULtsb8fb35oXn+N954Y1/mUwqD8xk7ffp0V599+/bF9VwC+sUXX4zrx44di3b+xHYu4/z0009Hn1ymOy8wl3TO1/M4Bw4ciF+VSoI/9NBDXd3m5ua6ruXhhx/ui7NB6hAofWo8n5/SSjdv3lwHglVUKdDL/7GsBFL6+0b+e0Wp9LQS0FUeM4siQIAAAQIECIyEgE8Aj8Q2mSQBAgQIECBAoE4BAfC5+yoAnt9ZFwB33ATA8zs/43aXAHjcdnx81isAHp+9tlICBAgQIECAAIHzCwiAnRACBAgQIECAAIGLJiAAFgD7BHDnDPgE8EV7GxrLBwuAx3Lbx2LRAuCx2GaLJECAAAECBAgQaCAgAG6ApAsBAgQIECBAgED/BPJ3UuZPK87OznZ9yMzMTFwv9ck3Tk1NxY8333xztHNp33x9mMuZ5nC0SengH//4x7HeXA768ssvj+s33XRTtC+55JL+bewFRtq+fXvXHrfeemtcz/PsZWJNPg186tSpeMSJEyeincsvf//73+96fo4cORLXN27cGO2dO3dG++233452/lR33sc9e/ZEn5MnT0b7yiuvjHYuPX333Xd3fdZXv/rVuD45OdkLnXvHXGDTpk0hMDEx0VXDp8zH/JCM0PKbhMGl5eSSzqU++SsqSv1zH+WgR+jwmCoBAgQIECBAoAIBAXAFm2gJBAgQIECAAIFREhAAN98tAXBzq9xTADw/N3cREAA7AzUJCIBr2k1rIUCAAAECBAgQaCsgAG4rpj8BAgQIECBAgEBPAgLg5nwC4OZWAuCOgE8Az+/MuKsjIAB2EmoSEADXtJvWQoAAAQIECBAg0FZAANxWTH8CBAgQIECAAIGeBHIAnEsjlgbNZRVL5RZzSdI8Ti5hWrp3VAKz22+/PZZ29OjRrlyrVq2K67mM8DXXXBPXly9fHu3169f3tJfzvfmJJ57oOoerrroqrue1zPc5796XS0/fcccdMVQOBnL55Vy6ef/+/dH/Bz/4QbRfeumlaB88eDDaa9asiXapBHRpLYcPH45frVu3rmu3vO+5bPWKFSuif/70cy9u7iWQBXIw/Mgjj8SvvvSlL0U7v8du2LAhrj/11FMwCVwUgdLfN0rlmpt8LUVeSJO/nygBfVG23kMJECBAgAABAgQWLVokAHYMCBAgQIAAAQIEFlRAADw/bgHw/NwEwPNzcxeBLCAAdh5GUUAAPIq7Zs4ECBAgQIAAAQL9EhAA90vSOAQIECBAgAABAo0EBMCNmM7pJACen5sAeH5u7iIgAHYGRl1AADzqO2j+BAgQIECAAAECvQgIgHvRcy8BAgQIECBAgEAjgfzpsdINs7Oz8atSWcWZmZnoUyrvnPvkZ+X+o1L2uWSVvxs4lw7OZZNXr14dt1922WXRvuKKK6J95MiRaG/cuLHRXva7Uw5ocwnoXbt29X1uuTxyNszloE+dOhXPzWWcc6nn//mf/4k+ecz/Y+/dw6s6r3tdjIUkhABJICEJDLKQCAFMbGIIptySOCRNDE6cbCBWmp202fukOU1Pml3Sxw3sp6eox90hpzvdTdPd1r0cJ7gSTV3bsR2XOjUGQlzkGFeAwUhggUGSEegCQoAQ+DzpTMcYjuaH5tS6zbXWy19Dn8Z3e8c315qsn9ZvnjlzRtrLysp8x1m8eLG0d3V1SdzR0SFxRUWFL2ZrAT158mTJcbUfOHAg3uViPAi8g4DrmcHWSrelpUX6NDQ0SHzLLT/7OIJ/EEgOAddZtRbN9v7B3pO4Vui6V7H5rhzOf3LqziwQgAAEIAABCEAgmwkgAGdz9dk7BCAAAQhAAAIQSBIBBOD4gkYAHh1PBODRcaMXBFwEEIA5G+lCAAE4XSrFOiEAAQhAAAIQgAAE4kUAATheJBkHAhCAAAQgAAEIQMBJAAE4vocDAXh0PBGAR8eNXhBAAOYMpDsBBOB0ryDrhwAEIAABCEAAAhAISwABOCwx8iEAAQhAAAIQgAAEQhOwH7wGsVW0EwSxWHQtyPZ96KGHJO3w4cOh9xDVDi7r5ra2NlnylClTJLbWxNYO+tZbb5Wc2bNnp2S7O3fulHlramoktlbVixYtisvauru7ZRxrnW0Ht3bQly9f9l1Pe3u7tB87dkzib3zjGxJv2rRJYmvdbG267bwua2hrSV1VVSVdrAW0tQS3Y7ra4wKTQSDwCwSCfDM4k2z5OQDRJ2Ct/sOu1nUfYtvtmNYC3XXPgwV02CqQDwEIQAACEIAABCAQlgACcFhi5EMAAhCAAAQgAAEIhCaAABwaWeAOCMCBUb0jEQF4dNzoBYEgBBCAg1AiJ5kEEICTSZu5IAABCEAAAhCAAASiQAABOApVYA0QgAAEIAABCEAgwwkgACeuwAjAo2OLADw6AjA/YQAAIABJREFUbvSCQBACCMBBKJGTTAIIwMmkzVwQgAAEIAABCEAAAlEggAAchSqwBghAAAIQgAAEIJCBBOyHrS77xC1btsjOrR3o2rVrRyRix9y2bZvkV1ZWSlxbWytxfX39iGOme4J9NrC1UL5x44bv1nJycqTdWgpfunRJ2lNlB22f19va2irrWbZsmcSFhYVxKZnr2cB2cGsHba2YL1y4IGmvv/66xL/8y78ssbV0bm5ulvampiZf/nZeaxNtOQwMDEhaQUGBxNZiuqOjQ9oXLlwosbXajgtABoFAQAJPPfWUZNrX7VWrVmXVa3VAXKQliIDrj9Li9ciJIPcwdmvYQSeo0AwLAQhAAAIQgAAEspwAAnCWHwC2DwEIQAACEIAABBJFAAE4UWTd4yIAj445AvDouNELAmEJIACHJUZ+IgggACeCKmNCAAIQgAAEIAABCESNAAJw1CrCeiAAAQhAAAIQgECGEEAATn4hEYBHxxwBeHTc6AWBsAQQgMMSIz8RBBCAE0GVMSEAAQhAAAIQgAAEokYAAThqFWE9EIAABCAAAQhAIEMIuATg/fv3yw63bt0qsbWDtu0uHEHso7PZVvGuu+4SdNZG2No7T5s2TXKsHXRubq60W4vjRYsWpeR0WoG2rKxM1rBv3z6JXc9CDrvgV155Rbq49tvY2Cg5Y8eOlXj69OkSW/vlcePGSbu1cV66dKm0W2tou+aKigr5sa+vT2Jr9ezao8s+2vY9cOBAWETkQyAuBKwIZwdsaWmRHxsaGiTO5tfzuABnEF8C9o8SXPcniUBn7abXrVuXiCkYEwIQgAAEIAABCEAgywkgAGf5AWD7EIAABCAAAQhAIFEEEIATRTbYuAjAwTj9YhYC8Oi40QsCYQkgAIclRn4iCCAAJ4IqY0IAAhCAAAQgAAEIRIEAAnAUqsAaIAABCEAAAhCAQAYSQABObVERgEfHHwF4dNzoBYGwBBCAwxIjPxEEEIATQZUxIQABCEAAAhCAAASiQAABOApVYA0QgAAEIAABCEAgQwjYD1K3b98uu6qrq5PYWiwuWbLEd+dr164dkYi1T7T51hq6vr5+xHGyIcHaI586dUq2PHXqVIknTJggsbWJLi4ulnZrwRoFO+je3l7f8sVrbdZ6+rHHHpO5ampqJP7Upz4l8eOPPy7xhz/8YYnfeustid944w2Jjx07JvHMmTNHPIqHDx+WnPnz54+Y77KMtu12Lzt37hxxTBIgkAgCVgy27wuu9wsscxNRhewc0/6xmiVg7zFsu73fcOUEyXeNw9nOznPIriEAAQhAAAIQgEAiCCAAJ4IqY0IAAhCAAAQgAIEsJYAAHM3CIwCPri4IwKPjRi8IhCWAAByWGPnxIoAAHC+SjAMBCEAAAhCAAAQgEDUCCMBRqwjrgQAEIAABCEAAAmlMAAE4msVDAB5dXRCAR8eNXhAISwABOCwx8uNFAAE4XiQZBwIQgAAEIAABCEAgagQQgKNWEdYDAQhAAAIQgAAE0piAFYDtNsLaPgexVbRjtrS0yHSNjY1pTDDxS7fPBi4pKZEJh4aGJB4/frzEt956q8Rjx46VePr06RKXl5ePuHD7Ibu1kh6x400Sjh8/Lr+1YxYUFIRam2sKayH+0Y9+VNJcFtM3btyQHBsPDAxIe3d3t8TWDvrIkSPSfuedd0rc3Nws8cKFCyVubW2VePLkyRJ3dHRIbDlYq2dXX8vhwIEDsZSGvhCIC4ENGzbIOLW1tRJbm2gsc+OCmkHGjBkT5B5m69atvqxcj6VwgXXd53CeOYoQgAAEIAABCEAAAvEigAAcL5KMAwEIQAACEIAABCAQ6MPTIM/9RQBO3GFCAA7OFgE4OCsyIZAIAgjAiaDKmC4CCMCcDQhAAAIQgAAEIACBTCKAAJxJ1WQvEIAABCAAAQhAIMUEgnx4igCc2iIhAAfnjwAcnBWZEEgEAQTgRFBlTARgzgAEIAABCEAAAhCAQDYQQADOhiqzRwhAAAIQgAAEIJBAAtbad8uWLTKTFXrXrl0r7TbHZaVol+vK37hxo++usIAOXuw5c+ZI8pQpUyQuKiqS+OLFixLPmjVL4gsXLkhs7Zdd9sjBVzW6TPu83t7eXt+9VFdXjzh4Q0OD5CxYsEDiJ554QuIHH3xQYteY9rq4fv265F+5ckXi8+fPS3zq1CmJDx48KLG1g25qapL2vLw8ia01tN2gtY+uqKiQX7lsoq1Vtc3HDnrEY0NCEgjYa8q6RGzfvl1m5/U/CYXI4CnsH7HZ+5YgWw7iXOK6F3KNb/8IKcgayIEABCAAAQhAAAIQgIAlgADMeYAABCAAAQhAAAIQiIkAAnBM+FLaGQF4OH4EYI8JAnBKL00m9yGAAMyxSDQBBOBEE2Z8CEAAAhCAAAQgAIFkEkAATiZt5oIABCAAAQhAAAIZSAABOH2LigCMAFxQUCAQ+AZw+l7L2bByBOBsqHJq94gAnFr+zA4BCEAAAhCAAAQgEF8CCMDx5cloEIAABCAAAQhAIOsIuJ77a0FY20Nrkxik3Vo919bW+vLFJjH2Y3fvvffKINameOzYsdJeWFgocV9fn8RWmKmpqZH2IJbLsa98+AjWDtr+1lpbl5SUyK/sGV63bp20228DuyzHd+7cKflr1qzx3Y7lc+PGDV/O586dk3a7/vOfMwLt1td9x+/p6ZH2xYsXSxzEAtp+09fWdPLkyTJOaWmpxHa/iagdY0afQPWT9+lZvf/plCx4xYoVMu+mTZsk3rZtm8R79uxJydqYNDMI2Ndtu6Mg9zA233Wf48qx7fbxCplBlV1AAAIQgAAEIAABCCSTAAJwMmkzFwQgAAEIQAACEMhAAgjAmVFUBGCvjgjAHgcE4My4rhOxCwTgRFBlzKgRQACOWkVYDwQgAAEIQAACEIBAWAIIwGGJkQ8BCEAAAhCAAAQg8A4CCMCZcSAQgL06IgB7HBCAM+O6TsQuEIATQZUxo0YAAThqFWE9EIAABCAAAQhAAAJhCSAAhyVGPgQgAAEIQAACEIDAOwgEeQawC5m1RtyyZYtv2tatW0ckjk3iiIhCJcybN0/yp06dKvGECRMknjFjhsSHDx/2Hd/2XbRoUag1xCu5s7NThmpvb5fYrsf+EYO1Td68eXOoZfT390u+tcu2g1gLaHvtXL58WdK6urokPnaqTTn/9IDES5culbipqUliawFt57Vj2nZr72xzOjo6JO3q1asSFxcXS+yy2g4FjeS0I1C+WW3GO+v17KVqI/Y6te8X1qrX/mFHqtbJvOlFwPXMaXvf4tpRLDbRdkzubdLrzLBaCEAAAhCAAAQgEDUCCMBRqwjrgQAEIAABCEAAAmlGAAE4zQoWYLkIwB4kBGCPAwJwgIsmi1IQgLOo2Fm8VQTgLC4+W4cABCAAAQhAAAIZQgABOEMKyTYgAAEIQAACEIBAqgggAKeKfOLmRQBGAOYbwIm7vtJ9ZATgdK8g6w9CAAE4CCVyIAABCEAAAhCAAASiTAABOMrVYW0QgAAEIAABCEAgogRcz8YLa+Ns813WndZuEUvP5B+IO+64QyYtKSmR2FoBFxUVSfu5c+cknj59usRWUIyCHfTAwIAvzOrq6rhA7u7u9uVmB7fXkbWGPvkdtdUd+rAyf+2116T7kSNHJLaCfV9fn+/67TN9bYLNtzm2XhUVFdLF5tfU1Ej7voFDEvfvVavtuMDMkkFyZ06UnU5YWu67654dLZGiEYXnAVsg9lv7S5Ys8WWFHXSkjlBaLMY+JiCIBXTYTdl7G9vXzoUddFiq5EMAAhCAAAQgAAEIIABzBiAAAQhAAAIQgAAEQhNAAA6NLG07IACPrnQIwKPjls29EIBjrz4CcOwMGWE4AQRgTgUEIAABCEAAAhCAQDoSQABOx6qxZghAAAIQgAAEIJBiAgjAKS5AEqdHAB4dbATg0XHL5l4IwLFXHwE4doaMgADMGYAABCAAAQhAAAIQyAwCCMCZUUd2AQEIQAACEIAABJJKYMOGDTJfQ0ODxNbS2dpvbtu2TXJ2794t8caNGyWuq6uT2Noe2jFbWtT+tLGxMal7ZrIxY973vvcJhsLCQolzcnIkttbQ48aNk/bjx49LbEVlay+cCMb2m1vNzc0yxYMPPug7XW9vr7THy6r6xIkTMqbLYtr+UUXXPxxVth+YJvGZM2ckPnRILZftdfGe97xHctra2iSuqqqSuLS0VOLW1laJraVzV1eXb75ttwCtZXRnZ2ciSpm1Y+bPUxvwogdmC4eCxXo2Ttz/dEr4FK+vlXmjZk9txeA///M/l3X+1V/9lcTYQafk2KTdpPYsBXlcRSI2iAV0IqgyJgQgAAEIQAACEMhsAgjAmV1fdgcBCEAAAhCAAAQSQgABOCFYIz8oAvDoSoQAPDpu9PIIIACP7iQgAI+OG72GE0AA5lRAAAIQgAAEIAABCKQjAQTgdKwaa4YABCAAAQhAAAIpJoAAnOICpGh6BODRgUcAHh03eiEAx3IGEIBjoUdfSwABmPMAAQhAAAIQgAAEIJCOBBCA07FqrBkCEIAABCAAAQikgIC10rUWzT/4wQ9kNa72/fv3+67Y2kRv375dcqyttO2IBWIKCm+mHDt2rPw0f/58iUtK1KLWxvn5+ZLT398v8fnz5yWeOnWqxPGyXLbnp6CgQMYvKiqSeOXKlRJby2JrE21pr1mzJi7wg4jBJ55RO99xR8pk3rzPqo3zyZMnpd2u+c0335R2azc9efJkabcW0NbS2do4281ahmfPnpVfLVu2TGI7Tl9fn7Tb/cYFIIMIgfLNi/UM1zcljUzh8kqZq2zTIq11imyog2zcCnjWMt325bECQUiSY+36g9z/2PsiS8/2dd0jWbtp25d7Ic4hBCAAAQhAAAIQgEAQAgjAQSiRAwEIQAACEIAABCAwBgGYQ4AAHPsZQACOnSEjeAQQgIOfBATg4KzIvDkBBGBOCAQgAAEIQAACEIBAuhBAAE6XSrFOCEAAAhCAAAQgkGICCMApLkAEpkcAjr0ICMCxM2QEBOCwZwABOCwx8l0EEIA5GxCAAAQgAAEIQAAC6UIAAThdKsU6IQABCEAAAhCAQIoJWAHYLsVlb7hlyxZJszaGLstEO6arL7aHKT4EZvpx48bJT3PnzpV42rRpEk+ZMkXi8ePHS3z9+nWJrV3wrFmzfPsG2bXL9tn2Xbdu3YhDWatqa3dsO1pr5REHvElCd3e3/NZaZ9suN27ckB8vtql19uUCZdja2io51g7arr+8vFxyKioqfFfV1tYm7YsXq71wU5PaC9t2l+2ztZu2Ex04cCAWXPT9BQI5pXpNDXVd9uVT/eR90j7Q9JbEnSEto4vX10rfnh0taV0L+15mrXftIwmCvFakNQQWP2oCYe+FXBO57nNc+fbeifM56vLREQIQgAAEIAABCGQVAQTgrCo3m4UABCAAAQhAAAKjJxD2Q08E4NGzToeeCMCxVwkBOHaG2TwCAvDoqo8APDpu9PIIhL0XcnFDAOZEQQACEIAABCAAAQgkmgACcKIJMz4EIAABCEAAAhDIEAJhP/REAM6Qwju2gQAce30RgGNnmM0jIACPrvoIwKPjRi8EYM4ABCAAAQhAAAIQgEB6EUAATq96sVoIQAACEIAABCCQMgKu595ZC01r9RxEAN62bZvsZ/fu3RJjdZiyMo9q4ry8POm3bNkyia1l99WrV6XdZXdcVFQkOcePH5d4zZo1vuuyQs7AwIDkbNy4cVT7+MVOO3fu9B2npqZG2uNlB93Z2SljWrtmu4BzO16XHwfe7JN47IZKia0d9KFDh6T93LlzEhcXF/vG1rq5tLRUcqwFtK11QUGB5Lhsn+04dm32WchxKVaWDGItnU/c/7Tvrq0wPPX/WCA5YW2f7VztD+2Tca68ptbl6Y7dJQbbfdXX16f7Nll/ggjY8xPL4zDs8lzj2Bweh5GggjIsBCAAAQhAAAIQyDACCMAZVlC2AwEIQAACEIAABBJFAAE4UWTTf1wE4NhriAAcO8NsGAEBOL5VRgCOL89sGw0BONsqzn4hAAEIQAACEIBAehFAAE6verFaCEAAAhCAAAQgkDICCMApQx/5iRGAYy8RAnDsDLNhBATg+FYZATi+PLNtNATgbKs4+4UABCAAAQhAAALpRQABOL3qxWohAAEIQAACEIBAUglY0TfIxC7bZ2vJ29DQIENZq2dre4gFdBDa0cyxYnBtba0s0loBT5kyRdonTJggsX2usLWM7utTu+Nnn31W8jdv3iyx/SB+3bp1cYdjLYt7e3tlfGtbnUw76It7T8sact6rPM+fPy/tQeygrb22tXquqqryrZ0rp6OjQ/IrKiokbmtrk9ieDZtz4MCBuNTLiqNnt70iY/bvbfcdv3iDns8xb2tKz46WuKzHDlK8XucKO3755sW+63FZOtv8sLbPdqJ4jRN3mAkacMWKFTIyjyRIEOQMG9b1h3H2fsZ1X+RC4bovsvncI2XYQWI7EIAABCAAAQhAIEEEEIATBJZhIQABCEAAAhCAQCYQQADOhComdw8IwLHzDvJtYATg4ZwRgD0m8RJu4zVO7FdEckZAAE4O50yaBQE4k6rJXiAAAQhAAAIQgEDmEUAAzryasiMIQAACEIAABCAQNwIIwHFDmTUDIQDHXmoE4NExRABGAB7dyfF6IQDHQi87+yIAZ2fd2TUEIAABCEAAAhBIFwIIwOlSKdYJAQhAAAIQgAAEUkDAWuxu3brVdwVh7QqtNaJrS9Yysb6+PgU7Z8p4ELCWzosWLZIhrUg8fvx4ac/JyZG4uLhY4oKCAomtOPrDH/5Q2r/+9a/HY8mBxti5c6fkLVy4UOLc3FyJS0pKAo01UpK1ni54rEvSp37pPRKf/d/NEl98n+bk5lZL++kx5yQ+ePCgxANzlHlZe762Dwz48q+pqZH2ri6dy+7D2j4vXqz2xUEspi1bFxv7zdSCxdOUQwDb5yBj9u86I2mFq6fr2atvGqlc7/h9WNtnm19c9y7fuU7c//SIawjyzV1rf33tzCUZs2yTXqd2ooGmt+RHy8dlrz3iIiOesGHDBt8VNjY2RnzlLC+ZBOw90pIlS2Rq1yMtgtz/2PUHub+65ZaffazHPwhAAAIQgAAEIAABCAwngADMqYAABCAAAQhAAAIQcBJAAOZwxEIAATgWel5fBODhDBGAb36uEIBjv+4QgGNnmA0jIABnQ5XZIwQgAAEIQAACEEhfAgjA6Vs7Vg4BCEAAAhCAAAQSTgABOOGIM3oCBODYy4sAjABsCfAN4NivqSAjIAAHoUQOAjBnAAIQgAAEIAABCEAgygQQgKNcHdYGAQhAAAIQgAAEUkzAPt/O2jK77KBXrlwpK960aZPELjvE7du3S05tba3E2D6nuPAJmH7s2LEyanW1WhOXlZVJu7VNnjx5srTn56s18eDgoLQfP35c4jVr1iRg1SMPaQXa3t5e3w7W/nrkEd+Z0b3jmDQMrpwk8cD+l5Xnuvskvn79usTXrl2TuO27r0jcVXtD4sNHD0ls7bUtT2v13NfXJ/k9PT0SW8vusDbRtq+t+4EDB3xxhbVWDsvc5oedy+ZfPnRehrryWveIyyhcXik58bJWdtlKxyIkh2Uy4sYjmGCFvZaWFllhXV2dxOvWrYvgyllSqgg89dRTMnUQC2iXvXMQ22ebwzlMVcWZFwIQgAAEIAABCESfAAJw9GvECiEAAQhAAAIQgEDKCCAApwx9xk2MADy6kiIAD+eWTAEy7FwIwKM751HrhQActYpEfz0IwNGvESuEAAQgAAEIQAAC2UYAATjbKs5+IQABCEAAAhCAQAgCCMAhYJF6UwIIwKM7IAjACMCjOzleL74BPDp6CMCj45bNvRCAs7n67B0CEIAABCAAAQhEkwACcDTrwqogAAEIQAACEEgxAftBnl2KtfWLZYm33PKz27Bo/rOir7UZ3L9/vyzYWkAHsSu0Ow2SH2U+0axa+q5q5syZsniXHXROTo7kFBUVSXzy5EmJp0yZInEslsuxkLQWygMDAzJUQUGBxOXl5RJbcbc3X62ey0oWSc7ZbrVuLroyR9p771YmZe1qkX21vV9zJuiYRZPvkPZLb1+W+HR/p8Sdv6bj9E/T8cf81mu+WKxdc2lpqeRYy2jbsa2tTX5cvHixxM3NzRJfvXrVN2fnzp3SHvZbubHUNKwtc/lm3VdnfVOoqe1cZZv0DFi7ZpegO9D0ljI8plbkeXP0erGLuWpyrFV15cPLJM2OWbB4mm+7HceO37NDbZNDQYhgsn1P3Lhxo6ywoaFBYt6zIli4JC/Jde8U9r7R3iPZLQSxleYcJrnoTAcBCEAAAhCAAAQiTgABOOIFYnkQgAAEIAABCKSGAAKwxx0BODXnL5tmRQD2qo0A7HFAAPY4IABH51UQATg6tYjyShCAo1wd1gYBCEAAAhCAAASykwACcHbWnV1DAAIQgAAEIDACAQRgDxACMJdKogkgAHuEEYA9DgjAHgcE4ES/8gQfHwE4OKtszkQAzubqs3cIQAACEIAABCAQTQIIwNGsC6uCAAQgAAEIQCDFBOwHeXYpQeyLg+TYMaNm2ecSv4NYQG/btk22tmnTJomD9F23bl2Kq870qSZgrZuvXbsmy7HW0BUVFdKem5sr8dDQkMT2+p09e3ZKtnXixAmZt7dXLXmthXXRfl1z7oxCyR88Y2ycx/tbQ/fvOi357R9Vu+ZjFVOlfdVfdyirmmKJL53S9ey8Q62z581/Q3JOHL+g+b+UJ3H5s7pma/tsbZxtjSx8l010X19fqBoNPKhrDmuzHGqiMWPGBLFltmO6LKBzZ06UtAn3qA34tTOXpH1c5QSJrXXzr9RqXb7bcrvvFnofPy7tX/6dsRI/8ozW3Y7Zv+uM5Pz6fxn0zb/Wrmsb6r4iOUUP+F9T1g46kyygLXCeDRz2CsrOfNfzgC2NLVu2yI/2sRpBiFkr8rq6OunCfVQQeuRAAAIQgAAEIACB7CGAAJw9tWanEIAABCAAAQiEIIAAPBxWEBEXATjEISN1GAEEYA8JAvDNLw4E4OF8EICT84KKAJwczuk+CwJwuleQ9UMAAhCAAAQgAIHMIIAAnBl1ZBcQgAAEIAABCMSZAAIwAnCcjxTDBSCAAIwAHOCYjEEARgAOck4SkYMAnAiqmTcmAnDm1ZQdQQACEIAABCAAgXQkgACcjlVjzRCAAAQgAAEIJJxAkA/v7CLC2j7bvuloAb1kyRLZQpBvBtscV/Hq6+sTXlcmiDYBK67YM2PtlG+/XS1wBwYGZENVVVUSjx2rFrjHj6s17po1a1ICoLtBbZzfYfXcrlbPg8fUljl3TpGsM7dSraHPdr8i7UWX50g82KJ9m5do3L1gruTMfFmtoX/cp9a+y4rURrun+6LkT696S+Irk05JfOatNyW+3KX2wt3d3b61CAK8o0Otql320XYcayW9c+fOIFPEJad4fa2M47I4thbQBYunjThv+0P7tKYOa2VrAf3eD42X/F//Sr7E76/Ueq3/2mRp/+Mvnpe4olqtwmffpXW3i7SW0cV179L9bn9dYmslbftaW2mXnXWiLbtHBB7HBHufYF+veC+LI+Q0HSqZ95AWUdTuJ9O0fCwbAhCAAAQgAAEIZAwBBOCMKSUbgQAEIAABCEAgngSS+eFd1D6wC/IMYATgeJ42xvoPAgjAHgkE4JtfEwjAHh8E4NS+diIAp5Z/lGdP5j2k5RC1+8ko14i1QQACEIAABCAAgWwggACcDVVmjxCAAAQgAAEIhCaQzA/vovaBHQJw6ONChzgRQAD2QCIA3/xAIQB7fBCA4/TCM8phEIBHCS4LuiXzHtLijNr9ZBaUmi1CAAIQgAAEIACBSBNAAI50eVgcBCAAAQhAAAKpIhDkGcB2bWvXrh1xqUFsoqPw4Z3rQ23Xt35tu4Xgsn1+8cUXJa2yslLixsbGERmSkHkENmzY4HsGrBj8yCOPSE5Rkdoj2/OTn692uO96l1rXdnV1SV97fc2ePTuhMPv3tsv4/btOS2zF3YIFasvc+3irb47LGtq2Fz1QI31faVUO/fl7pX3hfrUF/u6sammftUZttKc3lUh7+clDEv/0brUdnlGtVsO3zVS2z/2vy5JfVlYmcV9fn8TWsjsIfGsHbceZPFn3cuTIERlq/P23SdzT2BJkCt3v5sUSu2yKq5+8T8c3lsjWDrp4g9pEFz84soXyVWP9fa1drbnvKFErb5d183db1A799ubDsjab33FiSNrfWDjfl8m3vtQp7V9Yf903Z6j7inJeMEViu2Zr+zzmZ580/PzfpZ/o+DP+ZJW0n7j/6VA1ilqyfe1qaGiQ5W3cuFFi3teiVrXkrCfIPaS9b9yyZYssbOvWraNeZBTuIUe9eDpCAAIQgAAEIAABCMSdAAJw3JEyIAQgAAEIQAACmUAgyId3dp8IwMOrjgCcCVdC4veAAOwxRgAeftYQgD0mCMCJfx0azQwIwKOhlh19gtxDIgBnx1lglxCAAAQgAAEIQCCVBBCAU0mfuSEAAQhAAAIQiCyBIB/e2cUjAA8vJQJwZI93pBaGAOyVAwF4+LFEAPaYIABH6iVLFoMAHM26RGFVQe4hEYCjUCnWAAEIQAACEIAABDKbAAJwZteX3UEAAhCAAAQgMEoCrg/vRjlc4G6psu8Lsl+XhbW1LgxiE22F4fr6+sBsSMxMAvbsrVy5Uja5Z88e3w3fdddd0n79utrVTp2qdsrWIri4uFjyz549K3FJidodV1erJXK8KHfW75ehrO2zHd/aOA8s1LUVNKuFcm6NWl73FhyT7kVX5ki8c7naPp96vkDav5DfLfHgykkS77oxKPGSlw9K/PL7Fkg87u8nSPye68cl7vmgWhP3TdC5+hfeKjnn/viozjuocxUUaL6tkWVirZ5ratTaurVVLbKtlbQVie04bbX9uuYd/nbQxesHiSOMAAAgAElEQVTVrtlaGVv77iDnodzYR/c+rqyKHlCbcWv1nDdHa2rHtzlzr5yRXx3Nn65pxlp5WtspaV/7pYkS//GWqxK/9069Rg4Ye3C7tmX9r0v+a/u0b++ahb7bt+ssrjM214/pONb+eqBJbcP7d+m+wnIOUotU5dhHJ9g1rFu3LlVLYt6IEAjyPOAgjwix27H5tt2Kyqm6n4wIdpYBAQhAAAIQgAAEIDBmzL8/medtSEAAAhCAAAQgAAEIvJNAEEE0EcxS9YFdkP0iACei4oyJAOydAQRgjwMCsMcBATi9XhsRgNOrXslcLQJwMmkzFwQgAAEIQAACEICAJYAAzHmAAAQgAAEIQAACPgSCCKKJAIcAnAiqjBllAgjAXnUQgD0OCMAeBwTgKL9qDV8bAnB61SuZq0UATiZt5oIABCAAAQhAAAIQsAQQgDkPEIAABCAAAQhAwIdAogXgILbJybRHDvK8Omvd7LJ6tii3bt0qP9r92vZUCd4c+tQSsB+Ib9++XRbT0NAgcZCzkZ+v1sdz5qglcmVlpYxz++23S3zqlFrmjh07VtqnT1eL3fLy8rjDOfHU0zJmZc0yiQcOnZPY2kG7LKPH3PBf2s6VyiF3h9oLL+tXK+Z39PzCTPnxxH61hv5x34DvBF+8/bK0X3l7SOKnr1yT+LbBC7qX8j6JL7bqHm297ERBRF+bby2gra20zbH20btPvyy/eoctc4vaWfc0+ttEuw6DtX122TsXLJ4m3c9ue0Xisk2LJO7ZrrbJ769Uq+TZd+VKzndb9AzbMT/Z+5Lk7P0H/9rZ9b+xcL7vdr71pU5p/+MvnpfYWk9bq2e7l8LVxp7ajG7XaffY47DjjvtFl+QB7Wvatm3bZPbdu3dLHOQ1LcnLZrokELD3Vy4nlSCWzmFtojlvSSguU0AAAhCAAAQgAIGIE0AAjniBWB4EIAABCEAAAqkhgADscbcfOCIAp+YsZuKsCMBeVRGAPQ4IwB4HBOD0fbVDAE7f2iV65QjAiSbM+BCAAAQgAAEIQAACLgIIwJwNCEAAAhCAAAQg4EMAAdiDggDM5ZEIAgjAHlUEYI8DArDHAQE4Ea82yRkTATg5nNNxFgTgdKwaa4YABCAAAQhAAAKZQQABODPqyC4gAAEIQAACEIgzgXgJwEFs/VxLT6Z9n93vxo0bZUm1tbUSW9vnILitta8dBwvoIPQyO8f1gfi6detGvfHq6mrpW1hYKHFpaanERUVqj3zlyhVpt3bQ9rpbtEitesMurH9vu3QZPNMvce50XVv/rtPaPkfXVrBgqrT3Pt46Ys5Qt+5l58s6/kfXqF2zzTmdU6JMqtQGecwjapHde+8dkjOrUq2eL72kdsHj3q320f86p0fH/Ff1qh4c96a0tx1XO+iJEydKuxWAe3p0nLy8PMmpqKiQuKOjQ+L+fmVbVlY2Ypl67r5Vc372v+Gf/wtiAV28Xl8Pr7Vfkr7W0nmgSW2cl/WrvfOr718p+da6+QffuSjta7+kTKzts92UtZu2gvEL7Wo3nWfOkl2Dzbn4gp698hI9J2cvq534hKUj26Fba2hr9WzXYNefDdbQrj9waWxsHPF8kpB5BILcT7oek+F6XMjatWt9Qdn8ZD5GJPOqxo4gAAEIQAACEIBAZhBAAM6MOrILCEAAAhCAAATiTCDIB3ZBpkQA9ighAAc5LdmTgwDs1RoB2OOAAOxxQADOjNdABODMqGO8dhHkfhIBOF60GQcCEIAABCAAAQhAwBJAAOY8QAACEIAABCAAAR8CQT6wCwIOAdijhAAc5LRkTw4CsFdrBGCPAwKwxwEBODNeAxGAM6OO8dpFkPtJBOB40WYcCEAAAhCAAAQgAAFLAAGY8wABCEAAAhCAAAR8CLg+sAsi6Nocl01fWOiJtoO2H1jbtQWxcbb5Qfgkei9h2ZKfHAIuUcT+cUC8LCutHXRVVZVs0Fo9Wztoayls+9qzatuDEOvecUzSrKXzwEG1Qe4drzlFV+ZIfm++tpeV+NtQD7ar9fHgMbVx3lc4V8ZZXal2zbmVag3d3K1209XNhyR/4EG1ni56WW2B7fj9n1BL7dbDJ6XvxAJd5+yiLmk/cEbHyZ+mttjnupTD5cuXdQ0DA8qtoMC3feHChb4l6OrSeW1NrX20tQRvXqJ2072PH5cxix6YrbVwtFsrZpcN8twrZ2Sc5Z/UvdjFP/JMsfw4rU0tuFd98FO+e9xxfL+0Xz50XuK7atQG/Gj+dGn/wsd0j/9QtNR3zP9n8b9J++82vUdia+k8xthl59Uau/LFaj19dtsr0rdwta7BTtpZ3yQ/Wkvtnh0tQS6rtMjZsGGDrLOurs53zbHY3acFBBbpSyCIGBwvdNxrxYsk40AAAhCAAAQgAIH0JYAAnL61Y+UQgAAEIAABCCSQAAKwBxcBOIGHLMuGRgD2Co4A7HFAAPY4IAB7HBCAs+wNIUu3iwCcpYVn2xCAAAQgAAEIQCBFBBCAUwSeaSEAAQhAAAIQiDYBBGCvPgjA0T6n6bQ6BGCvWgjAHgcEYI8DArDHAQE4nV7NWetoCSAAj5Yc/SAAAQhAAAIQgAAERkMAAXg01OgDAQhAAAIQgEBWEdi8ebPsd+vWrRIHsXp2PdfNAkyVbbK1qWxoaPDd1/79ajdq9+46AK692HHiZfObVYcwAza7YsUK2cWmTZskTrQV6po1a2Qu+6zZSZMmSbu1ILYf0JeUlEjO+fNqt2vHtKXp36sWx4XLK+VXJ556WuKC5jKJix6okbj38VaJBxae1RxjDe06Bi5757lXTuv4xlY6d64yOXVULZo7T2i8bKNaMb+6+6iMs7xSrar/v66/kfbSe35F4l8+N17ii0ffknjoXfkSv3le7ZF7L6mdteU8efJk39rZdsvE2j7b9gJjJV1To8xtjrWD7t+la3NZGducsk1qfz3QpPu92qLW3GPe1tlcltHvr9S+bS/Pkg7tq5Xbna9PkPZjn1Fb70/2vuR7PH7wpxelffDrH5LY2jtPeLVN2i/dpZbplw/qma98eFmoVyE7vrWqvvJat+841U/ep9fL/Xq9hJo0gsn2/uHFF1+UFe7ZsyeCq2VJiSbgetyGnTdejw6xY2IHnejKMj4EIAABCEAAAhCIJgEE4GjWhVVBAAIQgAAEIBAhAgjAXjEQgCN0KNNwKQjAXtEQgD0OCMAeByuUIgB7TE4gAKfhKzxLDkIAATgIJXIgAAEIQAACEIAABOJFAAE4XiQZBwIQgAAEIACBjCWAAOyVFgE4Y494UjaGAOxhRgD2OCAAexwQgD0OfAM4KS/DTJJiAgjAKS4A00MAAhCAAAQgAIEsI4AAnGUFZ7sQgAAEIAABCIQnYD+wS4Q1n12Ry0LZ5sTLMtda3QaZ167BWjq7iC5ZskR+hQV0+HOXCT3sH0/Y85CI8xyE11133SVpeXl5EpeWlkqcn692u+3taum8YMECyTl48KDE1g7aZQHdveOY5A8eM7bAARZtbaIHDp3zHSfnc2pBPPS3r4w46r7Cub45c76klu82YfCQWmG37VYL5WX9ag39/fn/LF0+fe0/Kc95xRKf/6c3JL7lw8r81Jsnpf2ty2oRfOLECWkvK1PrbGvj3NTUJDlVVWpfbNdv69vaqlbbNseOae2gbU7B4mnyo7V6tu02//SX1fJ3wtJy+ZW1gLbjfH3ROsl5Yfc23xrNvitX2i8c/bBvzvu/vFvaf/0rep7z5hT55tv13/mC9n2hXffr6uviY9vtHjvrtV42p3h9rfzoeh6wzXExdI0/4kWRoAT7Prty5UqZZdWqVRLzWIQEwY/gsIkQgFP1GJEI4mVJEIAABCAAAQhAAAK/QAABmCMBAQhAAAIQgAAERiCAADwcEAIwl00QAgjAHiUEYI8DArDHAQF4+KsHAnCQV1Ry0p0AAnC6V5D1QwACEIAABCAAgfQigACcXvVitRCAAAQgAAEIpIAAAvBw6AjAKTiIaTglArBXNARgjwMCsMcBAXj4ixkCcBq+wLPk0AQQgEMjowMEIAABCEAAAhCAQAwEEIBjgEdXCEAAAhCAAASyj4DrecCWhLXjs5bRQWz6ghC95Zaf3cLF/s9aU27ZskUGtFa9rvU/9NBDkv/www/7LsZllx2v9cdCwCXqu2pkBW/7LGTLza4HS0+Pxvz5833PSbxszGM5A4sWqW3ypEmTZChrDZ2Tk+M7xdixY6V9+vTpmvPIKYnLN6sFuh2ks97fZnlg4VlJK7o8R+LCe9Q6ePBUv7QPntb4bNVM7ft8s++aTyxUC+tXhv5IcpaVqe1w28v+FsqtJYOSf2e5WkwvmHuntDe/9JrEA+3K9j2z1VJ48mW1jx5484LkF/zBBIlvq7pN4n/61qsS9/T0SNzW1iaxtX227RZCcbHaULvOjLWA7urqkrSOj+kZ6H38uHJ+YLbW6HHNn1QyUdrbV6v98lVj/f2Fj+le7HqspXPTbq3jwJBaiM+7R63L9z97Wbp/+uuTJf7RX1ZIvHjFQomfvFXHseu5fOi85NxVc0Xit37tA7647HOLbYIdp8jwCWLL7BKA7bOBex57Xc9DY4vE5ZsXSxxkLtcZSHR7qp6Dnuh9MX5wAva+K3iv4Jmu+88o3HcF3wWZEIAABCAAAQhAAALxIoAAHC+SjAMBCEAAAhCAQFYQQAD2yowA7HFAAL75ZY8APJwPArDHBAF4+NlAAPaY2GcAIwBnxa1V1mwSAThrSs1GIQABCEAAAhCAQCQIIABHogwsAgIQgAAEIACBdCGAAOxVCgHY44AAfPMrFwF4OB8EYI8JAvDws4EA7DFBAE6XOyLWGZYAAnBYYuRDAAIQgAAEIAABCMRCAAE4Fnr0hQAEIAABCEAg6wjYD+/iZekcBKKdy9oRx2I1HETMtgKntT62a3bl2DVHwfI3yH5d9olhOcRSlyDnIco5lrNdp7UWj8J5sGu7/fbb5ceKCrXPtdbQFy9elJx58+ZJbO2gDx48KO1r1qzxLZN9HrBNyK0slB/PdqvNsrWDfseAxgl+V7vaRH90zZCkDXWrne/3dv+LtJcVqO2ztXe246+bo+vZ9S/fl19V1czQvRepNfSxfrW2vnfGf5Ocop1qZTxhtdo7X9xzWteZqzPvX6YMSy/Xyi9uMW7c1up58mS1PnZdFx0dHb71LS0t9e1iLaDtXMV/+0tao21ao4e/+uvS/t8bHvUdM29OkbR/60udEv/0n9XG+bMbG6R91zM/kfiZv/uRjvm2hgUzdA3rv6Ycdnyjz3cNpePXSvuO48aK3JyluZfPSM7Bbl1z4Wq1Orf20a4zee3MJflV/952V2mk3do4FyyeJu0DTW9J7LJ3ThcLaNf9Q7ze00eETEKkCLgeRRHkfsNuJMh9Szbfk0Sq6CwGAhCAAAQgAAEIJJkAAnCSgTMdBCAAAQhAAALpTQABeHj9EIA9JpZDNn/YigDsnQcEYI8DArDHAQH45u/9CMAen2x+70jvu8Pwq0cADs+MHhCAAAQgAAEIQAAC4QggAIfjRTYEIAABCEAAAllOAAF4+AFAAPaYIAB7HBCAPQ4IwB4HBGCPAwLwzW8eEIA9PgjA2XOTiQCcPbVmpxCAAAQgAAEIQCBVBBCAU0WeeSEAAQhAAAIQSHsCsTzLzWUfbaGsXat2nS5Yt9xivDtDEnWJ2XbeIOvcvn27zFxXVyexHSeWdYbc1jvSrRj54osvyu9Onjwp8be//W2JXXuxFp12gpaWFvmxtlbtarP5Q/wVK1YIk8rKSokbGxtjKWXS+to62vVbu+ArV9Ra2Z7tqqoq3zO2aNEiaXc9A7h88xLJ6W44JnFvgcaVNcukvb11n8Tf710qcU23+ikv6z8q7U+M1XGsBXR5tXorNx96fETOQ3PbfHOWVX1U2s+euCDxpFzd196+AWn/lZPHJb4xVl/Hbp1TIO1tZWojfGVI+57rPu97xqx1s7V9tgvu7FT75erqat+9DAzoXDbB2oP/6pYH5Fd/8MpTElv74jtf2O07vrVrfuFPVkrOgsVzJT7UpLWz7c88pnbQH3vwg5JvbaL7rqq9c4Wp7//9P7S+K39FbauntZ2Scdb+nxMlfuSZYomvtWstrB203aC1hraCt8u62fa1AvA76lXfJD/mzyuRePyCKRJfPqTn4cpr3SOe4SgkuB5JkKr3yigwybY1BLkHs39YZh+jYO+vglhGc66y7XSxXwhAAAIQgAAEIOARQADmJEAAAhCAAAQgAIFREkAA9sAhAHscEIA9DgjAHgf7RwYIwB4TBGCPAwLw8DddBOCff0ATwx91jfJWhm4pIoAAnCLwTAsBCEAAAhCAAASyiAACcBYVm61CAAIQgAAEIBBfAgjAHk8EYI8DArDHAQHY44AA7HHgG8DD33cQgIczQQD2mPBNzfjep0V5NATgKFeHtUEAAhCAAAQgAIHMIIAAnBl1ZBcQgAAEIAABCKSAgOv5bXYpLgvlIPbOtm8Qu78gHxxv2LBBltfQ0BCKml2PtUTeunWrjOOyIgyytlCLuUmyFSBXrVolmdY+0Xa3bDdu3Ci/snbWVuS2fV0Mk7nfeHGLZRx7LWzbtk2G6u5WO9bDhw/HMkVK+lqLYGvvnJeXJ+spLy+X2FqC37hxQ9rvuOMOiS83/VTiytnG0vm4WjqXlahltN34YHu//vi2hr3j1d7Z2kF/9tQJSfr+vJ2+DJeVrZP2/bubJbZWzzlH1dp6ycqFkrPvrFofP3D3f5X2znOnJZ6Ur7a9zz+xV9qtDfWH7tZ9Pfbjf5GccblqZ122Um23xw/cJjmHDxyUeNasWRJbC2hr3dzX1zfiWaqpqfHNsRbTdpzf+ubnJf+F3Xr+O04MSfvRfeMk/v2/+G3f8f/m/92hfCrV4tgmb/veZt++3/69v5H2k61nJP7Yp9Um2tpKP3mrnplvfUltsT93r1o955Tkay2mT9AzfFAtl4semC3t1gL6373Gfv6vp1Gt8u3ii9erbb5t79mh+cUbNCevtkjPmLGGHrGgEUywr5l2eVF4dEIEcWXkkoIIwK77QAsk7H1mtt2fZOThYVMQgAAEIAABCEAgIAEE4ICgSIMABCAAAQhAAAK/SAAB2COCADz82si2D1gRgL0zgADscUAA9jggAHscEICHv0cgAHNPiQDMGYAABCAAAQhAAAIQSDQBBOBEE2Z8CEAAAhCAAAQylgACsFdaBODhRxwB2GPCN4A9DnwD2OPAN4A9DnwD2OPAN4CHv3fwDeCMvWUctjEE4OypNTuFAAQgAAEIQAACqSKAAJwq8swLAQhAAAIQgEBGEXCJwUHs+yyIsFZ+tm8Q0XHzZrUPtZbILotpl22yq3jWKjmZz8S1+7Jrs+u3a7PWzdb22fa167cit8sK2861bp3a6mbUQXdsxn6QbXk2NjZmzPYXL14se5k4caLEkyZNknhoSC1/7fk5f14tc3t7eyW/qrXQl8/gMc3JnaO2t4VL1W769Ku7pW/R5TkS7+rQHDt4eXWO71ydxqZ43jK1XH7+9Dd9860ddJDirv/iR3Vtj+oazg6offR/qlkiOU23tkvclvOSxPltajU8uWy8tC/8pO53z2OHpL24uFji0tJSiVtbW32X3d6u844fr+Nb6287TnOz2mXbAW9fckF+fPBzD/nO9czf/UjaZ9VM982xNs7/9tJrkvOepfMkvuM+3e/efxjwHafC1P3V96+UnGl/pVbbtuOBVrV9tu3jF6gldZ45k72PH9dz6LCDtpbOdszqJ++THwea3vI/n2lu9RzkGrH3D/bxCvX19UG6k5OmBIJ8C9xuzXV/GGT7/GFBEErkQAACEIAABCAAgcwjgACceTVlRxCAAAQgAAEIpIAAArAHHQHY44AA7HFAAPY4IAB7HHYhAP87BwRg7zwgAHscEIBTcNMWgSkRgCNQBJYAAQhAAAIQgAAEMpwAAnCGF5jtQQACEIAABCCQHAIIwB5nBGCPAwKwxwEB2OOAAOxxQAD2OCAAexwQgD0OCMDJuU+L2iwIwFGrCOuBAAQgAAEIQAACmUcAATjzasqOIAABCEAAAhBIAQFrgRtkepeNsLUaDjKOK8dlBx3Lc4utNaWd17XmIJbUsexxw4YN0t1l12ztiOvq6kaczmWT6HpW37Zt22TMVatWSZxt1p3Wgtueh0SfgRELmqCEhQsXyshTp06VeNq0aRLn5eVJbAVg+1zk2bPV1njMIbX5Lbqils69+cdkHNtut2Ytox+dWS2/mnmv2gKfer5A2pcXaby3V3PWzVFL6rZTar/cmrNX+i4rU3vzfWfVxtmux2UT/fFfvVfSXt17VOLmgQUSf2zjqxK/+YRaRreN1/WsOblacmb90UyJf/xdZdX6+glpz8nRcQYG/K2SbU27urqkb1tbm8TWVrqmpkbara10T0+PtP/+X31V4kNNut+mPWoffaH7ouT8X/W/JrEVic92qIX457+6XnJOXfxj3xP+3g+phfVP//my5PxD0VKJ73xBLcRn36XW33/2lxqXbVok+ae//KLEM/5EX+tisW4uXF4pY46rnCCxyzLad7MZ0Jhtr58ZULK4byHI84DtpGEfL2L7Zur7ctyLwoAQgAAEIAABCEAgAwggAGdAEdkCBCAAAQhAAAKpJ4AAPLwGif6QEQE49ef+P1aQbQIGArBXeQRgjwMC8PDXos4Az+5FAPa4ZdvrZ3TeuaKzEgTg6NSClUAAAhCAAAQgAIFMIoAAnEnVZC8QgAAEIAABCKSMAALwcPQIwCk7jkmfONsEDARg74ghAHscEICHv+QgAAd/Gc6218/gZLInEwE4e2rNTiEAAQhAAAIQgEAyCSAAJ5M2c0EAAhCAAAQgkBUEwtosW9tha+tnYYXNCWIB7SqGtXq2dr7WTtllubxlyxYZNhE2yC6h3XJzPYd4yZIlvlu2+7U5Ydvt4Nn2DGArYFgOiTgDUXsRcYnBublqpTt58mRZtrUjPnnypLSXlJRIXPHsNYnz5hRLnFupFs1nu1+R9qIBtYze1Vku7Wvu7vfF9Z0TujabUNOt7WcH1N65qmaGpo3VsO3Yaflh3WfWSPzU93ZKvGSl2mVbwXhOoV6P/a+pNXFryaD0vbe6XeLaMVMkfqxvu8SFhcpk+nTde9fpcZJTOU7ZHj9+PNQRspbO1gLaWkkXFKiltq11S0uLzFX35fslXrB47ohrsBbQH/v0B33zX9itFvQdJ4b0/FSr5fWr718p7dauuWCx2pVbO+gX2rXdTnqt/ZL8aO2a8+YUSfvVY70S2/z+vVpH18bt84B7tr8uadlgB+26Z0j0H1GNeAhJSBoB172Nvaey9yf2ntAu0vV4Eds32+5PklZEJoIABCAAAQhAAAIRJIAAHMGisCQIQAACEIAABNKbAAKwV79EiH8IwNG8NhCAvbrY5wEjAHtMEIA9DgjAN3/tQgD2+LieQx/NV35WFS8CCMDxIsk4EIAABCAAAQhAAAKWAAIw5wECEIAABCAAAQjEmQACsAcUATjOByvCwyEAe8VBAPY48A1gjwPfAPY48A3gm7948w3gCL+5JWlpCMBJAs00EIAABCAAAQhAIMsIIABnWcHZLgQgAAEIQAACiScQRAAOsgqXHbTt67IBtDnWRtIKdUHsBF3rdK3N2ibHSwC2H4xaG+q6ujrf5QWxRgzCMAh/azfd0NAgw2aDdadL9LW24dnAoXzzYqn71CcuSzxliloW5+XlSbu1Di4qUvtcawFtz2dZe778OHhaLZ0Ll6nd8cuvquXv3Ctqy9ybf0z6do75gMbGLrjc2AWfuvuc5PT+7e4RX6as7XN3ebPk57fWSHylplXiXU+/JHHlqd+U+M51Ou/+fN3L6r/ulJzC1WpDfbVdOTx+Sq2w7/s9tcJu+ye10X7jrRMyzvVLapU8adIkae/r6xtxvzU1uq+uri7fvtYC2jXmhzbcI31PtpyR+GzneYk//9X1Ej/z2I8k/tiDagf92N8+LO3LP6k21McPqI32+q+p/fhP/1nP5yPPqLW43fj7K9+SH3e+rPbaNqdw9XT50do+W7vm4vW1khPWxtleU0GeJTxi4SKesGHDBt8VtrerdfaePXsivguWFwsBlwBsx7T3JK7HgoS9J4xlzfSFAAQgAAEIQAACEIg+AQTg6NeIFUIAAhCAAAQgkGYEEIC9giEAp9nBDblcBGAPGAKwxwEB2OOAAOxxQAAO/oKKABycVaZmIgBnamXZFwQgAAEIQAACEEgtAQTg1PJndghAAAIQgAAEMpAAArBXVATgDDzcZksIwB4MBGCPAwKwxwEB2OOAABz89R8BODirTM1EAM7UyrIvCEAAAhCAAAQgkFoCCMCp5c/sEIAABCAAAQhkOAHXh3rxsvKz+OyYLivmsOux42/ZssW3Wtby1ybEYv9rRXS7Fzu+y8LartPmWLvm2lq1J3Wt37Vfu4Zsszu2e7dnyZ69devWZfhV/c7tWaHr8iG18J0//nZJnDhxosQ3btyQeMKECRJfuHBB4rvvvlviEyfUvrjyh2pf/LP/yP3Hv32F75Z4yUfUMvrUMc2vbj6kYy5cIPHe3gGJlxepjXB+iVo3n23vlpyyyhKJ9+9W22dLpWqO2jXPWKdr2PtNtXQemtsmXaYu/azEJYeOSnysf7/Eq+9bKvHg/jKJi/pOSTxl1hKJr47Xed84qFbYHV/I1b08patubta9FBQoByvo2j1ae2dXjs3v6OiQH+34Tx75C2nf9Jl67fK26W2KPatG7Zdf/NH3JWneMrUZ7zAW3xXG4vuF9mmSb62eZ9+lTKx9tLWAHuq+Yrej/B+YLbG1a7Z/GNG/S22uXc8DtvkuW2nfBWRYo+uRB42NjRm2U7ZjCdg/qLL3FWHvFYPkZ9t7NCcNAhCAAAQgAAEIZDMBBOBsrj57hwAEIAABCEAg4QTCCq6uD++CLBQB2KOEABzktMSegwDsMVH75XcAACAASURBVEQAHn6WEICHM0EA9pggAN/8tRcBOPb3pnQcAQE4HavGmiEAAQhAAAIQgED0CSAAR79GrBACEIAABCAAgTQmgAA8uuLxDeDRcUtmLwRgjzYC8PBThwA8nAkCsMcEAfjmr9IIwMl8F4vOXAjA0akFK4EABCAAAQhAAAKZRAABOJOqyV4gAAEIQAACEIgcgSACsF302rVrfffg+navtTgOO47NtzbL1n7Qfps2iC2hzQ/7DGDXM2VdVs92/S4+Nse1ryCHxsU5m60Ubb0sn2xmYsXga+2X5GgVtY2VuLS0VNuLiiS2NtHXr1+X9oqKComnTVML33P/4xVpz5tTLHFvvtod27M9WHav71HvPquW1J3GOvjsgPojW0G3dexeGSfnaJXEy3+7XGJr9VxVo3bQrTn+fV05n1vzFRnz2KtqhV11Wm2uc2cUSs7V9osS5949VeKTHU2aM1YtrA9eVRvqObm6zn379kl+WZnaTVuAAwNqnW1r5LKGtnW343R1dcmPSz4yT+KmPWpJ/fmvrpf2Q01qkT1p7j/51vSRZ/U8/Nn/VOvmHd/ok/x9he+S2Fo0j6tUW/K8OXo+bY6dtHC1WlJbC2ibY68L227Hv9rSK7/qaWwJ8rKckTn2j5/sBrP5dTUjC/0Lm3LV3XVPaLuHdY6J5fEc2VAL9ggBCEAAAhCAAAQyiQACcCZVk71AAAIQgAAEIBA5AgjAwUuCABycVRQyEYCHVwEB2GOCAOxxsM8GRgAefr0gAA9nggAchXe35K8BATj5zJkRAhCAAAQgAAEIZAMBBOBsqDJ7hAAEIAABCEAgZQQQgIOjRwAOzioKmQjAw6uAAOwxQQD2OCAAexz4BnDwV2wE4OCsMikTATiTqsleIAABCEAAAhCAQHQIIABHpxasBAIQgAAEIACBDCfgeq5tEIvjIGis/bLNDzK+tRDctm2bdK+srJS4trZWYpcddFibyg0bNsiYdXV1EltL6pYWtQN15Tz66KPS99vf/rbE27dvl7ihoUHiBQsWSPyJT3xCYjuXa7/ZbJ/o+pDanrewZyDI2U6XnMLler24nnVq7YInTFC73alT1bLY2kHPmjVLtn/litr5WqvhovYOySm+PEfi3Eq1R27uVjvfRTU6zlC3xt85keuLetLp53zbh+aqhfIDd/9XyXnqezslXrJyocT7zqqttLWPtoPbMacu/az8ak7nOY0H1G76bLdaYVfW3CM517ovS9x56d8kfvsNtUc+N1ftr0/OUcvugiZlYl8TrB20tYAuKCgIdUStMGyfDfwOu++ayTLmxz79QYlf2K2vz+u/pjlf+Y4yKVisVuFntymfR3bcKuP8btN7JB5oekvi3sePS1z0wGyJu/5EGZZ+Wfta2+f8eWqvfeW17lBMglw7oQZM02T7nmjfs1auXCk72rNnT5rujmUHIRDkDwdd1tD2PjDII0Ky+X4mSC3IgQAEIAABCEAAAulOAAE43SvI+iEAAQhAAAIQSBsCCMDDS4UAnDbH998XigB883oFEbEQgD2GCMAeBwRgj0OQaye9Xi1Ht1oE4NFxy6ReCMCZVE32AgEIQAACEIAABFJLAAE4tfyZHQIQgAAEIACBLCKAADy82AjA6XUBIADfvF5BRCwEYI8hArDHAQHY4xDk2kmvV8vRrRYBeHTcMqkXAnAmVZO9QAACEIAABCAAgdQSQABOLX9mhwAEIAABCEAgiwiEfcZbWCu/IPkPPfSQEH/44Yd96VtrwY0bN0qOtaO0He289fX1I1Y0yLN+7SCu9bjsoF0LsHaI1hra5rv2iE2iR8n1RwxB6j7iwciAhLAi1po1a2TXbW1qp1xaWirt1l44N1ctmsvLjQ3y2bOSX3V8osQ/+8/ef/yzdtDW6nl5kdoXn7pbbZZPPa/tCwsO6TqPnZZ4+W/rGuxzf62NsxV6q2pm6Dit/uOcfipHcnqXVev6d6iF9Z3rdJ1l7fmSc3HXm5o/R62ecyt1L9fGXNf8G2r13DakNsjXJr4uOYf3DSjbqiqJrQW3tYNeuFAtr7u6uiTf1tS2WwHY1traRN/7Fd3Xj/6yQtdz90mJn92p3L78O2N9r6bvttzu296/64xve+Hq6dJ+9VivxHlztBYuC2hrH21zXJd52GsnA14uRtyCSwzm/WhEdGmd4BKAXZuy92D28RyufPvIj2x+ZENaHxIWDwEIQAACEIAABAISQAAOCIo0CEAAAhCAAAQgECsBBGCPIAJwrCcpdf0RgG/OPqyIhQDs8bRCMgKwxwQBOHWvc1GZGQE4KpVI7joQgJPLm9kgAAEIQAACEIBAJhNAAM7k6rI3CEAAAhCAAAQiRQAB2CsHAnCkjmWoxSAA3xwXArDHh28Aexz4BrDHgW8Ah3qZlWQE4NFxS/deCMDpXkHWDwEIQAACEIAABKJDAAE4OrVgJRCAAAQgAAEIZBEB+wFfWPu+sJis3Z+1Uw47jrWDrq2tle4tLS0SNzY2+g5rhcMga7BM7Ph2XjuRtXe2469cuVLSVq1aJfE//uM/SmytsPfv3y/t2BoPL6UVJGwtYOWxKl6v10XPDr0uXNeazV/cq/a8Vji0rxVTpkyRocrKyiS23xa9ceOGtF/56SsSz3iPXgvdjx6V9lxj5ztobH6/P2+n5NRcWy5x23G1bg7yGnLvx7XvlZpW6XL6CbUsnvHxIWnf9fRLErueE3xhxkck594FpySeM6CW1IPt/dI+foFyG+q+LO1Dxg76rdfUBrngD3U9b/698jx+WOeyzK0dtG0PwufIkSOS9u53v1tiO6Yd57e++Xn5cfXH7pH4/ue+JfHZbVr3sk2LpL1nu1pbXz50XtorH17mmzPGeoi/ratwWUDbdZZvXiw/BhGAw+YHYZvuOfaPpex7HLa96V7Zm68/yB/Jue6j7P2encXe23CWMvv8sDsIQAACEIAABCBgCSAAcx4gAAEIQAACEIBACgggAN8cOgJwCg5lgCkRgG8OCQF4OB8E4JufGQRgjw8C8PBzggAc4E0pA1MQgDOwqGwJAhCAAAQgAAEIpIgAAnCKwDMtBCAAAQhAAALZTQABGAE4Ha8ABGAEYL4B7J0BvgHscXB9uzesoBs2Px1fP8OuGQE4LLHMyEcAzow6sgsIQAACEIAABCAQBQIIwFGoAmuAAAQgAAEIQCDrCMTyjDdr32fBBbFWtvn2W7ZhC7B161bpYq2hrQX0ihUrJGfTpk2+U9g1W+tCa1fosoB+8cUXfcd3cXDtFzvE4NW3Vt7bt2+Xji7r7+AjZ0Zm9ZP3yUYGmt6S2CWSFW8wltGNahm9Zs0a6dvaqrbJhYWF0l5aWipxXl6exMXFxRKfPHlS4vkvTdScB3TegUPnpL3942pxvPebndJun+lbeeo3pX3hmm6Jnzv6PYmtdfPy31ZbZltll9Wzncvm2zGtBbTN+dTyC/JjWXu+76EaPKPW0JdP9EhOyVcWSvzyLt1XzoJXpf1iq3oitx5pk/Y777xTYtdzf20drXh84MAB6VtdXe275oGBAWnv79f1/+T8E77593zws9I+eOqixGMLx0lc9MBsiXsfPy6xtcu2gxfXvUt+PHH/077z2sYgz8O214u1re7f2z7i+NmQYP/gpq6uTraMBXRmVz/I/aG972poaAgFxN5rcZZCoSMZAhCAAAQgAAEIpB0BBOC0KxkLhgAEIAABCEAgEwgE+YDP7tOKlwjAHhkE4ORfCQjAN2eOAOzxQQD2OFiRHgF4+LWDAHzz1xME4OS/x0VhxiD3hwjAUagUa4AABCAAAQhAAALRJ4AAHP0asUIIQAACEIAABDKQQJAP+Oy2EYA9GrW1+s1FBODkXxgIwDdnjgDs8UEA9jggAHscXN/oRQC++esJAnDy3+OiMGOQ+0ME4ChUijVAAAIQgAAEIACB6BNAAI5+jVghBCAAAQhAAAIZTsB+2Get+Vz2yEFw2L5WPLZ2ykFsA10fMroE6W3btsnyKisrJW5vV0vPVatW+W7B9c3mIPu1OS4LaJfFdH19fdgpsjbf9WxCGAY/EsXr9Y8YLr2kNsvWqteOZu2gm5ub5VdlZWUST506VeL8fLU+7uvrk3ZrL1zwd2r7PHH1bZLTtuQ1ia0FdFXNDGmflL9E4guX9+t6ppdIvO/sUxIHEYNPP5HjC3Dh0nnS/vjLf+E75sIFD0j73IHTEvcu0TGtHfRgu1oo9+Yfk/zB0g9IfMs9TRK//Gdq5f3pb/6S7vExtYA+dVyttq1NdxAhp61Nx7EQrK13RUWF/Kqjo0Ni2z5t9mRp/9exZ3x5XvqJnreS/zxXcq4e65XYWj33bH9d2nt2qEV5kNNun+nbv0vXM65ywqjHDDJvJuXYP7ixj0Xg9TaTqjx8L/Z91j5uw3V/aEewObbddV90yy1qa5/ZVNkdBCAAAQhAAAIQyE4CCMDZWXd2DQEIQAACEIBAhAggAHvFQACO0KF0LAUBOPYaIQAPZ4gAPJwJAnDs11q6j4AAnO4VHN36EYBHx41eEIAABCAAAQhAAALDCSAAcyogAAEIQAACEIBAigkgACMAp/gIBp4eATgwKmciAjACsCXAN4Bjv6YydQQE4Eyt7M33hQCcnXVn1xCAAAQgAAEIQCARBBCAE0GVMSEAAQhAAAIQgEAIAq4P++wQLls/m2MtIu23aV120LavzXeNE2RLtq9r/O3bt8uv7DN9rT11XV2d5Nh8l211ED52PevWrQuyHXJ+gYAVJOy5wkYy+FGxzz3tecxY7DaObLFrbZxrampk0p6eHomLi4sltnbE48ePl/YLFy5I3HX8osQfWLpI4r/+nto4290NzVXL4kU5X5VfvTL0RxIvK9Pry9pBr75vqeTsevolX2jWMtrO5epbeeo3ZZzyarV9XliitsbHCtT6eM5AueQ3dxdJ/OO+SxIXTHxE4tyWWRJXzVZb+95+5TZl+kTJGbo+KLG1a7bXyMDAgM5VUCDx5Mlq42zhHDlyRH4sKtI1Wwto+7zh299b6st2+54XRjyo8bJozp+nluBFD8yWeTvr1V57xMVkeYLr3oDX28w+GEH+KDBeBDhL8SLJOBCAAAQgAAEIQCCaBBCAo1kXVgUBCEAAAhCAQBYRQAD2io0AHP1DjwAce40QgD2GCMAehwIE4NgvqgwdAQE4Qws7wrYQgLOz7uwaAhCAAAQgAAEIJIIAAnAiqDImBCAAAQhAAAIQCEEAAdiDhQAc4tCkKBUBOHbwCMAeQwRgjwMCcOzXVKaOgACcqZW9+b4QgLOz7uwaAhCAAAQgAAEIJIIAAnAiqDImBCAAAQhAAAIQGCWBsB/8bdmyRWbaunWrxNYS2doyu3Ksna9r6XauF198UdI2bdokscsC2jWmy3o6yF6C2FZjUzzKg2i6bdiwQX6yFtz2jGGpHTvnwuVqL1y4eroM6LLMLS9XK2NrBZyTozbI1gLaWgeXlZXJ+JcuqfXxPx1slPZPHr5X4nNfU7vj00/p+AOn1TJ6cL1aLp976VFfIEHsnfd+U+2arQW0i/BA/xflVzXduRIv6z8qcW6N2ia/XKIW1v1H1JK6/Hbd14Ur+6Xv8dx9Ov7gMonbT7dLnF+YJ/G026boUvNuSGxtn69fv+67HWvj3NzcLDlXr16V2Fp8uyyj+/r6JP9DG+6ReMdx3VfeHGViFxPWohmr59ivfdcIrj+44bU3ccyjMLK9D4zXelyPyeC9O16EGQcCEIAABCAAAQhEkwACcDTrwqogAAEIQAACEMhSAgjAXuERgKNzASAAJ6cWCMAeZwRgjwMCcHKuuyjPggAc5eokbm0IwIljy8gQgAAEIAABCEAg2wggAGdbxdkvBCAAAQhAAAKRJoAA7JUHATg6xxQBODm1QAD2OCMAexwQgJNz3UV5FgTgKFcncWtDAE4cW0aGAAQgAAEIQAAC2UYAATjbKs5+IQABCEAAAhCINAHXM/9c9n2uzbgsna2Ns7VQduXbeW2OHceuIYils6uvFX3tmBs3bpQfa2trJQ6y/ltu+dntLv9iIeD6owSsI2OhevO+5ZsXS0LB4mkS92x/XeMdLRKvWbNG4qamJokXLVKL5qGhIR2zoEDisWPHSmzthYtfVvvivz+h1sHLf1utpy88p5bIe3sHZJxJp5+TuGr2DIlr7qiS+EL3BYnPtndLPOPjus7B/WpVve/sU5JjraTtep5tuFNyZt6r67G07zylY85YoHO15b4kaVaEvj5XLaPtOGNvvVV+vPfjvyTxvj9RC+vxRWoNXTGrRHL6+/slPnfunHKbNGnEQ2Vtoru6uiS/o6NDYmsJbgdsq9V5rQX01WNq391jzpXta8+kzS+ue5eknbj/6RHXT8LoCNg/xLHvg/X19aMbkF5pQSDIHwUGuT903eNxj5QWx4BFQgACEIAABCAAgVETQAAeNTo6QgACEIAABCAAgfgTQAAezhQBOP7nLMyICMBhaMUnFwHY44gAPPw8IQDH5xpLt1EQgNOtYvFZLwJwfDgyCgQgAAEIQAACEMhWAgjA2Vp59g0BCEAAAhCAQCQJIAAjAEftYCIAJ78iCMAIwK5ThwCc/OsxCjMiAEehCslfAwJw8pkzIwQgAAEIQAACEMgkAgjAmVRN9gIBCEAAAhCAQEYRsM//sxuzVn5BrP/271f7Vmub7ILlsgp05c+aNUt+dfLkSYnt2rZt2ybtu3fvljjst3vnz58vff/wD/9QYrtmLA3jexnYP0qw5wcL6PhytqPlz1O74CuvqT1y7syJkjZ46qLExevVGr345evSPnnyZInPnz8vcU1NjcR5eWpTbO2gbZx3R4/kW3vkz6z8gLTvfLlQ4rMDate8+t5PSfvzp78psbVxDktyyNgyu8Yp+txKGfbU82p5vbxI4+ZDj0tO9d1qDX3i5bPSbi2mdz2tNtGr71sqOVf3l0pcuExZ7fuW2jLfeY/aZV+6/qbknzlzRuLr17V2EyZM8MVy5MgRaX/3u98tsRWG7fODC4zdd0+Pru3a/PHSt2yTWoW7bJyrn7xP8m2O/WOFznq1Hw9bU/JvTsB1P8DrcOadnCDPfra7tvd4rkdpuB7/wfnJvPPDjiAAAQhAAAIQgIAlgADMeYAABCAAAQhAAAIRJYAA7BXGirsIwMk/rAjAyWeOAHxz5gjAHh8E4ORfm6maEQE4VeSTPy8CcPKZMyMEIAABCEAAAhDIVAIIwJlaWfYFAQhAAAIQgEDaE0AARgCOwiFGAE5+FRCAEYD5BnDyr7soz4gAHOXqxHdtCMDx5cloEIAABCAAAQhAIJsJIABnc/XZOwQgAAEIQAACkSZgn/0Wy0KtzXJdXZ0MFdbq2Vo6b9++XcaprVX72SAW03Yv1rrwxRdflF9t2rTJd8s2v6WlRXIaGxtjQUTfXyDgeu6gy04cG8nYj1DubWrvnDtL4/697b6DW5G46IHZvjkVzwxJu7UItrbDU6dOlRwbW2votrY2yVnYpLbSU//LHdKeU6bWyocGn5f2Q+fmSJy7o0hiaxNtv9FrN1IztFx+nPFx3Yu1ob7345pzpaZV8k8/laND3fCvT2vOXvnFsrKPS1xZo0xe3X3Ut7Ndz4vWGnqtWkP/cMdC6XvP5HESFxYNSHx+8HWJh4Z0j9auOT8/37eOXV1d0t7RoXbT1vbZLt5agtv8/pqxkmbPm7UW79mhr7d2TJtz6Sed8qvBN9WiPPargxHsM4AtDd77MuNs2Pdcl12z3anrUSCu+zo7prWJtvd1vI9nxlliFxCAAAQgAAEIQMASQADmPEAAAhCAAAQgAIGIEkAAHl4YBODkHFYE4ORwtrMgAA9njgDsMUEATv71GLUZEYCjVpH4rgcBOL48GQ0CEIAABCAAAQhAwCOAAMxJgAAEIAABCEAAAhElgAA8vDAIwMk5rAjAyeFsZ0EAHs4cAdhjggCc/OsxajMiAEetIvFdDwJwfHkyGgQgAAEIQAACEICARwABmJMAAQhAAAIQgAAE0oCA68NBa+UXZBvW7s9lIWjHicVm0NpBW8vohoYG36Vai0Jr72xtq21H7AqDVHx0OfPnz5eOn/jEJyS2dTl06JC0Hz58eHQTZXmvwuWVQsBl9RwEUfWT90naQNNbvl2u/qnaI1t7Z2sNXV5eLn1nzZrlO85bb+n4059Ty+Ixb//sv5bevxufrZL4e7vUXnjd3EJp3/X89yVe/ts67+D+MmnPXXJWYmv7vGSlWivv390sOdZKevV9asW8y1g05xzVtdkN2jVUDWjfwRuDkrbjfz8rcVXNDInbWk/rGt6tdtn3VnxV2p8+rpbIt956XdqnVT4p8ey8RRL39vZKbC27586d61uX5mblcPXqVclZvHixxNYy2g7S19cnP/YsvlXjRn/bZ98F/EJj+Wadt7O+KUgXcm5CwD6L3abV19fDLU0JuJ7rHOTxHPZezm4/rAW0ve/iLKXpQWLZEIAABCAAAQhA4CYEEIA5HhCAAAQgAAEIQCANCCAADy8SAnDiDi4CcOLY2pERgD0aCMAeBwTg5Fx36TgLAnA6Vu3ma0YAzryasiMIQAACEIAABCAQNQIIwFGrCOuBAAQgAAEIQAACPgQQgIdDQQBO3KWCAJw4tnZkBGCPBgKwxwEBODnXXTrOggCcjlW7+ZoRgDOvpuwIAhCAAAQgAAEIRI0AAnDUKsJ6IAABCEAAAhCAgA+BsM9ktTaA1uLPZRlt7QTtc3Ztvh3H2ju7nstrt+Gyfd64caOkWatnl43hLbeozSwHJb4EXAKDncVaQNt2WzuE+eB1iZdNrh3n6jG1Ds6bUySLqdx1ReK3L+VIfOHCBYmLijR/+vTp0t7d3S1xVZVaKNu+8/K1vbXmFcnPeWW5xE8d65d40unnJLYCcH5rjbQ/d/R7vjDts4HHqMP0mNaxeyXf5rTmaLu1gLaW0S5raJvz4OovyfjthbpHazFtracvPLdM8mfOVWvlv9uvzBfmqX36e2pvl/wTA2ckvnTpksTWGjo3N3fEw9bR0SE5FRUVEttrubBQrbkLCgp0DSdOjDi+KyFef9ww6gVEvOOKFSt8V7hnzx7fdisW2vdcl20vgnE0D4C9l7MrDPJ4Dtd9kauv697PlW/Xw71WNM8Pq4IABCAAAQhAAAJhCSAAhyVGPgQgAAEIQAACEEgBAQRgDzofSibu8CEAJ46ta2QEYI8MArDHAQE4+ddgqmZEAE4V+dTOiwCcWv7MDgEIQAACEIAABLKNAAJwtlWc/UIAAhCAAAQgkJYEEIC9siEAJ+74IgAnjq1rZARgjwwCsMcBATj512CqZkQAThX51M6LAJxa/swOAQhAAAIQgAAEso0AAnC2VZz9QgACEIAABCCQ9gRcz43bvn277M1aLlu7P9fmXbbPNt9lAW1tCV3WgitXrpShdu/eLbEr31pDNzY2pn3N0mEDQT6Y/o3f+A3ZysyZMyX+2te+JjEW0MGrnT+vRJIrH1a74BP3Px18kDFjxlQ/eZ/kn92m1sSFq9XG+euL1knOps3/U+J3582S+PTp0xLPnj1bYmsNbS2gDx48KDnV1dUS/7D57yQeuPhFPSefnSrxtx+vl9jaNc/4+JC0D+4vk3j/7maJg1g3V82ZIfnWGtqCrbmh9tRtx3TvLvhWqC44rft99tXHfLsM9OveZ35oQHLuO64W3G++76i05+Ro+77vnJX29/yS2mKfPavt48ePl5w33nhDedZofnOzcrMW0NYa2to+241MnjxZfjxw4MCIZ7J4fa1vTs+OlhH7ZluC/YMba8d96NAhQXH4sNqDb9iwwReR6/3Rvp7b926XZXS28U/mfoM869d1n+ayfbbrD2If7dqv63EhnJNknhDmggAEIAABCEAAAokjgACcOLaMDAEIQAACEIAABBJCAAE4IVizflAE4OQfAQRgjzkCsMcBATj512CqZkQAThX55M+LAJx85swIAQhAAAIQgAAEIOARQADmJEAAAhCAAAQgAIE0I4AAnGYFS5PlIgAnv1AIwB5zBGCPAwJw8q/BVM2IAJwq8smfFwE4+cyZEQIQgAAEIAABCEDAI4AAzEmAwM8J2P+YuWwwXdaXNn/JkiXC1LZba6+6ujrJCWuTaNcZxHLTVWBrrdne3i5pmzZt8u3iWqfrmZRh12bZbt26VdZgLa2stall6LI8jcXuzPUhuIXjsupyrdN1TuyYYc8DFzAEIJCdBFyvUa7XUtdrVxBrQWvdvGrVKhnKvt/Z8V2vdS6bQdc4vB4m52xbEcLWwlo933PPPbIY1/uvXW1trdrAYiMZvI6Fyysledz0CdrxbQ2vtV+SH6y9s53l6rFe+dHm/+RHj0r7f/7AVyT+/H9Ta9k/+NKfSntxcbHEJSVqVW2fw20tgnt7dV77GnXHfrURfvFXK2TMmS+rHXTzocel3dos7/1mp7QHsX22OS7yq+9bKr+a2rlQ4ie+t9N3LitO1yyokpznjn5P4jmFev/f/5qO31oyKDlfqtY4d2ahtJ//7hGJTanHXPrdK9I+sXCSxG/uUotsy9zaQZ8/f17yS0tLJW5qapLYWnm3tbX51t0ytLXu+z21FreW41de71GGXZeDH/4sz3S9Dtv3QZeIaHOCjJPlqJO2/SB/UGUX4/q/syvHtgexgA5yv+eCY1/zkwaQiSAAAQhAAAIQgAAE4kIAATguGBkkEwggAHtVRAD2OCAAZ8JVzR4gkLkEEIAzt7bJ3hkCcLKJu+dDAPbYIAB7HBCAo3NtJnolQYRbBOBEVyG+4yMAx5cno0EAAhCAAAQgAAEIjI4AAvDouNErAwkgAHtFRQD2OCAAZ+BFzpYgkEEEEIAzqJgp3goCcIoLYKZHAPZgIAB7HBCAo3NtJnolCMCJJpz88RGAk8+cGSEAAQhAAAIQgAAEhhNAAOZUQODnBKwA7LIUdsFyWQG78u34jY2NoWoQ5D+TLounsOu0Np4uC8flI4MSGgAAIABJREFUy5fL+r/2ta+F2ktYO1A7uMum22WBFda6ymW17bIBt2sLyz8I51BgSYYABLKKQJBny7leu1yvV0Fe64JA/sY3vhHqPQLb5yBU45sTRHhw3XvY91Z7Drdt2yaL3LNnT3wXnMGjFa9X6+zLh9TCt+iB2bLrqy1qs5xXW+RLo2DxNGkfaHpL4s56tf89ePV5ad/1zE8k/oNXnpJ44X61gO7u7pb2wkK1L542TeeyVsN9fX2Sb8/J93+sVsaT3nxOclz2zlU1M3z32JqzV9prbui9aNux09JeNUf7to7VfDtgzlG1dLbttm9Zudpf79/dPOKal3xknuQ8f2imxMuLCiSee0XXOeaGzny1VS2Un5j/I/nFuBPVEucWjJN4+hw9A7feequ028e7XLhwQdorKtSC23Up2drZnJqaGvmxtbVV4tNDXRJPWFoucc+Olgy+WuO7Nfsaax/TY+307YzWrt++j9u+sTxyKL67y57RXP9/DEvA9f/ZWB7zEdYmOpZHKYXdL/kQgAAEIAABCEAAAokjgACcOLaMnGYEEICHFyyIMIkAPJwbAnCaXfwsFwJpTgABOM0LmOLlIwCnuABmegRgD4YVZRGAPSYIwNG5ThOxEgTgRFBN/pgIwMlnzowQgAAEIAABCEAAAjcngADMCYHAzwkgAA8/CgjAHpOw31RGAOZlBQIQSCYBBOBk0s68uRCAo1NTBGCvFgjAHge+ARydazPRK0EATjTh5IyPAJwczswCAQhAAAIQgAAEIBCcAAJwcFZkZikB+x9ya53ksqncsGGDkGpoaJDYZb8c1u4yyLNprf2Xy2J6xYoVsrbdu3ePWN2wFsquAe28q1atkrRHH31U4pMnT0rssiENy23EDf5Cgus/8LaOQQTyIMKMnTpenMPul3wIQCB9CQR5NIDdnf0jFddrms3funXriHBctoRBxnc9YmDESUkYNQH73mTfy1pa1LLV3j+43rtt7Vzvd3aRiX7vHjWQFHasfvI+mf30b7wo8eCbF0OtyiUej18wRcb5/Y2fldhaPd/5+gRpP/YZtXd+8iNfkfYPzfqMxLfddpvERUVqQWytocvKyiTn8uXLEtvXqyu3tUn7C0+rDXWQjS8rWydp+86qbbUVj+2zhPNb1b74+SfUDtplE736vqUy/t5vdkq8ZOXCEee166++Wzm82rlIflXTnStx14Cu/23beaz+sPb6HPkhp1br9c/dR6T9Xe+dpWfptFpMnzt3Ttrnz58vsbVxttNOnjx5xBJ0dHRITn9/v8TjPqoW03nGntraj484eJYn2D/Ksa/J9v+V9j3XhYv31uQcpCCPDQpyHxXWotnuztU3EQT4v2oiqDImBCAAAQhAAAIQSBwBBODEsWXkDCGAAOwVMl7/2UMA9ni6viUcL84ZcvmxDQhAIAABBOAAkEh5BwEE4OgcCARgrxYIwB4HBODoXJupWgkCcKrIj25eBODRcaMXBCAAAQhAAAIQgEByCCAAJ4czs6QxAQRgr3jxEiYRgD2eCMBp/KLA0iEQMQIIwBErSBosBwE4OkVCAPZqgQDscUAAjs61maqVIACnivzo5kUAHh03ekEAAhCAAAQgAAEIJIcAAnByODNLGhOw/wm39k0uQdR+EO+yxLQ4wgqrQT4UCGJVHcRK2q4/XjZiLkHdMgnyDN1E20i66u46yq46BrHEtGMmel9pfCmydAhAIAAB12u7fTRAbW2tjLRkyZIAo46c8o1vfEOS9uzZ49shyHvTyDOREQ8C9o+xNm3aJEOGfbyF673Pvofa9cbrXiIeDKIyRuHySllK/972US/LWkBfa7/kO07divdL+5O3HpO48oUrEre/P1/iry9Sm2VrGd3/LbUddr2GWBvhoaEh3/XY87Ov7VnJ+chctZu+UtMq7buefklia/U8NFetpG37us+skfzHX/4L3zXUDC2X9rZWtU229tGnn8qRnBnr/PdibaKrZs+Q/OarCyT+wn3q6Xx0r3KuulMtlK+8ul/yiwbU9nn8QrXy7n3iuOT8MFfjlQVV0t658LqeK2PRfOyY1n3WLLWMtnBKS0vlx66uLl9u1gK6okJtn/v6+iT/9DXtG9bSfNQXQgZ0DPL4GPue7rKG5vU2cYch7P/37f3P9u3bZWF1dXUSu9pd/y+2Z8CO43rMh2scSymIDTX/V03cuWJkCEAAAhCAAAQgkAgCCMCJoMqYGUUAAdgrZ7w+REAAvvnlwX+qM+rlg81AIOkEEICTjjwtJ0QAjk7ZEIC9WiAAexwQgKNzbaZqJQjAqSIffF4E4OCsyIQABCAAAQhAAAIQSC0BBODU8mf2NCCAAOwVCQH45oeVbwCnwcXMEiGQBQQQgLOgyHHYIgJwHCDGaQgEYA8kArDHAQE4ThdWGg+DABz94iEAR79GrBACEIAABCAAAQhAwCOAAMxJgMAIBMIKwK7hXP+ZD/uNT9dzhsJaSbvWGfaZx/E6QK7/SMdLeA67zkRziNe5Crsv8iEAgcwmYF9brDXr/v1qK2oJ2JxY7AddFpR2/LDvd5ldqeTvzvXcX7sS13vuhg0bJO3gwYMSv/baa74bCfJMxFS9vyef/M1ntM8APnH/06NeXvnmxb59rx7rlfbb29V2uHeT2v/+1vX3Sc5/b3hU4uK6d0l8y0Na9zNjLkp75ZUiiXNzcyWePn26xNZS2C5ywoQJ8uO1a9ckPvbyKYlnfFytjAf3qzXx2c5uHerGyNjKKkskaf/uZomtfXTNDbWDbh27d8RBrd20K7nocyuVzw5lteYLagf9vf/1hOR8ZuUHfIfq36X21Od/R/kXfXOi5BeuKJf4Bwf/VeLaRTMlfvPNN7V2lWo/bq2eXRbQ1va5oKBAxhkYGJC439hNl5WVSfuJEydG5EnCcAL2tdc+vsE+lsj2itf/B6nFcAJB3tdsXVx2ynZkm2Pv08KOE6RerrmCPArEtTbOWxDy5EAAAhCAAAQgAIHUEkAATi1/Zk8DAvES6hCAb15sBGCPD/+RToMXBZYIgQgTQACOcHFSvDQE4BQXwDE9ArAHBgHY44AAHM3rNFWrQgBOFfnh8yIAe0ysOM3/W6NzPlkJBCAAAQhAAAIQcBFAAOZsQGAEAgjAHqBEf3MLAdjjzH+keUmCAARiIYAAHAu9zO6LABzN+iIAe3VBAPY4IABH8zpN1aoQgFNFfvi8CMAeEwTg6JxJVgIBCEAAAhCAAASCEEAADkKJnKwm4PrANKx1YbwshRMtlMZL8A57aBJtbR12PYnmEK/zEHZf5EMAAtlDwL7ObNy4UTZubSRdFtCunLVr1/oCtOPX1dVJTqL/eCh7qhn7TmN5X7PPDK40trGNjY0jLsx1DoP0HXHwDEuwYnDP9tdldz07Wnx3GsT2+dJLndL3/2fv3eOrOs97TxlkIYSMLlwsyRjLsoSxwYpNjOp4ANPEZlLbxbGbY9SqSU5mcnraTKdtzgk+41OYT86xMm5D2qYzaZszn/OZNE5wwT11bnaa4Fy41U4hBVfGxEbiYgySEKALCAFCwHyc5T7P4+79Su/ae+2tvfb+6q9Hr5739n3fddnrp/1bn2xbLfFzB9UW/vFbWqT821MPSDy89bjEbct/WeKX7hnSsT2r45y2Ta2Jrf1vdbXaL5eWqg311KlTpZ2KigqJ33rrLYlnTVcb4b7uASk/0qWWyC0rmqV8ZvVMiTu2aL+jj6sV9rJhtUret/dlZfvOJ+N3f2z7yz6r+ce+VSw58z4yJvHOLyrn+sZ5Ut5VrFbSdUd/L+k63tuqFsolW89IzmiXjtlWPPWE5tTvul3+dHaH2jt/d/F2Kb//8HKJDy86J/Hly2qvbZlba+4zZ7Qvl71zY2OjtLl7926Jq6qqks4XO+ikWJIWuj6Hul7xEPbzqf9ICjPT9fnU0lixQm3e165dK3+y90vWftlF0uavX79e0uxau9qMyj7a9utjQ80/LhfmccGsIQABCEAAAhCIFwEE4HitF6OdBAIIwAH0TH/AQwAOOCOWTMJBTpcQyFMCCMB5urApTgsBOEVwWayGABzARgAOOCAAZ/Hgy9GuEIAnd2EQgAP+rvcZZ/r5wOSuPr1DAAIQgAAEIACB/CCAAJwf68gsMkgAATiAm+kPeAjAAWcE4AwezDQNgQIjgABcYAs+wXQRgHN/PyAAB2uEABxwQADO/WM20yNEAM404fHbRwAO+CAAT+4+pHcIQAACEIAABCCQDgEE4HToUbcgCERluRxW4HRZBPtYP/ksjLV1svn2A561k8q0pZidrx3PZAnPLjtTF1sf6y1XTjbn67M3yIEABPKDgL3uuGbkuqZs3LhRqmzatClpdZelIf/Ikh/7x87Cise2PNP3BvlH0n9GxbOnS/LYqfMSW9vn3nZjt/t4k+RUtd0qsbWS3v71v5LyT3zwMxJ/8j8+LvHn93xH4sHnD0q8cpHaLN/UeIOUd7z+TYmX/VqZxF//T2qVPHv2bCm39sK2/MqVK5JTXKx1a2rUfvm1V9QK+8gBtYC2lssj3UuSQr79nhIp3//TUYlvv1fLf3jsi1LeeGWZtqNDK3JZQ9tOt77wU53LG/US1y9Qa+iZJWq7vWfsTyXn3voHJV4wonP/xvYf635YeETiB4vvlLjstTkS//Otumfqf+2qlP/0Rx0SL617QOJTp04lja2V9+nTpyWnp6cnKefmZt0nW7dulZxFixZJPDSkFuLYQSfFmLTQ9T5gzsP+DH0yXZ9JXSKoT7nP50Q7NtfrNnzGb3PCWk+75uLq1+Zz7xd2dciHAAQgAAEIQAAC2SGAAJwdzvQSYwIIwMHiZfrhAgJwwDnTgneMD0WGDgEIhCSAABwSGOlOAgjA2d8cCMABcwTggAMCcPaPwVzrEQE4OyuCABxw9hGhEYCzsyfpBQIQgAAEIAABCKRDAAE4HXrULQgCCMDBMiMAj7/dff6zm28AF8Qpg0lCIGcIIADnzFLEfiAIwNlfQgTggDkCcMABATj7x2Cu9YgAnJ0VQQAOOCMAZ2e/0QsEIAABCEAAAhDINAEE4EwTpv3YE4jqm6kuS2eXXZKr3/Xr1wtTa+PssniyH95cda3dscvqM9PfTA1rkR3VxnK9I7OtrU26cH0Atjw7O9WW0Mcu1WW7in1WVCtLOxCAgCXgEvBcrwNwnd/suXHDhg3SxY4dOwCexwSWL1+edHase+YWvXxZnTR+bd0Mia2986FHXpBy+/7gvg17pLx8pdo1W0vnTzzyK5Lz0j1qyfvtD/+BlK/42O9I/EtXtZ0N31gn5c9sapX44F61Vv7lFWul/M8++1WJh4eHJa6trZW4srJSYms7PHXqVOVw7bUSX5x/WOIXNr3PLMQ7H2+Dn4+/dUjikeY+ics65ko8uEoti1+dpzmDf7096eKOGfvle+eulpy+3n6Ju6bsTFq3cUxtpbuKNcfaTXeMLJa6H112RuIDu49qmzrFogWlynPLvkHJ+ciVBRI/v+iHEj8+9lGJ+2fpvevADLXpvnTpkuScP69W0tOnqy35lClTJOfkyZMSW3vnkZGRpGttcywo7KCTbhspdH1m2bx58/gV+euEBFyf0+3rMJqa1Ga/pUUt3MMKpa7PgOmU2wmGtXF2wQn7zIHPsBNuMxIKhIDr3e0+z+58EIU91lznN/vlBHtOs+V2PK4c1/nQ9fzQfiZ1fQ5dsWKFdL12rd5P+nzpIiwfu172s63t13Jwnatda2fz7XNX17XbtV62fXttcj23jOrd7VH9E3DY5+quL2K59qSLs+Vjubn4u+brWl+fZymuY9+OOdPP233OLeTkNwEE4PxeX2YXAYGwFypXlwjA4y8GAnDAJ+wNawRbnCYgAIECIIAAXACLnMEpIgBnEK6jaQTgAAwCcMABATj7x2Cu9YgAnLkVQQBOZIsAnLn9Rsv5TQABOFhfBOCAAwJwwCHsc3UE4Pw+TzK77BNAAM4+c3qMGYGwFyrX9BCAx194BOCADwJwzE4QDBcCMSGAAByThcrRYSIAZ39hEIAD5gjAAQcE4Owfg7nWIwJw5lYEATiRLQJw5vYbLec3AQTgYH0RgAMOCMABh7DP1RGA8/s8yeyyTwABOPvM6TFmBFzvUAwr1IW94LkwRfVOYlf7Uc037DJHxSdsvz6crX1K2HXPNc5R8aEdCEAgXgR87LZcrxLwmam15Mr0O+N9xkNOtAR8HmZhXZU+c5foO/CcWvXaXqoeV0vSS93n5E/W9rn/a29IefUnFkp85xtqK/2PU49L+X9d83GJP7/nOxI/clkthRcv1XZ+sl2t4OdM/9WkEHZv75Dy7oNqFzxz5kwpLy0tlbiqqkriOXPmSNzT05M0Z+ub86X84aZyiSu2vCbxtEZts+wOtTsuXVQtOV945pTEM499X+L7P6LWzd9/4xtSXvxGvcQtK+6UeNf2VyVe9tkaiY99q1jiuXXar4V2ob9Rfu09NCbxqk+p5fKBV9Xa+vbqeZKzv79b4vruEomfLX5O4o/+/AGJZ9xn7MFf0T1w5kFl2NvbK/nW9vn4cc132XrbtbNz7Orqkl8HBgYkXrp0qcRbtmxJupcKrdB17rWWm1F9Nik0tq77Ip97IZcFqMtS1ccm2gquPhbTdpxh7UDtWvuMLaytNPcDhXY0MV9LwJ5b7LHsspT3sYdN53mU64sWdsyu857rnGbnYl9/Zs9jrs+DrueNrvOSHZu1aL7vvvv0HszY8oe9JrqeQ7r4+FhAu17D53Pt9rnu+xxxrutCWD6ua2XY83zY58yuf153XR/t3rN8XNblPvvTxdBlk25fC2hfG+E6xnmdls9OJicqAgjAUZGknbwlEPZC5QIRlcCJAJydrRb2G9thRxXVvgrbL/kQgEBhEkAALsx1j2rWCMBRkRy/HQTggA8CcMABATg7x10u9+LzIDjsw9xcnm82x4YAHNBGAM7mrqOvQiCAABysso/A5toPLpEVAdj/CEIADlghAPvvGTLzmwACcH6vL7OLgEBUQh0C8PiLERWfCJb8F00gAEdFknYgAIFcIIAAnAurEN8xIABnZ+0QgAPOCMABBwTg7Bx3udwLAnDmVgcBOGCLAJy5PUbLhUkAAThYdwTggIPL3cH1z1s+132fIwsBOKCEAOyzW8gpBAIIwIWwyswxLQJRvZs2KiF5zZo1SeezefPmtOb5L5Un6/1SUXGOBMK/EoB9rGzC9uuyNME6NSxJ8iEAAR8CLvcIa0lk2/GxQHTZH3Ee81mR+ObY69e2bdtkIjt27IjvpLI8civ0zl27RHo/9MgLE47E2j4XvfNJ7t2faU2VEg8+f1Di6YtnSXx+32mJb69W+9+5tZrz6q1qJW1tn+3ArAW0LX/xb34kv/Z1a1+f/I+PS/mLz2rOiYNDUm7tgq9cuSLlY2Nqg1xcrBbKViTu7lbr44bRi1J3boWyNaiKLP/e9l2Sv/V/Ubvmyp1qs2zneKTrmPxq7Z23vvDTpGtnbaJd+Y1jajFt2z8z78PSZln5VyS+t/5BiXd9f7/EH7miNt3dK9VSu6SlT9v5vvIpKroq5TMvaN3L11yW8teq1OrZ2v3Ztejr0/ZLStR62rWZ7VpbO+jGRrW/7uhQ23BrQz3hAZJnCZl2fsozXBNOJ+yDdZeNp+veyfWg32WXagds77vSsZK2bbosMa1NpbVvdQF0vQ/YlR/WGnTChSMBAjEiENUXCaKy3nWhs+3bc4LruaJrXq72XQKn64sfrnNgpj9Xup5Duj4Lu+blek7b1tam92y79J7TNS8fPpZ5pl1AonqOHfb5p6tf17fDM80h7PHi2leu63Km93mMTqEMNUMEEIAzBJZm84dAVMJkVBdOBODs7K1MP3AJewOUnVnTCwQgkK8EEIDzdWWzPy8E4PSZIwAHDBGAAw4IwO9yQABOOLlk+vNI+mezeLWAABysFwJwvPYto40XAQTgYL0QgAMOCMABh7DPPxGA43XeY7S5TwABOPfXiBFOMgEE4GABovqGsWs5o+Ic1XbJ9AOXsDdAUc2LdiAAgcIkgABcmOueiVkjAKdPFQE4YIgAHHBAAH6XAwJwwskl059H0j+bxasFBOBgvRCA47VvGW28CCAAB+uFABxwQAAOOIR9/okAHK/zHqPNfQIIwLm/RoxwkgmEFSZ9Plha24qwFklhxxMW32S9i9d+s9laUYXlE3a+rnzXu1uishYJewMU1bxoBwIQKEwCPvZWLotClwWWtSi0doiTdd4uzJXN/qzt9bqpqUkGgHXV+GvR8O2HJWFk9wmJh7eqxe7wTrUytq3VrFuatHFb1yaUr1R757Kl18uf+jbskdhaT9vxvLT+acn58ue+mrTfk+e/q3M5rjbLNvmmRh3Dd77xkvzpfb90u8Q3NWnOS5tfkfKBgQGJZ8yYIXFFRYXEdXV1Es+bN09ia01c8g9npLy0bqbEl46pzXXJvHIp7+hXG+2dgyNSbu2XraXz2MIjknPv3NXK+Xi/xEcOqmW0K//lvu9IvhWDOy4slvLVC3ScR46q3fSCu+dLzpZNL0ts7aBHmtWi2a7RvDtXyK/9X/+5xFeNX3bp8lopPzFHmZw/f17Kz5xRzocOqXX21KlTk67dkSPKzVp52/UdGlJ7cLsfbJx0c+ZZob1222t0pv8xN58w2s9c9jrl8w5gl9Wk5ePzDl0fnvZey9WmKyfsfVpU4/Gxhuae0Ic2OflEwPU8MOx9cqb/ASjs8y7Xq+KswGnX0ecdtz42+5k+h0Q1L59riv3s7NoPLqth+5nLcg67r8Iea1Htw7D/GOESgF3X30zvk7D/AO26f7PPuu21O6rnzGHXl/zCIYAAXDhrzUxTJBBWcEUATg00AnDALdM3cKmtDrUgAIG4E0AAjvsK5s74EYBTWwsE4IAbAnDAwQrGCMABEwTgxHMLAnBq51tbCwE4oOF6b7GLsI8gjQCc/v6khfwjgAAcrCkCcMAh7LuNEYADbgjA+XduZEaTSwABeHL503sMCCAAB4uU6f+oQgAOOCMAx+CkwBAhEEMCCMAxXLQcHTICcGoLgwAccEMADjggAAcc+Abw+OcTBODUzre2FgJwQAMBOP29RAsQ8CGAABxQQgAOOCAABxz4BnDAgW8A+5xFyckEAQTgTFClzbwiENYaxZVvoaRjAZ1pi2b7YNfauWTakiLXHii7/uMsKg6ZXse8OgiZDAQgkDYB17XJZTNov9Xh6rylpUX+lM51Le3J0UBWCfAKg/Fxl95eLQnF1aUSu+yd7fuAbY61fb54YFDaOfsTtRQuvbVKyq3ts82/1K12x9feoHbKRVd1HrbNP/tv/1n+sG/3GxIvXrpQ4pUPfUDitb/ZLvFDv/6hpDlbX1R75xf/5keSY4ZQVG8so5/7yvckp76+XmJrNTxr1iwpLysrk/i6667T9q9qD7eWqlVy31u7JOemuz8o8YVO5bzlZ2q53D3//9Y1fUPHs+yzNVJ+7FvFEjcu1pzvv/GNpBvGWj0XTdGUIweSW0aPDP+2JN3foFbh9tvDv/vYOsnpbdc52gGUr1S77NHuYfnTqNljV83mKFmgtthT6pTzuXr1ie7rU4tpa9187pzuvcuXLyflMGfOHCk/efKkxLYd+81gax9dCHbQYR+Yjn92Kpy/+tzz+NgmW2Kue56oqNp/tnatu+3Lx57aNTZXXR87a9e3fsOKHFFxox0I5BoBl6Wwy7p/+fLlMoW1a9cmnU4mPme5LIvDfvHD9Y1V13yjshSOat3DPu8N22/Y9l37IarnkGHHH9Vz0bDPPy2H++67T4Y9WV+Yierzb1Q8w64j+RBAAGYPQGACAmEv2AjAqW0pBOCAW9gb7tRoUwsCECg0Aj4PQy0TBOBC2yH+843qA7B/j/HKRAAO1suKxAjAiXsYAThgggA8/vkNATi187/PPQ8CcMDWx+rZdX9ov1WMAJzaXqVW/hFAAA7WFAE44BD2eTICcMANATj/zo3MaHIJIABPLn96jwGBsBdsBODUFhUBOOCGAJza/qEWBCAwPgGfh6GuB3yulvkGcGHuOgTg8dcdATjggwAccOAbwAEHvgGc2vUCATg1bj73PAjAAVsE4NT2GLUg4CKAAByQQQAOOIR9nowAHHBDAOYcC4FoCSAAR8uT1mJMwOf9iD7TC2vHFNbKI9OWEZNlyZLpefmsnc3J9Hh4p1fYFSEfAhBIh4DL5su26XoYaq9rra2tUqW7W21It2/fLuX8I0s6K5X7de1e+uY3vykDfv3113N/8FkYoRWAL+zvn7DHqsebJGfguU6Jbfk0Y8M7vPW45LgsnV351ibaNbCbO3Qdf+PfPjnh+F020a7yr/7Jc8nbVEfhoq/96M8k54GbfjNpvrV9vnLliuTMnTs3aWzvbyv71bK4bI9aEFcsV3vkvzxcIu3M/9CIxEd/qDbIM499X8rv/8gyiX/4rZ1Jx1y/QNuft3pMcnZ+sVfilhXNEvd16/7puLBYysvKvyLxhxcqn/LndV4jvzFbcuYVa9z/jNp620HO/t/vlF/P/P0RiUvmqRV239BeLd+nbfZ8UD2sz549Kzmjo6MS9/bqHK2Ns30H8NKlSyW/o6Njwr1n98ChQ4cmzI9jQlQWnXGce9gxuz672XZcFsf23sa+AmnXLrVSt//0Zstd34L1eSbgeg6QjgW0T78uJi57Z5+18LmH5P7QhyQ5cSdghSufz0eu4911/gn7/NDFM6p3Fbueo7qOd/vFD/s+1Mk6P2T6+WdYzmGtkjN9vNj9XFdXJ925BH7XeMLOK6xwnmkOdjzbtm2T7nbs2BGqa54Dh8JFcoQEEIAjhElT8SaAABysX6ZvgHxuQG1OVDe4YXcnAnBYYuRDAAK5TAABOJdXJ15jQwAef70QgAM+CMCJ+wQBOGCCAOx/zkcA9meFABywQgD23zNkQiATBBCAA6oIwAEHBOCAAwJw4n7YuHGjnILCCuqZOHcqSk+jAAAgAElEQVTRZn4TQADO7/VldiEIIAAnXpjtfwG3t7eHoBk+NdOCa9gRZXo8/OdX2BUhHwIQSIcAAnA69KhrCSAAj78fEIADPgjAifsEAThgggDsf01BAPZnhQAcsEIA9t8zZEIgEwQQgAOqCMABBwTggAMCcOJ+QADOxBmYNl0EEIDZGxB4l4BLkLM2UPYEbe1KLERrf+SybbEfzMJandgHAZ2dahUY1X8MhbVwiWoD5do7BcPeqIXlkGvzDTt+8iEAgXgR8LnGua5ZdqY2x16DmprUxjbT/zAUL/L5N1oEifHX1GXp7KpVs05tb23OxQODSatc6j4n5dfWzUiac/Ynx6S8eM50iSsfu0XLn3tV4pYHNcc2eMtdaoP88dZN8qetL74isetdv9bq+Ws/Vkvntb+p/1B4U+MN0s7ipQsltuJxx+tqM37h7VslZ2hoSGJr//vAAw9I+alTpyS21tA1NTVSfqlzv8RTL12V+JrL6km9a6naLx99SZk/2KoMj32nWOp2TUluAd14RW2ijxzQNRpbqJbLxW/USzu2fOXD90j5sW9pX9Ya+tMNarnc0V8p+aXz1Pa57ntqPV1irMVHzX4baVYrabsfKi4skF9Hu3R/zvqs2ke/9dZbkmPtoI8fV+tyWz42puOpqKiQuj09PRLX1tYmXfeREbXmtjl796pV9fhHa7z+ah+ehv38GK+Z+o827Lt+rbOU6zOv7d31flyf9+a6cnzWziVm+4i7Nsf+M7e1sHZZYfvMNx3768ly9vLfUWRCwJ9A2OPUPku0zxh9jmuf4y7s8eW6n/exgrc5lpg9z7jG4xLIfcjbc1TY+bqcDl02/nY8rvOq/Szss6Y+gl9YodSHm0+Oq1+Xvb9tc8OGDfKrtT23OXbP+DzHDvvswq6j7dfnmuvDJ6rnt5PluOkzR3LymwACcH6vL7MLQcDnAoMAHAJoyNSoLqghu3WmIwBHRZJ2IACBXCDgc41DAM6Flcr9MSAAj79GCMABHwTgxH2CABwwQQBO7TyPAJzIDQE4kQkCcGrHF7UgEJYAAnAiMQTggIlL1EcADvggAAccsum4Gfb8Rn7+EUAAzr81ZUYpEvB5OI4AnCJcj2oIwAEkvjnnsVlIgQAEQhPwucYhAIfGWpAVEIDHX3YE4IAPAnDiPkEADpggAKd26UAATuSGAJzIBAE4teOLWhAISwABOJEYAnDABAE4cW/wDeCACd8ADnumJT8qAgjAUZGkHQhAAAIQgAAEIJCjBMK+A9jnFQatra0yW/tahKislnIUZcEPy2cvFfIeCPsOYLuhqtaolfr5107Ln6bfMUviS8eNBfQNxgJa3Yvfs0enGZvfmztel7+d+F8/KPGdP9kusbV9nn/d70v5i3/zI4kf+vUPSWztmt/qVJvfDRvXSc4nPvgZiefW6VysBfTvfu6TkvPlz31V4pkLfyDxwb1qcfyTr02V8qVL1Ub75ZdflvJ7771X4qNHj0p8ww1qPW3j6T/T9mfePlvyf/BDtcKuaVD75Z2DakFs7aC3vvBTHcPc1RKXtKi18s4v9kr5ss+qJbWt63OymX3PxyVt/s90zEsaL0j5WL/Gw41TpLy864rEo93DEg+WHpC4rGOujt/sJWtRXrJgpg61rkzi03O1395ene+UKTqG11/XPXnHHXdI3a6uLomt1XNzc7OUnzx5UmJrGW252X59eOZCjuvhoB1bIf/DqI9NpY8Ianm6LJFdD6ztay9c1spRWZX62DKHtXT2sXj1sbm2DMOOs5DvE3LhPMMY0ifg+gKDtaK1n5Vc5w2fkfj8k25UlsguW+Mnn3xShvr0009L7Dr/+LwD2DJxWfi67KbDXgfttSPsuvh8Eci1jq6+XOOfrC/GWD4+538fG3Cfa6sPB3uddVmpu67pUV1rovoHaNc/joQ9fn3OG+RAwBJAAGY/QAACEIAABCAAgTwn4CPahX2HPQJwnm8ax/R89lJUH7bjSBgBOFg1BOCAw70IwL/ggADsfzZDAB6fFQJwwMfnAb0rBwHY/3gkEwIuAgjAARkE4PGPEQTgRD4+1scuhw8EYM7JEEiNAAJwatyoBQEIQAACEIAABGJDwEe0QwCOzXJO6kB99hICcLBEF/b3h1orvgEc4OIbwP7bhm8AB6z4BrD/nol7JgJwsIIIwHHfyYw/7gQQgIMVRAAefycjACfyQQBOZMI3gON+Rcj98SMA5/4aMUIIQAACEIAABCAQGQGXxZOrA/vB3vWt3xUrVkj1uro6iTdv3hzZuGko9wisWbNGBoUNeICiZp3aEdsVG96q9sjX1ql188BznZJWvkyPHZtjbZxtO+Ur1crYWvLafi91q2X0qrvV5vfxJyok7c9/W+2ma43F8S+vWCs51gLaWjfv3v7PkvO1H39JYiviWmvovl7ta+lytfO1FtBbX3xF2rHvEi5655Pruz/dK0slLntW27R2wbW1tZJz5MgRiefMmSPx/PnzJb5wQS2LF/frWhQXqe3zc9f+reRfKVLf7cbLy6R83uoxiV2WzsVv1Cc9oOsb52k7H9F2XJbR+04tkPyjP1T7Zdt4Y79aWNvyO1efkl/ndivPkvnlUt7/zBtJx1nSWKncDg5qO/9pSVKer732mpSfP39e4tJS7ddaOg8NDSXtt6JC960rx1a0+Xv37k3aZq4VYg+YuCI+9y3WItVlJepaa9c3Ym25j9WzbT/sw1yXsO2zP9MRg21d25eP5amrrmst0rHF9uFADgRygYDrm4thzwmuuUT1DlF7D9/W1ibduSz0rTV0Ovf8k2Vx7OJpr7n23BXWYtqnfZ9rRFRWw1EdC5bPhg0bpNkdO3aE6sJ1HXcdF8uXL5f2167VzyNRHUehBl9UVLRo0SKpsm/fPonD/tMz93hhyZMfFQEE4KhI0g4EIAABCEAAAhCIAQGfB6l2GgjAMVjUSRoiAnAieATggAkCcMABATjggADsf5Lm4WAiK5/7FgTggFvY9wEjAPsfm2RCwIcAAvD4lBCAAz4uIRMBOOCDAOxztiEHAv4EEID9WZEJAQhAAAIQgAAEYk/A50GqnSQCcOyXPGMTQABORIsAHDBBAA44IAAHHBCA/U/DCMCJrHzuWxCAA24IwP7HGpkQyAQBBODxqSIAB3wQgMfngACcibMTbRYyAQTgQl595g4BCEAAAhCAQMERcFldWctEl9WzC5bN7+7ulrSw9lAFtxgxn7AVgO1UCs36u/T2apn+9MWzJLb2zpaPy+r5/D61Mq587Bap8h776BvUPrrqN26VnP9rqVoxuyydX/1ltWofXfsDqXvjwmsl/v2v6Pj/+vd1DNb2efHShZK/b7daBNtya908t1bb3LBxndT9N8sfkvhz35or8XNfUPvfOdN/VcqtlbRtZ8XHfkdypm0/K3FZmVoiW2vo5ma1nrY2wtddd50yufFGid/cfVjig8VqT33lymUprz36e0mP5rK6PVI+z1g6j+7S+fb1mndFX9FmjnQdk1/GFqqF9cqH75HyA3/ZIvFjfzBT4ue/dEbi0cfVornlZx1S/j8GtZ07a3Scr/aqjfOnSnVsowe0nZHmPmX1gQ9KXDx7usSdP/iexDOb7tR1PKXzOnr0qJSfPq37365dY2Oj5FibaAvcWnwvXao27B0dOl+b39vbm3S9cqGQf6xJXAV732KtiZuamiTZ3sPYb7X62BGHFY9dlsthrSDtTF3Cv0vQtfdd1r7VzsXaVtu+bJuuufiUh+XmOr7S4ZYLxyxjgIAl4LJWjsq61p4r7LEc9jhyWUnbuficQ8L2m2vfcM200Bj2n7oybUkd9miNynLcWig//fTTMgwfIdzuw6iOo3Q42Otv2M+8mf4HkbDzIr9wCCAAF85aM1MIQAACEIAABCBQhADMJoiKAAJwQBIBOOCAAJx4ZCEAB0wQgP3PugjAiawQgBOZIAD7H1NkQiCbBBCAx6eNABzwcQmZCMABn1wTSq0QjgCczTMqfUVFAAE4KpK0AwEIQAACEIAABGJAAAE4BosUkyEiAAcLhQAccEAATjxwEYADJgjA/id1BOBEVgjAiUwQgP2PKTIhkE0CCMDj00YADvggAI/PAQE4m2ct+ioEAgjAhbDKzBECEIAABCAAAQi8S8D1Lj1rI7Z+/XrhZW0VrX3TY489JjnPPPOMxB/4wAckDmuLxCLFi4D9cN7Z2SmDt7ac7e3t8ZpUCqOtWqM2pAOblYNPU1WPa92qNrV07tuglry2nblr1Z7X5vzOvxuVtL+rVGtfm3NHtVr42jaX/ZpaJe/8uxH5U/OiRyV+q+u4xA/9+oeSTu2rf/qclFvbZ2sfbSvOXKg21Lb8/Q+ojfDvfKY0aV/W/nrBN4Y156qGB/aovXBFRYX8oaenR+LRUeXW0NAg5XV1dRJfe61aZFdsOS/lf1tzk8Q3n9Ixd1Vrm83T9kmOtYDe+UW1IK5fME9yjhxQe2Q7cWsB3Ti2TP400q37wVo9H/2hrmljf4nO12EHPbfatHO7Mi/Zf0HqDm/VsZWv1DGPdiv/krpyye8d2itx7cqVElur5zfffFPKu7q6JJ4xQ63OLYeBgQH5ddq0aRJfvHhRYmsBbdt02YBv2bIl6R7LZqHrH7NywfYwmxxcfbksNG3+hg0b5Ne1a9dKHJUFtLVEtv1GZUdp7818mLssmn3qWstW1z8chG3f3jfafetjNx3WQtZnjuRAYLIIRCVcuax37ecye9yFvd8Oa03sc372saR2vQPYnjfseTvsvMKue6YFadfnbte1w/UPBPYat337dplmps+frmtT2H7DcvB5XrFihb7aJtOvnQp7vLi+Mbxp06akWzQsz7D7nHwIIACzByAAAQhAAAIQgEABEfD5QIUAXEAbIo2pIgAH8BCAAw4IwAEHBOCAAwKw/8kVAXh8VgjAiXzCCrS2BQRg/2OTTAiEJYAAHBBzCVoIwAEfBODxOfg8r0AADnt2Ir+QCSAAF/LqM3cIQAACEIAABAqOgM8HKgTggtsWKU0YATjAhgAccEAADjggAAccEID9T6sIwOOzQgBO5IMA7H98kQmBbBJAAA5oIwAHHMJ+85VvAI/PzX7LHAE4m2c2+oo7AQTguK8g44cABCAAAQhAAAIhCLg+iG7cuFFa6e7ulvi+++6T2NqOuewQ7VCiskYMMT1SJ4mAfWBRaBbQ9h3AFv+F/f0TrkbDtx+WHGvXXL7yhqR1Lx5QG+fz+05LTuVjt0h877Da6r5crrbSX/q02g7/00tqZfzdvzgrdT/3rbkSL5r1VYm//DmNf/dzn0xabt8BbAe/b/cb8qu1fT64V62S97+iFr4nbpov+Td3qx3x/n61of7EI78iOa5+n/zTv5KcsZ/pWtx2221Sbu2gi4uLpfz666+XuLq6WuI5c+ZIfLhDz5Mj3XdJ+ehHhyR+60dqxVw24ytSXvxGvY5t4RGJrb2zyzLa2kHXHf09qVvToOOvrpki5d95Qy2aP370kJSXNFVKvLWnRuKVNbpPjizQugtGNMeur8sa+mqR+nGX/pLuq7Nndb+9/fbb0pQttzbRti+7XmVlxua6sVHSrO1z0oPoXxVaa+jeXp27T92ocsJaC0bVb1zacf2zkctK0WVHbO9z2traZPo+NsX2nicT9zY+FtCu+y47frum9uG4yzLU9X5lF1vXnnEJ0j73ij62sXHZq4wTAq5/6AlrZexqxxK2r18J+9odl0VtOu3YsbkEYJe19bZt26S6/ewZllvYHej6RnJU/Ya9voe9FmTiemQZhh2/i79r3V2cXetin0W0trZKd2H3bdh9EpaDzz+uZdPqPOx8yc8/AgjA+bemzAgCEIAABCAAAQg4CSAAszkyQQABOJEqAnDABAE44IAAHHBAAE48V4R9sJiJc3gut4kAHKwOAnAu71LGBoGAAAJwwAEBOHE/2GPEJdwiAAeUEIA5o0IgWgIIwNHypDUIQAACEIAABCCQ0wQQgHN6eWI7OATgxKVDAA6YIAAHHBCAAw4IwInnCgTg8S99CMABHwTg2N4iMfACIoAAHCw2AnDAIez1HQE44IYAXEAnTaaaFQIIwFnBTCcQgAAEIAABCEAgNwj4WIq1tLQkHay1KnLZQW/YsEHq7tixIzcmzSgyTiAqK7mMDzTDHVhL55HdJ6S33vbdEtucgY1q1zxtgVryWqvnqja1cbb5diq2rrV6fu4Lakds8x9/okJ+deX8lz9+XnK2vviKxFbQtXbQNufFv/mR5N/UmNzOevf2f5ac/QNqp7yh/TNJ+zrSpRbQ217vkBybb99DfLjuguRYPmXPqnW2ZXLokNoj33///fKnc+fOSTxr1iyJS0vVnvp41ykpHzn6PonL6nSOhw8cC7X7rNWztYyub5wn7dTPv0fi/r4rEu8cHJG4sb9E4pV1anG8tVstnVse1LnMHlPb58Hnu3TMn1Jr7pKtZ5LOpWReuZSrAXRRUfn/VCvlo6Nq/X1sl7bfdeWk5BzrOijx7NmzJbYW3Nbq2do419ZqX0NDuv8HBgaknUuXLkk8d67aU7v2Q6iFSyHZPui0NphcQwOYrn9cs6hdNsjpvCvXWklHZQfq2h5h55jOvHyEmRS2ccpVMm2vnfLAqAiBFAi4hCv72cp+VrL27LY7n2M8nXegZuJdxXb8PucZe461nyt9OLj+ISasJXJUHFxbxfVOX59vANs52s/gdi/5lNuxhb2WhRWwXRzC/mOEK9/uE9frHlxj8LFcttdi12sUfF55YO9JFi9eLEPat2+fxNm0sE7hVEaVPCOAAJxnC8p0IAABCEAAAhCAwHgEEIDZH5kggAAcUEUADjggAAccEIADDgjA4591EYDH5xNWHLWt+Ygort4RgDNxt5DYJgJwdjjTS3YIIAAHnBGAAw4IwAEHBOCAAwJwds7D9JJIAAGYXQEBCEAAAhCAAAQKiAACcAEtdhanigAcwEYADjggAAccEIADDgjA45+MEYDH54MAHPCx3yhKR9j2EWayePvwHmvrsN/ey+Y46QsCPgQQgANKPucZvgGcuKNc1zufb/q6vhlse+EbwAENFwe+AexzliMnjgQQgOO4aowZAhCAAAQgAAEIpEjA9W4ha0PU1tYmrbs+cNrufXJ4qJfigsWkmv3Hgo0bN8qoN2/eHJMZpD7MmnVLpbK1bra2w9YCunxZneSP9atNsR1B3dP3TjiggWeNfXST2kff3PG61P39r6hl8T+9dF7K3//AdIn//LeTWyI3L3pUchYvXTjheGzCyoc+IL8+s6k1ad2Pt26S8geeelLiP1yyWmJrN+0zgN071Bq6e6XaGpctvV6qWxvt+k61LLb2wh0d2s68eWq5bB9oVlSojfbMmTOl/cOvaF/zFqmt8Y8Pa/mDa9QaescX1Za5ZUWznnu36xhcdtAr7//ohFi+84ZaOv/e3VMkf0+X8qmeq+WVP9R+y1fq3Ie3qoV1yacbpZ2S/bqHbc5Ic5/k1D/8oMT2GtT97Z9Lee9tagN+9Oc65uKpUyXHWjrbiTc26njs2jU3K8+TJ3UtbF2XrXRfn45/eFjHMyHwFBIK+R3qPrjsnvGxfHTZQdv7nKampqRdW3tJl4DhM2afHJe1pq3rmotP+64c17yscOV6zYdLhPYZj09dm5Np/j5jJgcCYQn4nK/sffKmTXov5LI1tmNwvY4n7PESlbWvS7D0sTi287LnZxcTe35wXQvCft6MioNrn0TFx8cO2u4r+1neji0sH9dzg7D7LWw7Yd+FbI+Lzs5OmbJrL7k4+FyXXceg5exjE+1jSR32/EM+BJz3fu+8UgU8EIAABCAAAQhAAAKFQQABuDDWOduzRAAOiCMABxwQgAMOCMABBwTg8c/ICMDj8/ERVGwLCMDj80QAzvYdEv0VEgGf8xUCcOKOQAAOmLg+pyMAJ+4ZFxME4EI64zJXXwJ8A9iXFHkQgAAEIAABCEAgDwggAOfBIubgFBCAg0VBAA44IAAHHBCAAw4IwOOftBGAx+fjI6jYFhCAx+eJAJyDN1EMKW8I+JyvEIATlxsBOGCCADw+B7tzEIDz5rTJRLJAAAE4C5DpAgIQgAAEIAABCOQKAdc7gK3dnx2r6/1Mrg9dtm42rRRzhW+hjsPHMius7ViusbRWz4PPH5ThXdjfL3Hp7dUSVz52i8TWAtrHMtq2P/0OtXG+dPyctFm+8oakiD7WdFjK/58/viLxJx75FYmtpbPLZvmtzuOS/9BvfEhim/+7n/tk0jFsffEVKX/x2R9JfFOTjvnbUw9IuRXOb+5Wa+Kly9XC145nZ6/WtRysffT/ufkZaf/cK2qzPOOeGimvartV4orP6XztpHp6euTXRYsWSTw2NibxtGnTJB4ZGdF+l9ZL3LPtf2iz+9Vaefl/qFUOu+ZIvMtYQNvx1Ddq3SNdastsbaJXPnyPVNn6wk8l/rcf+g8Sj/5A675Rqm0uHNHy0a7BpOtrraH76tQCuuzZU5r/zpOGd39q/rBFYvtwc+gf3pbyCzPUmOxk8Rkp77pW+R//oa77jTfeKDkuG2dr023X0WUN7bKYHhgYkL5snBSOZ6HrWrxt2zZpYceOHZ6t5XeaZeWyEXZZX4Z9b25YW8t0yId916PtyyVyuyxkw1or+4gQrvG47g9d95kuhtlci3TWkboQgAAEIAABCEAglwkgAOfy6jA2CEAAAhCAAAQgEDEBBOCIgdLcLwggAAcbAQE44IAAHHA4hwD8Cw4IwIkXCgRg/4snAnAiKwRg//1DJgQgAAEIQAACEChkAgjAhbz6zB0CEIAABCAAgYIjgABccEuelQkjAAeYEYADDgjAAQcE4IADAnDiaRgB2P/ShACcyAoB2H//kAkBCEAAAhCAAAQKmQACcCGvPnOHAAQgAAEIQKCgCbgeqlooLiu/lha19LTWi7ZuW1ub/Bp3+9+C3ighJ+96/1l7e3vIliYnverxJunYWgQPbHxTygee65S4fFld0oEO7+xOWt7w7YelvG/DHm3HYel8sVNteKc1VUr+8Fa1LF5197CU33JXicR/vv6ixH/ypSckPnr2zyV+/wPTJf7r31fbajXkLSqqb1TrZmv7/IkPfUbqzq1Vq+qbTL61erZAypZerzyfVbZFpuNfuqr9/uM1Ol+7Lkc/pRbTs//9YmnT2krb/JHdJ5Kuix3PyL//2YSbb/Fi7evCBbVBnjp1qu6fqiqJ64YrJP6HvbqO3Tf8ha7d2DKJu4p3Slz8hlpJ19+ids1d12qOHfDsez6edPyDf71dyh9v0HP4G2Xa5s5BtbD+VKnam48e0H1oLaCHt6pldPeDxdJ+/YFyiatbFyQdz5UralF+/E+U+dVbdE8OL1SeB4+r9fq502qHPn265ls76JMnTybt11o9W5von//855J/2223SWzzrcV3b69ai0+4Yf5VQiG/Nz0dVj7v97X3Hj4W0JNlNeyyWbZ8fCydfe7Twt6DrVu3ToZh7/d81s61Rj517WtHbH5c7h985kgOBCAAAQhAAAIQyCYBBOBs0qYvCEAAAhCAAAQgkEMEEIBzaDHyaCgIwMFiIgAHHBCAAw4IwIknOQTggIn9J6rNmzfn0dUgmqn43Ku0trZKZwjAAQor3CIAR7MXaQUCEIAABCAAAQjEjQACcNxWjPFCAAIQgAAEIACBiAj4PFT1+WYJ3wCOaEHypBkE4GAhEYADDgjAAQcE4MQTHAJwwAQBePyLn8+9CgJwwHDXrl0CEwE4T26qmAYEIAABCEAAAhBIgwACcBrwqAoBCEAAAhCAAATiTMDnva0+9onWss9lFRj22ydx5lroY7fWkU899ZTgsP9MkMv7oeTG62TMo2+fTbqc1sbZZSnc2747aV1rGT137RLJsRbT0xaoRfDg82p7O/0OtVm2dtD3DquF8svltybt9w+XrJbyZ//66aQ5tQ1q4bv/ZbWPvu9DH02av3t7h5RbC+g7fnWflP9d5T0Suyyv7RxXLmqWfGv7XPTOJ9d3f86/dlri4upSHYPh6eqr/2tvSH7JTbrW5caC29pBF31mv46/r0/ia6+9VuKbb75ZYmsHbe2IZ86cKTm1cxt1LXaoffRH3qf2yxeadN23vvDTpPyXFP+HpOXWxnn+/dpm5c5Dkt9yRa3LR7vU3vmZ+Q2S8/Gjmm9tn0e71XK8SF2ci2w7JZ/WOVZXV094WhzeqVbSIz1q79w/V8dQcqPu7e5utVgfHtbx9PerbbW1gK6vVxttO5iwltGuiRw6pON05bje+2vzsbqdcKvkTYLLAtrH9tlCsPmue7Z0rrk+AnzYRXGNefny5dLUjh07JJ4sm+6w8yIfAhCAAAQgAAEI5BoBBOBcWxHGAwEIQAACEIAABLJEAAE4S6ALrBsE4GDBEYADDgjAAQcE4PFPhAjAAR8E4MK5YCIAB2ttRWsE4MLZ/8wUAhCAAAQgAIHsEEAAzg5neoEABCAAAQhAAAI5RwABOOeWJC8GhAAcLCMCcMABATjggAA8/ukNATjggwCcF5dBr0kgAAeYEIC9tgtJEIAABCAAAQhAICUCCMApYaMSBCAAAQhAAAIQiD8BH6HOPpizM3bZ99n38FmLzu3bt0t1rPziv3d8Z2D3mK2TyyKHtXc+9MgLMuyqNU1Jpz2wuTNpji23Fase13as1bO1HR54Vi2drdXz8Nbj0tS1dTMkvv7IUYkHV6mFsrVWvnL2kuR88jfVDvqtLm3zjofVuvlvPj8k+WdOX5b4/o+VS/xf/vh5idf+ZrvEO3sOSGxtrl122Y9cXiD5i5culPjJP/0ria1Fs+X50vrkdtZr23Q8fb1qGb10ufKx7dh+Vz70AfnTA089KXHti2NJ98DPf/5zXRdjDX3PPWp/PTioNstz586V/DkvK9tT758u5f+04zWJh+Z9WPu9qmFjf4n8Mvq4tn/3oPoyn+lXe+QFRWrF3Ne/R+qWdeh4rAX0RyvVeoNhSlsAACAASURBVLqu8V7dY893SVz5mFo9D5rykka1MT+yQMewZInanluYY31qVV08t0z+dGzDP0p8Tb1adk9drnPpfVPtoIeK1LZ96tSpUvfw4cMSnzunFtPNzcn3w5YtWyS/oUFtsRsbdb52/C+//LL8ai2pbY4V/Oy1cvPmzUn3FYX5RyDsP965CNh7MPveX5tvX8GQzn2X3bdh7anteFx1bY6dix2/zUlnLvm3o5gRBCAAAQhAAAIQGJ8AAjA7BAIQgAAEIAABCBQoAQTgAl34LE4bATgRNgJwIhME4IAJAnDAAQE4iydpusoqAQTg8XEjAGd1O9IZBCAAAQhAAAIFQAABuAAWmSlCAAIQgAAEIACBZAQQgNkXmSaAAJxIGAE4kQkCcMAEATjggACc6TMz7U8WAQTg8ckjAE/WzqRfCEAAAhCAAATylQACcL6uLPOCAAQgAAEIQAACExCwDyKt1fP69eulprXgc9k+2/yWlhap62ozl+1/2TTRErDWka59snq12hFH23tqrVmB1rZw7qe98uvoUbWZtTm27sBzag1ds26ppFkbZ2uPfOx3t0nOlOuuldhaN8/4QI2UV7XdKvGdP1GL9e9tKU468eLqUh3/Wzr+99+lFsTNix6VHGuJ/Pk935lw/JVfOCI5e/5BraQtk/P71IrZzqvkJrX2vfYGtba29tcXO9XiuMjYIFsbbTtxy9mWWytpa7vdt0Etkcf6L0iVsb7zEpcurJK46dz1Evf09EhcW1sr8Zw5cyQ+ePCgxPZ9wNYOuqJ0luTM7dR1ueaKWhnbufztoV3y6/0fWSZxxxa1R151t9ovW9vnygtqu11Sp7beW36m8coas+e7DH/HoVWyQG2fRw9o/khzn9Qoa7lb4poa3c+97TqXmnV6HbFdHX9a7aDLlivn4VO6n68u0b109Khao58+rXvPWkMfOnRIuqis1PFbq+euLrW8tuPp69N5NTWptfuRI3os9Pf3SxVr+9zW1ibluXYOdCwvxREQ8LkmurpxvZLDZ1hR2Sa7BOywrwtxjdllbW3vLTlefFacHAhAAAIQgAAEIBAQQABmJ0AAAhCAAAQgAIECJYAAXKALn8Vp+zzszrWHuQjAwQZBAA44IAAHHEYRgBPOnAjAWbyY5ElXPtdE11QRgAMyuXbPkCdbk2lAAAIQgAAEIJCnBBCA83RhmRYEIAABCEAAAhCYiAAC8ESE+Hu6BHwedufaw1wE4GDVEYADDgjAAQcE4MSzIQJwuleIwqvvc010UUEADsjk2j1D4e1iZgwBCEAAAhCAQJwIIADHabUYKwQgAAEIQAACEIiQgH0/q7XXs+9gs+UbN26U3jdt2iSxj2WfbRML6AgXMUZNuf7hICprylxAYa2ee9t3y5CsqHyp+1zSoVprYpvgY1Ns8x9cNSa//qRHbYqtnfLNHa9LzrJfK5P4/Q9Ml/gP/lLtee98Q22Zd/YekJy25b8s8cnz35X4W//viMQVD9+cdL4u6+bB59Uq2Yqvs3978YRL7MNq+mK1WbZjsP3WPX1v0r66n3xZyqffoe3UH1Db5KGhoQnHWVFRITmjo6MS33DDDRJXls2WuKRbmf/on9Va2b47+eXyhZJf06A24L2HdD+srFNLZzvILcvUHnzl/6c55SvnSdrw1mMTzstaPdc1KsPuLuXWsPphacfaI4/+pdosuyygXQMYG9M5Xrx4UdLOndNjzdo42/LSUp27tYy++Wbdt7t367G8dKnaubusoe362jEvWKC225s3b56QJwn5R8Ded7lesWFnbUVf12s4bH6mX7UQ9h8HXa8Uca2szxxtDmJw/h0jzAgCEIAABCAAgWgJIABHy5PWIAABCEAAAhCAQGwIIADHZqnyYqAIwMEyIgAHHBCAAw4IwO9yQADOi/M8kxifAALw+HwQgDmCIAABCEAAAhCAQLQEEICj5UlrEIAABCAAAQhAIDYEEIBjs1R5MVAE4GAZEYADDgjA7wqffAP4FyD4BnBenOaZxAQEEIDHB4QAzCEEAQhAAAIQgAAEoiWAABwtT1qDAAQgAAEIQAACsSSwbNkyGffKlSsl7uzslNjaPrsmaR/e2ZwNGzbIrzt27IglIwadHgG7x2xLTzzxhPyaT3aO1g764gG17a1qu1Xm+x5LYYc18fDW45JvbaJtm1ZU/p1/p5bCf1d5j9Qd2X1C4o81HZb4v79YJfGMV49IXLLhf0664N/+8B9I+Zc/91WJZy78gcRf71T7XNvXwb06tlvuKtExfE/HYK2q7RwHntNzUdid2PBttR22HKxNt0+bdk2t3bRts3mXzsVaBFtb4J6eHumutrZW4unT1YK7pkYtuPf85OeS88D5eolLG7SvN0vVrrmm6MeS01v0QYlteeWI2hH3NcyXnHmj/RKPdg9LPFiqNtRzq5dozjGTU5Y8x9pHW3vn/k2aP9iittUNDQ0+y5E05/Lly1Ju4/Pnz0u5XZezZ89KuX2nr7WGnj1b7bht3ZERtTq3g7E21NYy+uTJk5K2d+/elOdIxfgS8HkHsOt1G3bWPkJppl+v4JqLvW9sa2uTYbveYeyai+t+0raT6TnGd6cxcghAAAIQgAAEIBAQQABmJ0AAAhCAAAQgAAEIFCEAswkyTQABOCCMABxwQAAOOCAABxwQgDN9Bqb9XCCAAJy4CgjAubAzGQMEIAABCEAAAvlKAAE4X1eWeUEAAhCAAAQgAIEQBBCAQ8AiNSUCCMABNgTggAMCcMABATjggACc0mmVSjEjgACcuGAIwDHbxAwXAhCAAAQgAIFYEUAAjtVyMVgIQAACEIAABCCQGQJr1qyRhq3Vs4/NYGtrq9Q9flztal1Wz7bNfLL8zczK5Ger9n3Adob5tB+qHm/Sqb3zqSvJz7mXe6W05KbrJJ67Vi12XTtgYOOb8if7Pl1ruWwtoG07o2vVrnns8TvlT9Zy+fq3jkr56H9+IOkw7Bg+9dCA5Ditno3d9OUfHdT2r6+UuO7peyU+9MgLKR8ALtvn/q+9IW3OuFdtlgc2h7OYtu3bQb5nXbarvbAVeoeGhpLvh3PnpPzWW9Uq3NpBV+3XqodL1Lq5oUP/UL5S7aC3/KxcKtzZsF33mLFxfqFhTMpbftaha9GoazH4fJeUVz7WmHT8Ix2npHzQ2EFXXlC76VFjh24bsdbQhw4dkj+lYwd95coVacfG1g563759knPp0iWJrb3zddfpsXnwoO5ba+tt19SWuzawzbfzTXnDUzFnCVjR194v2QG77rt27dqlx2ZLi8TWBtlllZzp66nrOm7HtmLFChnzfffdJ7HLJtq1iJbDU089JWlYQOfstmdgEIAABCAAAQjkCAEE4BxZCIYBAQhAAAIQgAAEJpMAAvBk0i+8vhGAgzVHAA44jCIAB/sBAfgXHBCAC++akM8zRgAOVhcBOJ93OXODAAQgAAEIQCBXCSAA5+rKMC4IQAACEIAABCCQRQIIwFmETVdFCMDBJkAADjggAL+7HxCAfwECAZiLRD4RQAAOVhMBOJ92NXOBAAQgAAEIQCAuBBCA47JSjBMCEIAABCAAAQhkkIBLAF6/fv2EvVorP2tjaK0O29rakraTaYvCCQdPwqQQWLdunfRr7Rztntm8efOkjC2qTktuVNvYGR9Qq2HbvrVutuXDW9VKvXzlDfKn/mfUvrj64wul/N5htYPe9ffnpfzUVB2DtVa+8ydqBbz/lYuS/6uf1vzv/oXaFx8ZniE50++YJfFf/dkFif/8t09LvLerVPMXa/572Bpb7GlNagHd2747kiWwFs19G/ZIm5bn4PNq53thf3/K/dasWzph3doX1Wb5yJEjkl9VVSWxtR2eOXOmlN98880S228Jn3t/g5R3fk+tnh9u0HXc/49qa/zgKh2DtXR+uVz3Ulf1qLT56QaNh7cek/KSBbpeg6UHpLxyxFg9dw0mzbcW0Nb22QUwKjHYinDWDvrCBd3D9lo2MKCW5qOjyqG8XDmfOqWW1z09PTKF5ubmpNPp6FB7bdd8e3vVFn7CTUVCLAjYvZeJAbte1ZFNe2TXHF321NYm2sXEdQ9p7aDb29szgZQ2IQABCEAAAhCAQN4QQADOm6VkIhCAAAQgAAEIQCB1AgjAqbOjZngCCMABMwTgdzkgAP8CBAJw4rkEATj8+ZUauUUAAThxPRCAc2uPMhoIQAACEIAABPKXAAJw/q4tM4MABCAAAQhAAALeBBCAvVGRGAEBBOB3hU/zTUqLlW8Ap7/J+AZwwJBvAAcc+AZw+scULaRGAAE4kRsCcGp7iVoQgAAEIAABCEAgLAEE4LDEyIcABCAAAQhAAAJ5SMAKci0tLTLDL3zhCxI/8cQTEm/cuFFil+1zU1NTUlK2fSyg83AzhZySfR+wfSicTfvKkEP2Sq9ao/vfZXHsyilben3SPgY2qtXzpe5zkjNvVO2Xf/V/U/vfr3eqdbBt01pA/6Rb+/rUQ2p7awfw319Um+L39HtJ+z1RP1+q2Pnadi52qi3w+de0bnG1WkZfW6d20wPPdXqx/pckK/oOPKusBjYnb6fqcV2jqrZbpa9Dj7wQql/bjv1WtxXy565dom1+Zr/EjY2NSfs6fVr5WDvoy5cvS35Dg1pAn+tVq+35Y0OSc7xYy+uvU3vwsQG1Pv7LQ9dK/vz7NWfVTs0pWzxbckZeU+vjUbOmJY3GGrosuTW0nWx1q1pG+wCP6tvAti/L8+JFtUN/803dP2fPqh36iRMnpHpJSYnEQ0PKvKKiQsqtrbTrmjhnzhzJ7+rq0n146JAPFnJynIDrGueyR7bTsddEl9Wza/rZvIZakdu+OsS+4sFV7rJ69pl7NueY49uM4UEAAhCAAAQgAIGkBBCA2RgQgAAEIAABCEAAAkUIwGyCySKAAByQt6IpAnDABAE44IAAHHBAAJ6sszT9pkMAATighwCczi6iLgQgAAEIQAACEEiNAAJwatyoBQEIQAACEIAABPKKAAJwXi1nrCaDABwsFwJwwIFvAAcc+AZw4mkMAThWp3YG+y4BBOAABAIwhwQEIAABCEAAAhDIPgEE4Owzp0cIQAACEIAABCCQ0wSsGGwHaq38XJZ9u3btkirW+rKtrU3KrX20bX/z5s05zYXBZYaAfThu94/db3G3eXRZPVuLYEv32hvUBrnoqv7l/L7ktsnlK2+QpHuH1br2+S+dkfKadUsl/ljTYYl3/t1I0oU93LwoaZu7/l4tglt+ZbrkfG9LscSVj90y4Wbpbd8tOdZC2X7r11o6j+xW611b13bkamfCwRQVFZUvq5O04Z3dSauU3l4t5dPvUGtlazFt27HrYr/VbedS++KYtGmtgF955RXlU6UW3DffrLbe06ZNk5ypU6dK3LNbbaWvXtHyD39I7aPtMWXXbmVNr7RTfm+NMvmplg+Wqr3z3Gq1th7tHpZ8V47l47MurpyoxGCfdwN3dHTIMKxN9LFjx6Tc2nFbG2c7fmv3vXu37v/6+npdu54eiWtrayXeu3dvOriom2UCrvf+umycXXbQrmuiKz8XXquRzjuPrUhsl8y+OiSfXhWR5W1JdxCAAAQgAAEIFCABBOACXHSmDAEIQAACEIAABMYjgADM/sgmAQTgRNoIwAETBOCAQxUCcMJBggCczbM0fYUlgAAclliQjwCcGjdqQQACEIAABCAAARcBBGD2BgQgAAEIQAACEIDAewggALMhskkAATiRNgJwwAQBOOCAAJx4jCAAZ/MsTV9hCSAAhyUW5CMAp8aNWhCAAAQgAAEIQMBFAAGYvQEBCEAAAhCAAAQg8B4CPg8ubQVrUWjLXZZ91j7a5mMBzUa0e89aXOaCrWUmVscKnLb9gWfVxvn8a2r7bK2VLx4YTDqkv/rSBSl/7gtDEm/723MSv/Mh8F9+VvwbtZu+5a4SKf96p1oNV76kFri3f0Bth3/Sfb3kT1tQKbFrbNbe2Q7ecjj0yAtJ52UtrF0W0JlYI9umj8W0ay62bpFdANPBtG1n5bfm5maJT506JbE9RmbOnCnlViS+dOmSlF/qXSjx/FvVpnvndSel/MFr50k89uMuiUvqyiUe3qp2xyWNutajXboPKx9T6+nu0uT78z3r3tAQyZJlQgy+fFntss+d02Nn3759MuahIT2+Kioq9Pi6RhfY2kEPDAzo8WLsu8vKyqR8ZEQt2a0F9JEjRyTHthMJQBqJnEA6Nsg+NtHWBtkOPhdel2D/qcuOzY7ZZWFtc1zvDM61+Ua+eWgQAhCAAAQgAAEIREgAAThCmDQFAQhAAAIQgAAE8oEAAnA+rGI854AAHKwbAnDi/kUADpggACfuDQTgeJ7v83nUCMCJq4sAnM87nrlBAAIQgAAEIJCrBBCAc3VlGBcEIAABCEAAAhCYJAIIwJMEnm7fI27xDeBgQ/AN4IADAnDAAQE48USJAMzFI9cIIAAnrggCcK7tUsYDAQhAAAIQgEAhEEAALoRVZo4QgAAEIAABCEAgBAH74NJa8FlL540bN0qLbW1tEls76KeeekrKXXZ/dlj5avMbAn3Bp65Zs0YYNDU1Sbxt2zaJd+zYkTecqtboHIuu6rSq2m6VXwY2qh20tVm2EE79N7WlXd12rfxpy8/Uwtf1XmFryxz2nbs+1s0+i1V6e7WkXdjfn7SKtVC2HDJtB23XaFqTWh+7+o1KqL7rrruScpg1a5aUnz9/XmJrQWzP4WfOnJGc2/9JLaOvuaLNb/9kjfyyasdFiQdLD0g8784VEo8eHda428TGlrxmXYvuwy1bks7l7rvvlvLqat0DPnvGlbNnzx7505IlS9JpSuc4OipxXV2dxM8//7zEfX19SdfF2kdbS+eenh7Jd5VfvKhrYW29586dK3Wt+B3JZGkkEgI+ArCPDbKPHbQdcK7dR6XDwc7Ldc+Za/ONZPPQCAQgAAEIQAACEIiQAAJwhDBpCgIQgAAEIAABCOQDAQTgfFjFeM4BAThYNwTgxP2LABwwQQAe/9yGABzPc3++jTod4dP1TVmfb9DmmiCaDge7JxCA8+0IYT4QgAAEIAABCGSLAAJwtkjTDwQgAAEIQAACEIgJAQTgmCxUHg4TARgBmG8AB3uAbwCndoJDAE6NG7WiJZCO8IkAnLgWCMDR7k9agwAEIAABCECgcAggABfOWjNTCEAAAhCAAAQg4EXAJQB3dnYmrW8toG2C64GdaxDWPrq9vd1rrCTlLwG7D1tbW2Wi1ho6X/eJj7VyWKvhkhuvE4ajb5+NZOPYb+Ve6j4nbQ7v7A7Vvs98bYMl881cjkYzF9eAw44t7LrYfq0VdnF1qfzp3rLFSYfX36922eXlavd93XXKZ+ZMtX0uLdU2rZXxlClTpP1rrnnnEUHw0/+cWkBXP74g6Rh623dJubV9dvH0sSxuaGgItX9cyVGJwdu3b5cuTpw4IfG0adMktpzffFNt2+15rKysTPJHRkYktuXWytvOa86cOfJrV1dX0nZ6e3sj4UYjqRFYt26dVLSvwLDXr02bNkmOtXf2eX2GFYZdI7THb2qzoBYEIAABCEAAAhCAQD4RQADOp9VkLhCAAAQgAAEIQCACAgjAEUCkibQJIAAHCA898kJSlmGFRgTg1LYkAnDADQE44IAAnNpxVAi1EIALYZWZIwQgAAEIQAACEIgXAQTgeK0Xo4UABCAAAQhAAAIZJ4AAnHHEdOBBAAE4gIQAnLhZ+AZwwIRvAI9/IuEbwB4nWlIiI4AAHBlKGoIABCAAAQhAAAIQiIgAAnBEIGkGAhCAAAQgAAEI5CMB+0DTWkC7bAyt7bPl4bKJtraHNj9frX3zcY9kY06uB+vWQnP16tXZGErW+3B90zfsN1Or1jTJ2Kc1VUrc2747kjmF/UaytY+2Axh4LrnVvM2xdX3y05lg+bI6qe5jbW05DD5/UOq63m38nnmZNRrYnJzDqlWrpIq1Ap41a5aUz5gxY8K4uLhYchobGyW2dtAuC2jLwfIJy9kKtJWVuiftvOx8w7Zv8631tI/F9L59+6T6kSNHJF68WO24rS3zsWPHJOfVV1+V2NpuDw0NSbm1evYpt5bRtbW1SVHYdnysttPhSd1EAvY61dLSIgku62Z7/bKt+eTbHGyf2Y0QgAAEIAABCEAAAi4CCMDsDQhAAAIQgAAEIAABJwEEYDZHLhBAAA5WwYq1CMABEwTggAMC8PhnKgTgXDiT5/cYEIDze32ZHQQgAAEIQAACEIgjAQTgOK4aY4YABCAAAQhAAAJZIoAAnCXQdDMuAQTgAA8CcMCBbwAHHPgGsP+JEwHYnxWZqRFAAE6NG7UgAAEIQAACEIAABDJHAAE4c2xpGQIQgAAEIAABCMSewHe+852kc3BZFNpka29orZ6tlbTNP378uPz6xBNPSJyv1r6x3xyTNAG7J+2+ylfb8JIbrxPS8758n8QDG99MvgLvfMJ796fqN26V2PUu4bAWx/abx3YM5/edlr587I7DfoPZTtZls2xzfMbgavPigUH5U9h5udr0sdq2a1G+8oak62vbqaqqkpylS5fq3hgYkHjatGm6H0z+9OnTpby7u1vimy9ekLhs7xzl0HxS4sqRBRJXt2qczinBCrRz585N2lR5eXk6XUjdLVu2SOyymLavObCW2g899JDUte8pHx4e1mPt0CGJrXWznePMmTOTzqWnp0f5l5UlbcdWvHjxYtL1tTnYQUeybZI24roePfXUU5Lvsnp2jcrn/srWxQI6c+tLyxCAAAQgAAEIQCDuBBCA476CjB8CEIAABCAAAQhkkAACcAbh0nRKBBCAA2wIwAEH+55du6EQgAMaCMCJpxkE4JROvVRKQgABmG0BAQhAAAIQgAAEIJDLBBCAc3l1GBsEIAABCEAAAhCYZAIIwJO8AHSfQAABOECCABxwQAAOOPANYP+TJQKwPysyxyeAAMwOgQAEIAABCEAAAhDIZQIIwLm8OowNAhCAAAQgAAEITDIB+3DzySeflNE8+uijErusDjds2CA527dvl3jFihUSr127VmJr59vS0iLlWEBP8ibIse6t7Wpra6uMrqmpSeJ8tYO2S5GOhbJtp/T2avnV9a1Z+87daQsqJd/H1tj2Za2bw9b12Ya2fWvjPPBcZ9LqlmH3ky9PyMFnDK6cdN5bXLVG9/a0puT877rrLuna2ghbO2VrGW2/GVxRUaFzv6AW0DVbLkt53f+hFtOZtpy1lsWDg2rHXVmpc29oaEhnOaSu693Arn9+stcjey4aGxuTNs+ePSvxgQMHJLavObhgOFtr6zlz1Ha7o6ND6pYZO2g78cbGRvn15Em16bY5Q0NDSecbCcACbySdf5JzoXNZRrusoTN9PBb4EjN9CEAAAhCAAAQgEGsCCMCxXj4GDwEIQAACEIAABDJLAAE4s3xpPTwBBOCAGQJw4t5BAA6YIAD7n1cQgP1ZkZlIAAGYXQEBCEAAAhCAAAQgkMsEEIBzeXUYGwQgAAEIQAACEJhkAgjAk7wAdJ9AAAE4QIIAnHhwIAAHTBCA/U+cCMD+rMhMJIAAzK6AAAQgAAEIQAACEMhlAgjAubw6jA0CEIAABCAAAQjkEAH7oNNaEbrsCu3QN27cKL+2tbVJbG2fbb61lcbeMIc2QY4NZd26dTIiaxtu99vmzZtzbNSpDyeswOnqybbT/8wbkjZ6VK1rbd1MWzenTqTwavqsRU1NjYBpbm6WeGBgQOLS0tKkcX19vZTv379f4ltGL0rc8NDDWQPf29srfY2MjEhsraGXLFmS8ng2bdqU9Bzy7LPPSrk9z7g6unLlivzp0qVLEp85c0ZiKzbbtRgdHZWcw4cPS2xtumtra6Xc2kRb22dr9WxZWfto26+NUwZY4BXtPyTZeyGXXbPF5XPvhO1zgW8wpg8BCEAAAhCAAATSJIAAnCZAqkMAAhCAAAQgAIFCIYAAXCgrHZ95IgAHa+V6x61rJRGA47PH//VIEYADIgjAAQcE4Mk9lhGAJ5c/vUMAAhCAAAQgAAEIjE8AAZgdAgEIQAACEIAABCDgRQAB2AsTSVkkgAAcwEYAzuKmm+SuEICDBUAADjggAE/uAYkAPLn86R0CEIAABCAAAQhAYHwCCMDsEAhAAAIQgAAEIAABLwJWALbWzdau2WWB2NraKn1Yy01Xuasd7KC9lqogk1w2rdYaevXq1bFmU3LjdTL+0beT2zW7JmiFw+GtxyVteGd30ipRvWM41sBzfPBVa5pkhAObO5OvY0OD5hgL6LvuukvKL1++LPGMGTMktvbFN954o5Q3NWm/9pyc6fPznj17ks6xrq5Oyq39tWv57DXI2iNb2+Tq6mqpvmrVqlA7wWUHbS2au7v1uLNidnFxsfRlLaPt2KwdtMv22Vp/u0RiOynbV6jJFmCy65/hLAqXvbPrtRf2OuWyfbZtxv1aVoDbhilDAAIQgAAEIACBSSGAADwp2OkUAhCAAAQgAAEIxI8AAnD81qyQRowAPP5qIwDn39GAABysKQJwwMGKxAjAmTveEYAzx5aWIQABCEAAAhCAAASiJYAAHC1PWoMABCAAAQhAAAJ5SwABOG+XNi8mhgCMAJwXGznEJBCAA1gIwAEHBOAQB08aqQjAacCjKgQgAAEIQAACEIBAVgkgAGcVN51BAAIQgAAEIACB+BKwDz3tLKxdocv20JUTthzbw/jun2yO3CUGb926VYaxc+fObA4pVF/227qDzx+Uuhf294dqJ53kqseNvfBzye2F02mfuukTCLtG1vbZ9n7p0iX5dfbs2RJPnTpV4pKSkqTlC0vrpbx8sdZNf3bjt9Db2ysJ1k7Z1lqyZIn86rp+WdHUvpLAtmOtp22bPnO0dtAXL16UKmfPqoX7qVOnpNzO6/Dhw1J+2223SWwtne0Yenp65FdrEz1nzhwp3717t8T19bp21koaO+jxV9bnXsi2sH79evnVvjLDZ//YHCygwxIjHwIQgAAEDsiqrQAAIABJREFUIAABCEAAAZg9AAEIQAACEIAABCDgRcDnoScCsBdKkjJMAAE4fcBhxcX0e6SFsATCrhECcCJhBOCACQKw/9Hncy9kW0MA9mdLJgQgAAEIQAACEIBAtAQQgKPlSWsQgAAEIAABCEAgbwn4PPREAM7b5Y/VxBCA01+usOJi+j3SQlgCYdcIATiRMAJwwAQB2P/o87kXsq0hAPuzJRMCEIAABCAAAQhAIFoCCMDR8qQ1CEAAAhCAAAQgUBAEwj4AtcKwtX22D0ZbWlqEnY819DXXvHMryw8ExiewaNEiSXj00Ucl7uxUW+PNmzfnFEZrAd3brpat2RykHcPw1uPS9dy1aqt76JEXsjmkgu3LrkX/194QDtWfWChx2H3S0NAgda0IWlVVJeVlZWUSV1ZWSmwto63V8IIFCyRnypQpEmf6XG0ti+2YrW31/v37ZTzLli1LeS/ZvixDnwZddtDnzp2T6tbe+dixY1Ju7aMvX74s5dbe2Y6ho6NDfnXZQduc5uZmybc20QMDAz5Ty/ucq1evhpqjzz2PtYO2+bt27ZK+7H0Rr8AItQQkQwACEIAABCAAAQgUFRUhALMNIAABCEAAAhCAAARCE0AADo2MCpNEAAE4NfAIwKlxy0QtBODxqSIAJ/JBAI72SEQAjpYnrUEAAhCAAAQgAAEIZIcAAnB2ONMLBCAAAQhAAAIQyCsCCMB5tZx5PRkE4NSWFwE4NW6ZqIUAjADMN4AzcWT5t4kA7M+KTAhAAAIQgAAEIACB3CGAAJw7a8FIIAABCEAAAhCAQGwI2Iehra2tMu62trakc7CWzjbB1m1qapI/WWvE5cuXS/nKlSslbm9vjw0vBpobBNasWSMD2bRpk8TWijwX9lUuWEC7Vqx8WZ38ydpBdz/5spRf2N+fGwses1GUzL9ORjzjAzU6euM+O/CcWpdHNT3Xu4GtdfPY2Jh0Z+2gZ86cKeXTp0+X2NpBFxcXS3mm7aB7e3ulr+7ubonr6nTf1tQYtmlA3LNnj9ReskSt0X2adNlBnz9/XqqfOHEiaWznODo6KjnWytvmuNbX2kd3dXVJOxUVFRLbnC1btvhMLS9zfP7pzdo4b9y4UTjYexvXqy5c7wm2bWIBnZdbi0lBAAIQgAAEIACBjBJAAM4oXhqHAAQgAAEIQAAC+UkAATg/1zXfZ4UAnP4KIwCnz9DVAgJw+mwRgAOGCMDp7yXbAgJwtDxpDQIQgAAEIAABCEAgOwQQgLPDmV4gAAEIQAACEIBAXhFAAM6r5SyYySAAp7/UCMDpM0QAzhxDBGAE4EzsLgTgTFClTQhAAAIQgAAEIACBTBNAAM40YdqHAAQgAAEIQAACeU7APhi1Vs/WutAi2LVrl/xqrZ59LBBtXdtmLtj25vky59301q1bl3RO1qIzFyw3reA6vFMtbfNuQZhQThCwdsFDQ0MyJmtNbAdqrZVnz54tf7r++uslnj9/vsTWDjqqCVs7d9umPZYHBwflT6dOnZJ41apVkQzD2iOHbdNlB20tnU+ePCnjfPvttyW2FtDWpttl72wna62e7Vo3NjZKmu230OygXaKv6x4mnY3kul/KhWtQOvOiLgQgAAEIQAACEIDA5BJAAJ5c/vQOAQhAAAIQgAAEYk8AATj2S1iQE0AALshlZ9ITEEAATm2LIACnxi2XayEA5/LqMDYIQAACEIAABCAAAR8CCMA+lMiBAAQgAAEIQAACEHASQABmc8SRAAJwHFeNMWeaAAJwaoQRgFPjlsu1EIBzeXUYGwQgAAEIQAACEICADwEEYB9K5EAAAhCAAAQgAAEIOAm4hLTOzk6pYy06rdWztegMa6u4aNEiaX///v2sEARSJmAf9Nt9mAt20FWPN8m8Bp7TYyrlyVIRAp4ErBh85MgRqVVVVSWxtVa2dtCzZs2SnBkzZkj8/ve/X+KpU6d6jiQxbfv27Unr2vFY+9w9e/YkzbdjrqmpSXk8tmJ/f7/8Wl1dPWGbV69elRxrB23tnc+dOyc5fX19Eh8/flzis2fPSjw8PCyxtZKura1NOh6XZfTAwIDk19fXS1wIdtB2XSw0a9fsum+xOfbVGK7N4Mq/5pp3HtnxAwEIQAACEIAABCAAgdQIIACnxo1aEIAABCAAAQhAAALvEkAAZivEnQACcNxXkPFnggACcGpUEYBT45ZrtRCAc21FGA8EIAABCEAAAhCAQFgCCMBhiZEPAQhAAAIQgAAEIPAeAgjAbIi4E0AAjvsKMv5MEEAATo0qAnBq3HKtFgJwrq0I44EABCAAAQhAAAIQCEsAATgsMfIhAAEIQAACEIAABN5DwPWePJftocsC2ja6YcMG+dVadLa1tUn5xo0bJW5qUpvc9vZ2VggCKRPw2c/YcqaMl4oxJWBtn5cuXSqzOHnypMTWFvjQoUNSfuuttyadtRWYi4uLJyTjOjZtRWv77GrQ2kGfOnVK0hobGyVuaGiYcDw+Cb29vZLmYzFtRcfLly9LXWsHbe2dT5w4ITm2L5t/+vTppHO047frODQ0lHRqlo9N2L17t/xqLaN9+ORajv2HNvsKADtOH0vnqObFtSYqkrQDAQhAAAIQgAAECpMAAnBhrjuzhgAEIAABCEAAApER8BHMbGcIwJGhp6EMEPDZzzyUzwB4msxpAgjAqS0PAnBq3CarFgLwZJGnXwhAAAIQgAAEIACBTBBAAM4EVdqEAAQgAAEIQAACBUTARzBDAC6gDRHzqfrsZwTgmC8yww9NAAE4NLJfVEAATo3bZNVCAJ4s8vQLAQhAAAIQgAAEIJAJAgjAmaBKmxCAAAQgAAEIQKBACbjemef61u8XvvAFIfXEE09IvGvXLomtDaPLevG73/2u5PtYgBbo8jDtkATsfrZ7+KmnnpKWEINDQiU99gTKy8tlDtZ+3zWx6upq+dP06dMltnbBH/zgB6V8ypQpEn/+85+XuLm5OWkX6ZzzrR10ZWWltD84OCjxkiVLIlkzHzHYnnNc8fnz52U8Z86ckdjaONvxnz17VnKOHTsmcVlZmcQVFRVJ52htva3Vs7UB7+rqStrO3r17I+GWzUZc/wBkXzmxadOmUENqbW2VfPsaC9uIvbfhmhIKL8kQgAAEIAABCEAAAuMQQABme0AAAhCAAAQgAAEIREYAATgylDSUAwQQgHNgERhCzhFAAE5tSRCAU+OWzVoIwNmkTV8QgAAEIAABCEAAApkmgACcacK0DwEIQAACEIAABAqIAAJwAS12AUwVAbgAFpkphiaAABwa2S8qIACnxi2btRCAs0mbviAAAQhAAAIQgAAEMk0AATjThGkfAhCAAAQgAAEIFBAB1/vzrH2iywLR5lhbUWsB7ULpsoxOxxq0gJaNqXoQcO1ta925fPlyaWnnzp0erZICgXgTqKmpkQnU1tYmnczs2bOl/OLFixJbO+j6+nop37Fjh8SdnZ0S/+Ef/mFGYVk7aNvRqVOn5NdVq1ZFMoYtW7aEavPKlSuSPzY2lpTn0NCQlFux2dpBnz59WnJKS0uTzqWnpyfpmlo7aGs37QJix3Po0KFIuGWiEXtut/b+rr7sKydsjusVFWHHjAV0WGLkQwACEIAABCAAAQi4CCAAszcgAAEIQAACEIAABCIjgAAcGUoayjECCMA5tiAMJycIIACntgwIwKlxy0QtBOBMUKVNCEAAAhCAAAQgAIFcIIAAnAurwBggAAEIQAACEIBAnhBAAM6ThWQaCQQQgNkUEEgkgACc2q5AAE6NWyZqIQBngiptQgACEIAABCAAAQjkAgEE4FxYBcYAAQhAAAIQgAAE8pCAfahqp+djsejCsX79evmTqx2b097enodkmdJkE7DvibS2n62trTI0a2POPpzsFaP/bBC46667pBtrF2z77uvrk1+teDw8PCzlCxculPjVV1+V+OGHH87GNH7Rh7UsthbKuWAHffnyZeFg4/Pnz0u5HXN3d7eUnz17VuIZM2ZIfPDgwQnZNjY2Sk5XV5fErvKKigrJyWU7aPuudwvBWj3b83xU5bYvbJ8n3H4kQAACEIAABCAAAQikQAABOAVoVIEABCAAAQhAAAIQmJgAAvDEjMiIJwEE4HiuG6POLAEE4NT4hv02MAJwapxdtRCAo+VJaxCAAAQgAAEIQAACuUMAATh31oKRQAACEIAABCAAgbwigACcV8vJZAwBBGC2AwQSCSAAp7YrEIBT4xZVLQTgqEjSDgQgAAEIQAACEIBArhFAAM61FWE8EIAABCAAAQhAIE8IWJHMNaVdu3bJn6yls7VYdNW1lozW9nnr1q1S5YknnpB49erVeUKWaeQqgeXLl8vQ6urqJG5ra2Mf5uqiMa6MEFi1apW0a+2CKysrpdzG06dPl/Ibb7xR4mPHjkm8ZMkSiadMmZKRcSdrtLe3V4qtnbIdf0NDQyTjsdbTPm2OjY1Jv1euXJH43LlzEp8+fTopzxMnTki5je+++24pP3nypMTW1rujo0PKm5ubk+b39PRIeVlZmcQjIyMSW7aRAPRsxPXe37D2zp7dSZqrfSygw5IkHwIQgAAEIAABCEDAhwACsA8lciAAAQhAAAIQgAAEQhNAAA6NjAoxJ4AAHPMFZPiREUAATg0lAnBq3MLWQgAOS4x8CEAAAhCAAAQgAIE4EkAAjuOqMWYIQAACEIAABCAQAwIIwDFYJIYYKQEE4Ehx0liMCSAAp7Z4CMCpcQtbCwE4LDHyIQABCEAAAhCAAATiSAABOI6rxpghAAEIQAACEIBAzAhYYWz79u0yemvd3NLSknRW1iba5lgL6NbWVqm7adOmpO3bxtvb22NGkOHGjcCyZctkyNaK3O5baweKRXncVpjxjkfA/gPQl7/8ZUm1lsLFxcVSbi2CZ82aJeXWmvi2226T8htuuEHibNrn2vf1Wutja2vsY93ss3v27Nkjadb+2ta176+1FtDWGnp4eDgp/yNHjkh5eXm5xNYy2mec6eRYW2nLNp02XXXtnrT3FTbfvooinTG4rJ5tm9nct+nMhboQgAAEIAABCEAAAvElgAAc37Vj5BCAAAQgAAEIQCA2BBCAY7NUDDQiAgjAEYGkmVgSQABOf9kQgNNnaFtAAI6WJ61BAAIQgAAEIAABCOQ+AQTg3F8jRggBCEAAAhCAAARiTwABOPZLyARCEkAADgmM9LwigACc/nIiAKfPEAE4Woa0BgEIQAACEIAABCAQLwIIwPFaL0YLAQhAAAIQgAAEYknA2lTaCVibRFtubXJ98l11rcV0Z2enpG3evDmWHBl0PAlYMWzjxo0yiaamJom/+c1vSvzoo49KjF15PNe8UEZt36XqsvG3LH7rt35LfrUWykNDQ1JeWloqcUVFhcTWmtjaLNs4m7a61rL47rvvlnEODg5KnI4dtL1uvvTSS9Kmfb+yZetjB33mzBmp0tvbK/HBgwclnjJlisSzZ8+WuKurK+m67N27d8Kx2XFaG3BrAW1zMmEHbc/DruPTde8R9nj2eb0Ftv9hqZIPAQhAAAIQgAAEIBCWAAJwWGLkQwACEIAABCAAAQiEJoAAHBoZFfKIAAJwHi0mU3kPAQTgAAcCcMDBJU7bTYMAHNBAAOZkCgEIQAACEIAABCCQaQIIwJkmTPsQgAAEIAABCEAAAkUIwGyCQiaAAFzIq5/fc0cADtYXATjggAAccOAbwPl93mN2EIAABCAAAQhAIC4EEIDjslKMEwIQgAAEIAABCOQJASuGWbvF1tZWmWFbW5vENsdaRqdjE21R8i2cPNlYMZxGWEtSu//ZtzFc8BgP2Qq9dhrWWt+et33OsXfddZekWavhs2fPSvmMGTMkHh0dlfiWW26R2FpDL1myJCnlTFtDHzp0SPq1FtCnTp2Sch9x1GeL2L5cFtNXrlyRpmw8NjYm5Zbz8ePHpfzNN9+U2JVv7bs7Ojokv7a2dsIpWLvvxsbGpPnWbtrOd8LG/1VC2HOsj3Cbjk10pvdhWD7kQwACEIAABCAAAQjkNwEE4PxeX2YHAQhAAAIQgAAEco4AAnDOLQkDmiQCYcUJBOBJWii6LUIAHn8TIAAHfBCAx98nCMCcTCEAAQhAAAIQgAAEskkAATibtOkLAhCAAAQgAAEIQKAIAZhNAIGAAAIwOyEuBBCAEYDtN4b5BnBqRy4CcGrcqAUBCEAAAhCAAAQgkBoBBODUuFELAhCAAAQgAAEIQCBFAsuXL5eaa9eulXjXrl1JW3zqqaek3NZ94oknpNxaMloLR9vgtm3bkvaLlW6KC0m1jBFYtGiRtP3oo49K3NLSkrRPe+y0t7dnbFw0nP8E7D8l2H1lz5/Wcvmxxx4TKOnsvZqaGmnnjjvukNhaEFv6JSUl8mtlZaXExcXFErvshTMtwm3ZskXGYK2t6+rqpNzON51d5WMHffXqVenCZQdtbZnffvttyX/99dclttysBbdr/NbGuaKiQtJ6enoktkKybcdVd+/evaFw2bm7XiHh82oJV6e2rj1e7H0Lzg2hloxkCEAAAhCAAAQgAIEICSAARwiTpiAAAQhAAAIQgAAEJiaAADwxIzIKmwACcGGv/2TOHgE4ffoIwAFDBOCAAwJw+scULUAAAhCAAAQgAAEIpEYAATg1btSCAAQgAAEIQAACEEiRAAJwiuCoVjAEEIALZqlzbqIIwOkvCQJwwBABOOCAAJz+MUULEIAABCAAAQhAAAKpEUAATo0btSAAAQhAAAIQgAAEIiBgxYYNGzZIi9Yqc9OmTVJu7Z2tHa7LPto1xM7OTvlTW1ubxNhBR7CoNJExAq53Brss0K1t744dOzI2LhqOHwGX0Guta1esWCET2759u8SZtlCuqqqSvsrLyyUuKytLeo2w+X19fZJjraGXLFmSdJGmTJmS0cWzFs22IyuOrlq1KpIx7NmzR9pxzdd2dPnyZfn10qVLEls76KNHj0r5vn37JK6urpZ4zpw5Ep88eTJpO9YC2ua7mLjsu22+FdptubV9tuX2/sHucxd8H2ton5xMHy+RbB4agQAEIAABCEAAAhDISwIIwHm5rEwKAhCAAAQgAAEIxIMAAnA81olR5gYBBODcWId8GAUCcLCKCMABBwTgxKPaR9z1yUEAzoczJnOAAAQgAAEIQAAC8SSAABzPdWPUEIAABCAAAQhAIC8IIADnxTIyiSwRQADOEugC6AYBGAGYbwCPf6D7iLs+OQjABXBCZYoQgAAEIAABCEAgRwkgAOfowjAsCEAAAhCAAAQgUAgEfASt1tbWpCisNbRNsDaP1uq5qalJ0qz9o8tWGjvoQtiB+THHNWvWyESspfnGjRuTlttZs8/zYw+4ZrFu3bqk5z0rXLn2SS7sjYaGBhn/1KlTJba2z9Ya+sqVK5JjBc758+dLubUXtuJcpr8NbC2L7Rjs+GtqaiZlQ1puY2NjMob+/n6J3377bYn37t0rcWlpqcTW6tlaSbsm5WP1vHv3bqleX18vsbWS/sEPfhAJN9f9gG3cWu67OuW9v5EsB41AAAIQgAAEIAABCKRJAAE4TYBUhwAEIAABCEAAAhBInQACcOrsqAmBfyGAAMxecBFAAA7IIACPf4wgAAd8EIA5l0IAAhCAAAQgAAEI5BMBBOB8Wk3mAgEIQAACEIAABGJGAAE4ZgvGcHOSAAJwTi5LTgwKARgB2GcjIgAjAPvsE3IgAAEIQAACEIAABOJFAAE4XuvFaCEAAQhAAAIQgEDeEvARg12Td72Hz5bbutbC0VpMd3d3S9qOHTvyljUTKwwCV69elYnaY2HXrl1S3tLSIrG1AraErH16e3t7YcDL0Vm6xP4NGzbIiK1t7+LFi6Xc2ubH0aLW2iPX1tbKvAYGBiSuq6uTeNq0aRJba2Jrcfy+971PcqzFtMsO2h5T6bzb1dpB33LLLTIGG0e1BW1fq1atmrBZlxg8ODgodQ8dOiRxR0eHxNdff73E1gLa8rfWzXYwJ0+elF9tjqvc1u3q6pJfDx48OOEcbYLPe3x97jHseZXzZKglIBkCEIAABCAAAQhAIEMEEIAzBJZmIQABCEAAAhCAAATCEUAADseLbAhMRAABeCJC8fs7AnCwZgjA/nsXAXh8VgjA/nuJTAhAAAIQgAAEIACBeBFAAI7XejFaCEAAAhCAAAQgkLcEEIDzdmmZ2CQRQACeJPAZ7BYBGAE47PZCAEYADrtnyIcABCAAAQhAAAIQyA8CCMD5sY7MAgIQgAAEIAABCOQVASsGW7tm+00da3m6du1amb8r39ozWlidnZ3ya1tbW9J20rH6zKuFYTJ5QcAeX9b22e5/O1GfY8paSa9evTovOGV7Elbcfe2116T7P/qjPwo1FLum+WprX1VVJUys1XNzc7OU79+/X+L58+dLXF5eLrG1fb7jjjukvKSkROLi4mKJrT2yyyY61GIVFRXt2bNHqlgL65GRESlvaGgI22zS/N7eXim3ltquxu18L1++LGnWdttlB33+/HnJX7p06YTjt1bPNtllGe1q0Lbz0EMPSZo9R9lzmm1n/fr18utTTz014ZhtAvcJoXCRDAEIQAACEIAABCCQBQIIwFmATBcQgAAEIAABCEAAAuEIIACH40U2BMIQQAAOQyt7uQjA/qwRgP1Z2UwE4IAGAnBq+4daEIAABCAAAQhAAALxIoAAHK/1YrQQgAAEIAABCECgIAggABfEMjPJSSKAADxJ4CfoFgHYf10QgP1ZIQAHBPgGcGp7hloQgAAEIAABCEAAAvElgAAc37Vj5BCAAAQgAAEIQCBvCbjeXWqtTTdt2iTzd9k2tra2So7NX7FihZTfd999EtsHxBau7Xfz5s15y52JQSAZAStM2r/v27dPfq2urpbY2tjafJfFtM2xVu3t7e2xWBDLx1ou23PL888/L3N5/fXXJba29i6begvBWtZzLgrIuKyMa2trBd2RI0eS7k9bd+bMmZJzyy23SGwtpq1ltLWAttesdKyA///27u/XzqrOH3hbftUW5FdBReJI4SROwGYoppOYFLwwZSaZHnUS0xP7BxhvTeqPpCeTSc8EMmSMMaiZmRtvTnJ6QzJl1MjFhJbJRHshEcRRW5AZKEVayo8ilALthO9mPvPx2704z/69n7VfvVrn6XrWs9Zrrb2P9s3+7FwOOu97fk01Kd3c5IWTn7V169ZVb8nloHM7l4POzrmM+Sc+8YkY/+TJk9HObnkCuexzqTR0acL53qNHj0a3b3/729HOr7Vc6jm/HkufEs598hyUvl/1COlAgAABAgQIECAwZgEB8JjBPY4AAQIECBAgQGB1AQHw6kZ6EBiXgAD4/aUFwOM6id2fIwDuz18A3HETAPd3ftxFgAABAgQIECAw/QIC4OnfIzMkQIAAAQIECMycgAB45rbcgqdYQAAsAJ7i4+kTwH1ujgBYANzn0XEbAQIECBAgQIBASwQEwC3ZKNMkQIAAAQIECMyqwN69e7suvfR9frk8Y6lkdC4NnQfPZaJLpVnzp4UGKfU5q/tp3XUKlD4Fm1ebSyLn6/m1nF+zc3NzXbHya7BJmfdcPrc0Zp5DLg/b5H0ml4rdvn17zPlrX/vaqpud782l7NtS/nrVBY65w+bNm+OJr7/+erRfe+21aF9xxRXR/tCHPhTtTZs2RTuXer711lvj+oYNG7r2ycsc1u+FUjnoq666Kh6X1zsI9UMPPRS379ixY9WhSuWgX3311bj32WefjfZ//ud/RvvGG2+M9qlTp7o+K4+fO+Tyzvl6kzLR+d6f/OQncXuTss/5Wbm/ss+rHhUdCBAgQIAAAQIEJiggAJ4gvkcTIECAAAECBAisLiAAXt1IDwKTFhAAd3ZAADzZkygA7s9fANxxK33vb1YVAPd3xtxFgAABAgQIECAwfgEB8PjNPZEAAQIECBAgQKAHAQFwD1i6EpiQgAC4Ay8AntABfO+xAuD+/AXAHTcBcH/nx10ECBAgQIAAAQLTKSAAns59MSsCBAgQIECAAIH3BA4cONDVIv9DbZOyz4OUeSw9S/lHx5TAcAXy6z2/7nKp51zGOZdozjPptfz7448/Hrc/8cQT0c5lmUvPys/1njDc8zDIaLmUcS4RfPz48Rj2Ix/5SLTPnDkT7Y9+9KPRfvPNN6P953/+59HO5aDXrVsX1/N32I+iHHQuAX306NF4bpPSzU08e/1u4Lzed955Jx6RS3C/8MILcf23v/1tV9v169fH9Q9+8INdp3ry5Mm4nvdxy5Ytcb1UDjqXgM59SqW2m1gNa3+bPEsfAgQIECBAgAABAr0KCIB7FdOfAAECBAgQIEBgrAIC4LFyexiBiQoIgCfKX9XDBcD9bacAuLmbALi5lZ4ECBAgQIAAAQLjFxAAj9/cEwkQIECAAAECBHoQEAD3gKUrgZYLCIBbvoFTNH0BcH+bIQBu7iYAbm6lJwECBAgQIECAwPgFBMDjN/dEAgQIECBAgACBPgWafB/w4cOHY/RcsjVfz48/cuRI/JhLy+7bty+u33nnnV1nfNddd8X1paWlPlflNgIECBAYpcDtt98ew7/yyivRvuWWW7o+9tixY3F906ZNXds333xzXL/sssuifdFFF41yKWvy9/XmOeQwMn8X8iCT6TUMPnfuXDwul4bO5bVfeuml6PPMM89E+6233op2KVjNpbZzOehc3jmvN5d6btLnb//2b+N2X/0wyMlxLwECBAgQIECAwDQICICnYRfMgQABAgQIECBAoJGAALgRk04ECBAgkAQEwP0dBwFwx+3BBx8MQN/z3d9ZchcBAgQIECBAgMD4BQTA4zf3RAIECBAgQIAAgT4FBMB9wrmNAAECMywgAO5v8wXAHTcBcH/nx10ECBAgQIAAAQKTFRAAT9bf0wkQIECAAAECBPoUaPLdwIuLizF6Lumc/zE3P77X8tG5xPTy8nIMtX///j5X5TYCBAgQGKVADoNzWeBcLjiXGr744otjOldffXW0r73UC8AuAAAgAElEQVT22mh/7GMfi3YuBz3Kdbw7di4HvWXLlnjcc889F+2tW7cOZRq9hsH5obk09NmzZ+OvTp8+He0//OEP0X7yySejnf1fe+21uH7VVVdFu1QOulQCusn1vF7f9TuUI2QQAgQIECBAgACBMQsIgMcM7nEECBAgQIAAAQLDERAAD8fRKAQIEJglAQFwf7stAO7PzV0ECBAgQIAAAQIEJiUgAJ6UvOcSIECAAAECBAgMJCAAHojPzQQIEJhJAQFwf9suAO7PzV0ECBAgQIAAAQIEJiUgAJ6UvOcSIECAAAECBAgMJJC/DziXYt65c2eMWyr1nB+cyz7n6wcPHowf9+zZE+1SmejSmEtLSwOt080ECBAgMBqBzZs3x8BXXnlltHNp6Fy++MyZM9Enl4PeuHFjXJ+bm4v2RRddNJqJdxk1l4POf33LLbfEj3m9g0xsWGHwBz7wgZjGFVdcEe3/+I//iHYuZ51Lc+dy0Hnvei0HnR1KpaFLtoMYupcAAQIECBAgQIDAqAUEwKMWNj4BAgQIECBAgMBIBATAI2E1KAECBGZGQADc31YLgPtzcxcBAgQIECBAgACBcQoIgMep7VkECBAgQIAAAQJDExAAD43SQAQIEJhJAQFwf9suAO7PzV0ECBAgQIAAAQIExikgAB6ntmcRIECAAAECBAiMROD8+fNdx80loHNp6Nx5YWEhfty9e3e0S6Wk8/V8by77mUtSz8/Pj2TNBiVAgACB4Qnk7wbOo65d++4/m3T+XHrppdG+7LLLop1LGeeyz3fccUf0yeWLhzfr7iM9//zz8Revv/56107DKgf91FNPxfi9jplNsu2//du/xZibNm2K9rFjx7p65nLQb7/9dvTJpbx7NVf2uVcx/QkQIECAAAECBKZNQAA8bTtiPgQIECBAgAABAj0LCIB7JnMDAQIECCQBAXB/x0EA3J+buwgQIECAAAECBAiMWkAAPGph4xMgQIAAAQIECIxcQAA8cmIPIECAQNUCAuD+tlcA3J+buwgQIECAAAECBAiMWkAAPGph4xMgQIAAAQIECIxV4MCBA12fVyoBnctE5xublIBeXFyMW3LZ59KClYMe61HwMAIECPQlkMPg48ePxxif/OQno33q1KloX3vttdH+wx/+EO2rr7462p/61Kf6msugN5XKQb/88ssx9NatWwd9zP+7P5dN3rFjR9cxS79zP//5z0f/v//7v4/2hg0bon3//fdH+7vf/W60cynpV155peu+5MmcOHEifsxlopV9HsoxMAgBAgQIECBAgMCUCAiAp2QjTIMAAQIECBAgQGA4AgLg4TgahQABArMqIADub+cFwP25uYsAAQIECBAgQIDAKAQEwKNQNSYBAgQIECBAgMDEBATAE6P3YAIECFQhIADubxsFwP25uYsAAQIECBAgQIDAKAQEwKNQNSYBAgQIECBAgMBUCOzatSvmsbKyEu1cujlPdN++ffFjLlOZy0E3Kft83333xTh33XVXV4ulpaWpMDIJAgQIECgL5FLGR48ejY5nzpyJ9tzcXLTXr18f7VwO+ty5c3G9VB551Pvw85//PB5x8uTJro8b1txyGJytSl+FsHbtu/881fnzox/9KNpf/OIXo/3www9H+8tf/nK0v/Wtb0X7kksuiXberyuvvDKu57LPGUEJ6FGfQOMTIECAAAECBAiMU0AAPE5tzyJAgAABAgQIEBirgAB4rNweRoAAgeoEBMD9bakAuD83dxEgQIAAAQIECBAYloAAeFiSxiFAgAABAgQIEJg6AQHw1G2JCREgQKBVAgLg/rZLANyfm7sIECBAgAABAgQIDEtAADwsSeMQIECAAAECBAhMnUD+PuDDhw93nd+2bdtWnXe+t1QmetVB1qxZk0tJ5xLTpZKYTcbUhwABAgTGI5C/G/jVV1+Nh15xxRXRvv7666N90UUXRfuGG26I9gsvvBDtO+64YzyT//+ekgPaW265pescNm/e3Pfc8u/f2267LcZpMuYPf/jD6P+rX/0q2vfcc0+0v/vd70b7n//5n6P9ta99Ldpnz56N9qZNm6J94sSJaD/66KN9r9GNBAgQIECAAAECBKZZQAA8zbtjbgQIECBAgAABAgMJCIAH4nMzAQIECCQBAXDz4yAAbm6lJwECBAgQIECAAIFRCAiAR6FqTAIECBAgQIAAgakQEABPxTaYBAECBKoQEAA330YBcHMrPQkQIECAAAECBAiMQkAAPApVYxIgQIAAAQIECEydwPnz52NOi4uLXefXpBx0qYxzqcR0k5LR+d6lpaWpszMhAgQIEPhjgfzdwCdPnoy/XLduXbQ3btzYtb127bv/FNP5k/tPqhz0z3/+85jPVVdd1XWrm5Ruzr+/9u7d23Wc0ncDP/bYY11/R1988cVx/bLLLov2wYMHo/2Vr3wl2k888US0v/Od70T7T//0T6Od5+BcEyBAgAABAgQIEKhVQABc685aFwECBAgQIECAwB8JCIAdCAIECBAYloAA+EJJAfCwTpdxCBAgQIAAAQIECAwuIAAe3NAIBAgQIECAAAECLRAQALdgk0yRAAECLREQAAuAW3JUTZMAAQIECBAgQGBGBQTAM7rxlk2AAAECBAgQmGWB/N2EpZLOJZ8mpZ5zielcVvqb3/xmDPvLX/4y2gsLC9FeWVmJdi4TOsv7Ze0ECBCYZoEcBv/2t7+NqX74wx+O9iWXXBLtc+fORTuXVn7yySfjeh5znGt/6qmn4nFHjx7t+ujS3PLv1lzSOZeDzn3Wr18f4585cyban/vc56KdS2TnEtDf+ta3os/3vve9rr9bv/rVr8b1yy+/fJyMnkWAAAECBAgQIEBg4gIC4IlvgQkQIECAAAECBAiMW0AAPG5xzyNAgEC9AgLgzt4KgOs941ZGgAABAgQIECDQPgEBcPv2zIwJECBAgAABAgQGFBAADwjodgIECBAIAQGwANjLgQABAgQIECBAgMC0CQiAp21HzIcAAQIECBAgQGCsAvm7gR988MF4di71vG/fvrieyzXv3r27a/9c9rk0TulZefF5nPn5+bG6eBgBAgQI9C5w++23x025rPH1118f16+77rpo59LQp0+fjuu59PHWrVt7n8gQ7njooYdilE2bNnUd8dlnn+3pSfl3Wf6PsW688cYYJ683O1x66aXRZ+PGjdHOth//+Mfj+l/8xV9E+6WXXuppnjoTIECAAAECBAgQaLuAALjtO2j+BAgQIECAAAECAwkIgAficzMBAgQIJAEB8PsfBwGwlwsBAgQIECBAgACB8QgIgMfj7CkECBAgQIAAAQJTKiAAntKNMS0CBAi0UEAALABu4bE1ZQIECBAgQIAAgQoFBMAVbqolESBAgAABAgQINBfIAXC+K5doztd37twZPy4uLkb7gQceiPYTTzwR7VLJ6OXl5egzNzcX7VxuOo+fr69d++7/jPeHAAECBKZZ4MMf/nBM75prrol2LgF99dVXx/UTJ0507Z/f8ydVDvr555+PuT322GPR3rJlS7TzevO+5FLPTb7OIJee/su//MsY6uKLL472P/zDP0T7s5/9bLRvuummaP/TP/1TtF988cVpPirmRoAAAQIECBAgQGDoAgLgoZMakAABAgQIECBAoE0CAuA27Za5EiBAoD0CAuDOXgmA23NmzZQAAQIECBAgQKAeAQFwPXtpJQQIECBAgAABAn0ICID7QHMLAQIECKwqIAAWAK96SHQgQIAAAQIECBAgMCIBAfCIYA1LgAABAgQIECDQPoG9e/fGpHPJ5VwOOpeAbnI9KzQp+9xr6emlpaX2QZsxAQIEZkxgx44dseJTp05F+/LLL4/2hg0bor1u3bpo5xLQ4ywHvbKy0nVuN954Y1w/efJktD/96U93XVfe6tKYuTT03/3d38UtuQR0Hn/jxo3RZ9OmTdH+zne+E+3f/OY3Xc1n7OhZLgECBAgQIECAwIwKCIBndOMtmwABAgQIECBA4EIBAbBTQYAAAQKjEBAAd1QFwKM4XcYkQIAAAQIECBAgcKGAANipIECAAAECBAgQIPCegADYUSBAgACBUQgIgAXAozhXxiRAgAABAgQIECBQEhAAOxsECBAgQIAAAQIEugjk7wZeWFiIHrt37+7JK5d9zp98yqWeDx8+HGPm0tOLi4urPuvIkSPRZ//+/av214EAAQIEJitw++23xwTOnj0b7Q996EPRvuGGG6L9u9/9LtrXXHNNtEddDjp/xcCWLVu6oq1fvz6u51LMufPWrVvjxwMHDkQ7l33O/fO67rnnnvirO+64I9pf+tKXon3o0KFoP/nkk9HOJaBPnz492U33dAIECBAgQIAAAQJjFhAAjxnc4wgQIECAAAECBNohIABuxz6ZJQECBNomIADu7JgAuG0n13wJECBAgAABAgTaJCAAbtNumSsBAgQIECBAgMDYBATAY6P2IAIECMyUgABYADxTB95iCRAgQIAAAQIEJiIgAJ4Iu4cSIECAAAECBAi0SSCXrMzz3rlzZ9dl5PLOpf533nln/NWePXuinctB53tzqedchjqXmM7XS5+sapO7uRIgQKB2gc2bN8cSL7300mjnEtDXX399XF+3bl20N27cGO3f//730c4ll5v4NSnLXBon35vLQZf65+9CLvXJJaB/+MMfRrcvfvGL0c7Pvfbaa+P60aNHu7bPnDnThEIfAgQIECBAgAABAtUICICr2UoLIUCAAAECBAgQGJWAAHhUssYlQIDAbAsIgC/cfwHwbL8mrJ4AAQIECBAgQGA4AgLg4TgahQABAgQIECBAoGIBAXDFm2tpBAgQmKCAAFgAPMHj59EECBAgQIAAAQIVCwiAK95cSyNAgAABAgQIEBi+QJMwePv27fHgj370o9FeWVmJdi4TnUtJN7meV5XvLT13//79w4cwIgECBAgMVSB/N/Crr74aY990003RzqWMr7rqqriePzWb203KQS8tLcU4e/fujXapNHST6zfeeGNXm5MnT3ZdS/7aglzm+pJLLon+J06ciPbLL78c7WeeeSba+esS8vV33nlnqHtlMAIECBAgQIAAAQLTLiAAnvYdMj8CBAgQIECAAIGpEhAAT9V2mAwBAgSqERAAd7ZSAFzNkbYQAgQIECBAgACBCQoIgCeI79EECBAgQIAAAQLtExAAt2/PzJgAAQJtEBAAC4DbcE7NkQABAgQIECBAoB0CAuB27JNZEiBAgAABAgQITKFADoNzKebFxcWY7bZt26Kd++TlLCwsxI+7d+/u2j+Pme/N4x8+fLjrc3P/XGZzCklNiQABAgTWrFmzY8eOcHjppZeivWHDhmh/4AMfiPbp06ejffXVV0c7f5r22LFjcT3/Ljh//nzf5qVy0HnAhx56KH7ctGlTtHM56LzGD37wg9HnzjvvjPbrr7/e9d6nn346rucS0KdOnep7XW4kQIAAAQIECBAg0HYBAXDbd9D8CRAgQIAAAQIEJiYgAJ4YvQcTIECgagEBcGd7BcBVH3OLI0CAAAECBAgQGKGAAHiEuIYmQIAAAQIECBCoW0AAXPf+Wh0BAgQmJSAAFgBP6ux5LgECBAgQIECAQB0CAuA69tEqCBAgQIAAAQIEJiywd+/erjPYt29fXH/wwQejXSoZ3Wv//NBcDrrEsby8HH+Vy00rDT3hA+TxBAgQKAhs3rw5/uamm26K9ttvvx3t9evXR/u1116L9pYtW6L92GOPRfvuu++Odi4Bnf/Dpl/84hddZ5R/35VKQOfreZA8z2uvvbbr+Lfeemtcf+ONN6L9yiuvRPu5556L9lNPPRXtZ599NtpnzpxxpggQIECAAAECBAjMrIAAeGa33sIJECBAgAABAgSGKSAAHqamsQgQIEDgfwUEwB0JAbDXBAECBAgQIECAAIHmAgLg5lZ6EiBAgAABAgQIECgKCIAdDgIECBAYhYAAWAA8inNlTAIECBAgQIAAgboFBMB176/VESBAgAABAgQITEBg+/bt8dS77ror2oOUaC6VjD548GDXFebn5rLSufPi4mL8mPusXfvu/03whwABAgSmTeD222+PKeUSym+++WZcz+/h119/fVw/fvx41z4/+9nP4nr+vfAv//IvcT2Xj87/wVMuH/2v//qvXbny769169ZFnx//+Mdd15ID71zO+sSJE9H/v//7v6P9X//1X9HOnxI+d+7ctG2f+RAgQIAAAQIECBAYm4AAeGzUHkSAAAECBAgQIDArAgLgWdlp6yRAgMB4BQTAHW8B8HjPnacRIECAAAECBAi0T0AA3L49M2MCBAgQIECAAIEpFxAAT/kGmR4BAgRaKiAAFgC39OiaNgECBAgQIECAwJgFBMBjBvc4AgQIECBAgACB2RLIpTIffvjhWPwjjzwS7QcffLAryuHDh+N6qYzzwsJC13tXVlbiepM+eZA8n/n5+dnaMKslQIBASwR27NgRM/3Vr34V7bm5uWjnctBvvfVWXL/88sujfdFFF0X75MmT0f6rv/qraOdSz7k09Oc+97muWvm5S0tLXZ/1la98Ja6fPXs22rns86lTp+L6sWPHov3MM89E+8UXX4x2XmNLttE0CRAgQIAAAQIECIxEQAA8ElaDEiBAgAABAgQIEOgICICdBAIECBAYhYAAuKMqAB7F6TImAQIECBAgQIBA2wUEwG3fQfMnQIAAAQIECBCYagEB8FRvj8kRIECgtQICYAFwaw+viRMgQIAAAQIECIxcQAA8cmIPIECAAAECBAgQINARyCU0c5nlnTt3BlGv5aAXFxfj3m3btnWlLpWSzvceOXIk7t29e3e0S/fm8p72lwABAgRGJ5D/Q6LS+/z9998fE3jyySej/fGPfzza77zzTrRz2edrrrkmrh8/fjzaF198cbTffvvtaOevBsi/1/LvhQMHDnR91p/92Z/F9TfffDPauezzyy+/HNeff/75rnPLparzOKPbBSMTIECAAAECBAgQaJeAALhd+2W2BAgQIECAAAECLRYQALd480ydAAECExIQAHfgczgtAJ7QYfRYAgQIECBAgACB1ggIgFuzVSZKgAABAgQIECDQdgEBcNt30PwJECAwfgEBsAB4/KfOEwkQIECAAAECBNouIABu+w6aPwECBAgQIECAQCsFcnnMXAJ6YWEh1lMqxZxLgOZ7c0nnjLJv3774sdQnj7m8vBz9V1ZWuvrmUtW5HGgrN8OkCRAgMGUCpd8RTaa5devW6HbddddF+8UXX+x6+xVXXBHXc9nndevWxfUNGzZEO5eDfuONN+L6r3/962j/zd/8TbR/+tOfRvvMmTPRfv3116Odyz7nT/fm9ksvvRT9lX1uchL0IUCAAAECBAgQmGUBAfAs7761EyBAgAABAgQITExAADwxeg8mQIDA1AsIgDtbJACe+qNqggQIECBAgAABAlMqIACe0o0xLQIECBAgQIAAgboFBMB176/VESBAYBABAbAAeJDz414CBAgQIECAAAECAmBngAABAgQIECBAgMCEBfI/9OeplMo753LNhw8fjltyqefSknLp5tynNE6pfy4TPTc3F0MtLS1NWNPjCRAg0E6BUuib34dLvxdK7/8333xzYNxyyy3Rfvrpp6P9sY99LNr5u+pz+9y5c9Hn61//erTfeeedrvd+//vfj+u5ZHQu+/zqq69Gn1L79OnT0eett95q58aaNQECBAgQIECAAIEJCAiAJ4DukQQIECBAgAABAgSygADYeSBAgAABAXDnDOQwWADsdUGAAAECBAgQIECgPwEBcH9u7iJAgAABAgQIECAwNAEB8NAoDUSAAIHWCgiABcCtPbwmToAAAQIECBAgMHUCAuCp2xITIkCAAAECBAgQmGWBXbt2xfJzaeVskkt9Li4uxl8dOXIk2rt37452Lu9c6pPLipbKPjfZl/ysXKp6fn6+ye36ECBAoHqBXFo5Lza/n+f3z/z+PAjO3Xff3dPtL7/8cvS/8soro/3aa69F+wtf+EK0f/CDH0Q7l4Y+e/ZsXD9z5ky033jjja7Xc/9cerqnyetMgAABAgQIECBAYMYFBMAzfgAsnwABAgQIECBAYLoEBMDTtR9mQ4AAgWELCIA7ogLgYZ8s4xEgQIAAAQIECBD4PwEBsNNAgAABAgQIECBAYIoEBMBTtBmmQoAAgREICIAFwCM4VoYkQIAAAQIECBAg8EcCAmAHggABAgQIECBAgMCUCuzdu7frzEoloHPn3Gf79u3xV5/5zGei/cADD0T73nvv7fqsUvnoJuWp84C5rLRy0FN64EyLAIGRCeTv9y2Vys8Pz31K7/m5THSTe3OfrVu3rrrW6667LvqcPHky2ps2bYr2v//7v686Ti7j/NZbb0X/XCZ61UF0IECAAAECBAgQIECgJwEBcE9cOhMgQIAAAQIECBAYn4AAeHzWnkSAAIFRCgiAO7oC4FGeMmMTIECAAAECBAgQ+D8BAbDTQIAAAQIECBAgQGBKBQTAU7oxpkWAAIEeBQTAAuAej4zuBAgQIECAAAECBAYSEAAPxOdmAgQIECBAgAABAuMXyEFCfvrOnTvjx8XFxa4TyyVDc/9cornJmLkkab43j7mwsBBDraysRDv3z2VOl5aWxo/piQQIEBiiQCnoze+ZpceV3htLpZ7z+20es/SeXHru3XffHX914sSJaOcS0KXrDz300BD1DEWAAAECBAgQIECAwLAEBMDDkjQOAQIECBAgQIAAgTEJCIDHBO0xBAgQ6FFAANwjmO4ECBAgQIAAAQIECIxEQAA8ElaDEiBAgAABAgQIEBidgAB4dLZGJkCAwCACAuBB9NxLgAABAgQIECBAgMCwBATAw5I0DgECBAgQIECAAIEJCJw/f77rU3MJ0OXl5egzNzcX7VxW9L777ovrhw4d6jpmqaz0wYMHu/bfs2fPqiKlEqb5xrVr3/2/Lf4QIEBgegTye2+T0s2lkvtN3ntzOf0skEvr5/fnXt/b85ilctDHjx+Pbh/5yEei/eijj07PppgJAQIECBAgQIAAAQIhIAB2GAgQIECAAAECBAi0WEAA3OLNM3UCBForIADubJ0AuLVH2MQJECBAgAABAgQqFxAAV77BlkeAAAECBAgQIFC3gAC47v21OgIEplNAACwAns6TaVYECBAgQIAAAQIEOgICYCeBAAECBAgQIECAQCUCu3btipXk0qB5eblUaZNl5/LRu3fv7npLqbRp7pz75FKluXx0Lj1dKje9tLTUZNr6ECBAYOgCTf6Dm/zQw4cPx4/79u2Ldi7pnN+rS6X7S+/n+Vn5PTM/q1SeOvfJ4yi5P/RjY0ACBAgQIECAAAECExEQAE+E3UMJECBAgAABAgQIDF9AADx8UyMSIEDgfwUEwM4CAQIECBAgQIAAAQJtERAAt2WnzJMAAQIECBAgQIDAKgICYEeEAAECoxMQAI/O1sgECBAgQIAAAQIECAxXQAA8XE+jESBAgAABAgQIEJg6gRwMl8o451KleQGlMqGlUqVzc3Nx+wMPPBDte++9N9r5Wdu2bYvruUx0nkOphGnuozT01B07EyLQWoFS0Ft6X8ql8nOfUnnnEkypnH6T98ZSn1K5aaWeW3s8TZwAAQIECBAgQIBAIwEBcCMmnQgQIECAAAECBAi0V0AA3N69M3MCBMYvIAAev7knEiBAgAABAgQIECAwXAEB8HA9jUaAAAECBAgQIEBg6gQEwFO3JSZEgMAUCwiAp3hzTI0AAQIECBAgQIAAgUYCAuBGTDoRIECAAAECBAgQqEOg9D3Bf/InfxILvP/++7sutkl50lK55lzquSSZS0MfOXIkuj333HPRPnToULQXFxejnfvnMtfz8/N1bJxVECAwdIEc9Jbeu3IZ/Nyn9H6Y38fyvbkUc6kUf5NSz4OU0Pd+OPQjZEACBAgQIECAAAECUysgAJ7arTExAgQIECBAgAABAsMXEAAP39SIBAi0U0AA3M59M2sCBAgQIECAAAECBFYXEACvbqQHAQIECBAgQIAAgWoEBMDVbKWFECAwoIAAeEBAtxMgQIAAAQIECBAgMLUCAuCp3RoTI0CAAAECBAgQIDBagb1798YDcgnlubm5uF4qf9pkZqVSqLl0c2mcXDI6l0XN9+a55ev53uXl5XiE0tBNdk0fAvUJHDhwIBb1jW98I9r33ntvT4stvaeVBimVjO7poWvWrMnj5HtLJaNzn7Vr3/1nH38IECBAgAABAgQIEJg1AQHwrO249RIgQIAAAQIECBB4T0AA7CgQIDALAgLgWdhlayRAgAABAgQIECBAIAsIgJ0HAgQIECBAgAABAjMqIACe0Y23bAIzJiAAnrENt1wCBAgQIECAAAECBNYIgB0CAgQIECBAgAABAgT+SCCHJbmEci4NnW8olYkulV/OZVRzueY8Zr53ZWWl6w4tLCzE9Ty3UgnoUp88+Pz8vNNAgEBLBfJ3nOeS76XllN6jStdLJZdLZe1L7415nGGViVbquaWH1rQJECBAgAABAgQIjEhAADwiWMMSIECAAAECBAgQaKuAALitO2feBGZbQAA82/tv9QQIECBAgAABAgQI/J+AANhpIECAAAECBAgQIEDgjwQEwA4EAQJtFBAAt3HXzJkAAQIECBAgQIAAgVEICIBHoWpMAgQIECBAgAABApUIbN++PVayZ8+eaJdKoeZyppmgSdnnJmM2KcGay67mOZTKtB45ciS65TLR+fr+/fsr2VHLINB+gfz95aXVlN4Hcv/S+1VpzPw+Vhq/VNJ5kFLPpXuVfW7/WbYCAgQIECBAgAABAqMSEACPSta4BAgQIECAAAECBCoQEAB3NlEAXMFhtoRqBATAna0UAFdzpC2EAAECBAgQIECAwNAFBMBDJzUgAQIECBAgQIAAgXoEBMCdvRQA13OmraT9AgLgzh4KgNt/lq2AAAECBAgQIECAwKgEBMCjkjUuAQIECI+DPKEAACAASURBVBAgQIAAgYoFmgQw27ZtC4FcurlJidTl5eW4d2VlJdpNyqguLCxE/927d3fdhVzKNZd6zs/KN+Yxc59cVnppaaniHbc0AuMRyO8t+T0kP71UirlJSefSe1GvZepL70X5PaHXMtElYUHveM6epxAgQIAAAQIECBCoSUAAXNNuWgsBAgQIECBAgACBMQkIgDvQAuAxHTiPmRkBAfCFWy0Anpnjb6EECBAgQIAAAQIEhiYgAB4apYEIECBAgAABAgQIzI6AAFgAPDun3UrHKSAAFgCP87x5FgECBAgQIECAAIFaBQTAte6sdREgQIAAAQIECBCYgMD58+fjqU1KPecp5tKsTco4l5ZXKuVaKvvcpEx0LuWa15XH/Md//MeY0gsvvBBtn96bwEH0yKkX2LVrV9c55tdj6bWc3yvyIKUS0L2Wdy7hlV77pVLVeZ6l0tB5zPn5+anfNxMkQIAAAQIECBAgQKAdAgLgduyTWRIgQIAAAQIECBBohYAAuLNNAuBWHFeTnKCAALiDLwCe4CH0aAIECBAgQIAAAQIVCwiAK95cSyNAgAABAgQIECAwbgEBcEdcADzuk+d5bRMQAHd2TADctpNrvgQIECBAgAABAgTaISAAbsc+mSUBAgQIECBAgACB1gkcOHAg5pxLsOZyynlRpRKpuU+pBGupRHO+d3l5OX7MZWablJMtlXItlX7N681zKPVX+rV1x9uE30egyWu/VK659HrMZeHn5ubi6fk1Vbq3181q8l5UGrNU+r7UX4n4XndHfwIECBAgQIAAAQIEmggIgJso6UOAAAECBAgQIECAQM8CTUKgPGiT0EUA3PM2uIHA2AWavPYFwJ1tEQCP/Xh6IAECBAgQIECAAIGZEBAAz8Q2WyQBAgQIECBAgACB8Qs0CYEEwB0BnwAe//n0xNEJNHntC4A7/gLg0Z1DIxMgQIAAAQIECBCYZQEB8CzvvrUTIECAAAECBAgQmIBA6XuCm0ylVEo6l4ddWVnpOlSpNGv+5HEuJ1sq41wqYd3k08l5YnnO+XqpPLWgqMkJ0WfUAjncLT2rVDK99NopvS7ya7nXCgFN5pb79BpI99rf63fUJ9P4BAgQIECAAAECBAhkAQGw80CAAAECBAgQIECAwFgFBMAdbgHwWI+dhw1JQADcgRQAD+lAGYYAAQIECBAgQIAAgZEICIBHwmpQAgQIECBAgAABAgRKAgLgjowA2GukjQIC4M6uCYDbeHrNmQABAgQIECBAgMDsCAiAZ2evrZQAAQIECBAgQIDAVAvkYLhUlrnXBeRStKV7S6Vlm5SczSFuLt2cn1WaQ5OS1KU5HzlyJP4ql8nN89m/f3+vXPrPoEAp0M0l0HNp9HyeS2XPh9W/yWuw1CfPbXl5uevrpfQa7PUY5HF8n3evevoTIECAAAECBAgQIDAKAQHwKFSNSYAAAQIECBAgQIBAzwIC4A5ZDrRKiALgno+XGwoCAuAOTJP/WKR0iATAXl4ECBAgQIAAAQIECEybgAB42nbEfAgQIECAAAECBAjMqIAAuLPxAuAZfQFMaNkC4A68AHhCB9BjCRAgQIAAAQIECBAYiYAAeCSsBiVAgAABAgQIECBAYFgCTQKqffv2xeOaBKi5/6233hr3fvKTn4x2Lumcw6HS+HnMUmnc3Cf7bN++PX585JFHol36ntGSbalsb75eundpaWlYW2acCQrs3bs3np5LMecyyL2e7VJJ59L3WM/NzcUc8qfVS8/NXE1KOpd4m5Rbz/c2CX1Lr0Glnid4yD2aAAECBAgQIECAAIFVBQTAqxLpQIAAAQIECBAgQIDAJAUEwM31BcDNrWrtKQC+cGdLIa4AuNZXgXURIECAAAECBAgQICAAdgYIECBAgAABAgQIEJhqAQFw8+0RADe3qrWnAFgAXOvZti4CBAgQIECAAAECBJoLCICbW+lJgAABAgQIECBAgMAUCeTvDM6f8Gvyqb68jNKnA3PJ3JWVla4rzyVwc58mJaCblKrOD81leEvbkAPgUknqfG+pLHAeJ5fwLZX23b9//xSdjPZPJf9HD6XzXDo/pbLPzz33XMAcOnQo2nmc0hm77777ov8NN9wQ7SalpEtj5nXdeeedXefW6+u6ySd9m4yZTZRGb//ryQoIECBAgAABAgQIzKKAAHgWd92aCRAgQIAAAQIECFQgIAC+cBMFwBUc7DVr1giAO/vYJKzNOy4AruP8WwUBAgQIECBAgAABAoMLCIAHNzQCAQIECBAgQIAAAQITEBAAC4AncOzG8kgBcIdZADyW4+YhBAgQIECAAAECBAhUKCAArnBTLYkAAQIECBAgQIDALAuUvgM1l5zNJV5zqeTS9RxElcom5zK5ucRuryFWLiudS+yWvt83r6tUerp0HpqUlS65lUoNP/744/G4v/7rv452qf+xY8eiz2c+85lot6X0bj5v+Sw1eQ2WSog3OQNNSnw32bvS+SmVnm7yKdvSurZv3951r5uUiW7y3JJ5k9f1/Px8ky3ThwABAgQIECBAgAABAq0QEAC3YptMkgABAgQIECBAgACBpgIC4I5UDoxLdgLgpqeq3E8A3LHJgbEAePBzZQQCBAgQIECAAAECBAgMIiAAHkTPvQQIECBAgAABAgQITJ2AALizJQLg8RxNAXDHWQA8nvPmKQQIECBAgAABAgQIEGgiIABuoqQPAQIECBAgQIAAAQJVCeTvD+51YaVStHmcHL6WygKXyjWXSiXnctClZ5XWcuTIkfir0jhN5t+kxHTpU8VNTJqU5s7zbLKuJiWO83Pz/POcS89qUiq5VL67FNI//PDDscxcFrtU9rm0xtJ56HUvskmT9Zb65Pk0KY3ea9nn0j4q79zru5z+BAgQIECAAAECBAi0XUAA3PYdNH8CBAgQIECAAAECBHoWEAC/P1kpIBQAd9xyiN4kEBUAX3jeBMA9v225gQABAgQIECBAgAABAo0FBMCNqXQkQIAAAQIECBAgQKAWAQGwADgHtz4BfOF5KJk0Cbx9AriWd0rrIECAAAECBAgQIECgrQIC4LbunHkTIECAAAECBAgQIDB0gRwMlz6hmK/fd999MYdDhw5Fu1TKuDRm7p8XlcsOr6ysdF1vk/ByWGWZm5RczpNsEhaW+i8sLMRfzc3NRTvP4fHHH4/rTzzxRLSb7F2T8s6lEs2lst6lvchrbDJm6fzkcXotRX7w4MG4/a677up6lkolppvsaZ5zr+ek109Il/zXrn33nzj8IUCAAAECBAgQIECAAAEBsDNAgAABAgQIECBAgACB9wQEwBcehUGCPQHwhZ4C4Pc3KX0Hc75LAOwtmwABAgQIECBAgAABAu8vIAB2QggQIECAAAECBAgQICAAXtPkU629frJTACwAzt+XXHqj8Qlgb8EECBAgQIAAAQIECBAYroAAeLieRiNAgAABAgQIECBAoHKBAwcOxAqbBJylMtElpiZlhPO9vX6itNdPWJZKMZfKSue5LS8vx485CPzmN78Z1++5556uFE1KNA9y1Epzy2M22d88zyYllJv0bzK3XueZxyyVE89jNikx3cS/FO6W5l967vz8fJPH6UOAAAECBAgQIECAAAECa9asEQA7BgQIECBAgAABAgQIEOhBQADcwRIAdxyaBLr5eDXpLwC+8AUpAO7hTUpXAgQIECBAgAABAgRmXkAAPPNHAAABAgQIECBAgAABAr0ICIA7WgLgjkOTQDefryb9BcAXviIFwL28S+lLgAABAgQIECBAgMCsCwiAZ/0EWD8BAgQIECBAgAABAkMX2LVrV4w5NzcX7VL55SZhaq8hYqn0bi5rXCo3XSp9nMtB55LOuX8u4dukhHJe1yDjNFlXaaPzvbfddlt0y+WpS+OXvju5ZFWaQ6/7VSo3PUip53xvPrel734u7W+v52rt2nf/acIfAgQIECBAgAABAgQIEBiWgAB4WJLGIUCAAAECBAgQIECAwHsCAuAOhAC445DD8tKLRADs7YMAAQIECBAgQIAAAQIEhiUgAB6WpHEIECBAgAABAgQIECDwnoAAuAMhAO44CIDf/zz4BLC3TgIECBAgQIAAAQIECAxXQAA8XE+jESBAgAABAgQIECBAoGeB0vcK51K6edBc/jf3KZUjzn1yOd9BylM3CXdLn2ptAtSkHHQus5zHzIFrk+/cbTKfUp9eHfI4ufR3ab25f6/lnUtzzmW6c5/SHLJhk/kLdAc5Ue4lQIAAAQIECBAgQIDA4AIC4MENjUCAAAECBAgQIECAAIGBBATAF/IJgC80EQAP9DJzMwECBAgQIECAAAECBGZGQAA8M1ttoQQIECBAgAABAgQITKuAAFgA7BPA0/rqNC8CBAgQIECAAAECBAi0T0AA3L49M2MCBAgQIECAAAECBGZcoBQYZ5Zc9jmXGs598idKS2WT872lcsqlZ5XKIzcpbX3bbbfFVH/5y1923fEm5a/zjbn0cZPSzU1C2ZJnk/LapZLdTeZcWnsui72ysrKqWy4JXuqvpPOMv+FYPgECBAgQIECAAAECrRMQALduy0yYAAECBAgQIECAAIFZFxAAd06AALjjkINkAfCsvztYPwECBAgQIECAAAECBNasEQA7BQQIECBAgAABAgQIEGiZgABYAOwTwC170ZouAQIECBAgQIAAAQIExiggAB4jtkcRIECAAAECBAgQIEBg0gJNwuP8KdJcGrpUErnX0tC5fy4xXSrLnM2alI/O/XPZ5/zchx9+OLo98sgj0c79c4nsXNL54MGD0X/Pnj3Rzv3zHJqUgy6V6W5iXjLMa5mfn5/00fN8AgQIECBAgAABAgQIEBiTgAB4TNAeQ4AAAQIECBAgQIAAgWkQEAB3dkEAPA2n0RwIECBAgAABAgQIECBAYBQCAuBRqBqTAAECBAgQIECAAAECUyogABYAT+nRNC0CBAgQIECAAAECBAgQGJKAAHhIkIYhQIAAAQIECBAgQIDArArkULlkUCplXOqfyzXnPrnccZM++d5SqepS2eeVlZWu08v9ey1bvW/fvhgzl9rOz1q79t3/q+4PAQIECBAgQIAAAQIECBDoT0AA3J+buwgQIECAAAECBAgQIEDgPQEB8Psfhfy9xQJgLxsCBAgQIECAAAECBAgQGLWAAHjUwsYnQIAAAQIECBAgQIBA5QICYAFw5Ufc8ggQIECAAAECBAgQINAqAQFwq7bLZAkQIECAAAECBAgQIECAAAECBAgQIECAAAECBAgQIFAWEAA7HQQIECBAgAABAgQIECBAgAABAgQIECBAgAABAgQIEKhEQABcyUZaBgECBAgQIECAAAECBAgQIECAAAECBAgQIECAAAECBATAzgABAgQIECBAgAABAgQIECBAgAABAgQIECBAgAABAgQqERAAV7KRlkGAAAECBAgQIECAAAECBAgQIECAAAECBAgQIECAAAEBsDNAgAABAgQIECBAgAABAgQIECBAgAABAgQIECBAgACBSgQEwJVspGUQIECAAAECBAgQIECAAAECBAgQIECAAAECBAgQIEBAAOwMECBAgAABAgQIECBAgAABAgQIECBAgAABAgQIECBAoBIBAXAlG2kZBAgQIECAAAECBAgQIECAAAECBAgQIECAAAECBAgQEAA7AwQIECBAgAABAgQIECBAgAABAgQIECBAgAABAgQIEKhEQABcyUZaBgECBAgQIECAAAECBAgQIECAAAECBAgQIECAAAECBATAzgABAgQIECBAgAABAgQIECBAgAABAgQIECBAgAABAgQqERAAV7KRlkGAAAECBAgQIECAAAECBAgQIECAAAECBAgQIECAAAEBsDNAgAABAgQIECBAgAABAgQIECBAgAABAgQIECBAgACBSgQEwJVspGUQIECAAAECBAgQIECAAAECBAgQIECAAAECBAgQIEBAAOwMECBAgAABAgQIECBAgAABAgQIECBAgAABAgQIECBAoBIBAXAlG2kZBAgQIECAAAECBAgQIECAAAECBAgQIECAAAECBAgQEAA7AwQIECBAgAABAgQIECBAgAABAgQIECBAgAABAgQIEKhEQABcyUZaBgECBAgQIECAAAECBAgQIECAAAECBAgQIECAAAECBATAzgABAgQIECBAgAABAgQIECBAgAABAgQIECBAgAABAgQqERAAV7KRlkGAAAECBAgQIECAAAECBAgQIECAAAECBAgQIECAAAEBsDNAgAABAgQIECBAgAABAgQIECBAgAABAgQIECBAgACBSgQEwJVspGUQIECAAAECBAgQIECAAAECBAgQIECAAAECBAgQIEBAAOwMECBAgAABAgQIECBAgAABAgQIECBAgAABAgQIECBAoBIBAXAlG2kZBAgQIECAAAECBAgQIECAAAECBAgQIECAAAECBAgQEAA7AwQIECBAgAABAgQIECBAgAABAgQIECBAgAABAgQIEKhEQABcyUZaBgECBAgQIECAAAECBAgQIECAAAECBAgQIECAAAECBATAzgABAgQIECBAgAABAgQIECBAgAABAgQIECBAgAABAgQqERAAV7KRlkGAAAECBAgQIECAAAECBAgQIECAAAECBAgQIECAAAEBsDNAgAABAgQIECBAgAABAgQIECBAgAABAgQIECBAgACBSgQEwJVspGUQIECAAAECBAgQIECAAAECBAgQIECAAAECBAgQIEBAAOwMECBAgAABAgQIECBAgAABAgQIECBAgAABAgQIECBAoBIBAXAlG2kZBAgQIECAAAECBAgQIECAAAECBAgQIECAAAECBAgQEAA7AwQIECBAgAABAgQIECBAgAABAgQIECBAgAABAgQIEKhEQABcyUZaBgECBAgQIECAAAECBAgQIECAAAECBAgQIECAAAECBATAzgABAgQIECBAgAABAgQIECBAgAABAgQIECBAgAABAgQqERAAV7KRlkGAAAECBAgQIECAAAECBAgQIECAAAECBAgQIECAAAEBsDNAgAABAgQIECBAgAABAgQIECBAgAABAgQIECBAgACBSgQEwJVspGUQIECAAAECBAgQIECAAAECBAgQIECAAAECBAgQIEBAAOwMECBAgAABAgQIECBAgAABAgQIECBAgAABAgQIECBAoBIBAXAlG2kZBAgQIECAAAECBAgQIECAAAECBAgQIECAAAECBAgQEAA7AwQIECBAgAABAgQIECBAgAABAgQIECBAgAABAgQIEKhEQABcyUZaBgECBAgQIECAAAECBAgQIECAAAECBAgQIECAAAECBATAzgABAgQIECBAgAABAgQIECBAgAABAgQIECBAgAABAgQqERAAV7KRlkGAAAECBAgQIECAAAECBAgQIECAAAECBAgQIECAAAEBsDNAgAABAgQIECBAgAABAgQIECBAgAABAgQIECBAgACBSgQEwJVspGUQIECAAAECBAgQIECAAAECBAgQIECAAAECBAgQIEBAAOwMECBAgAABAgQIECBAgAABAgQIECBAgAABAgQIECBAoBIBAXAlG2kZBAgQIECAAAECBAgQIECAAAECBAgQIECAAAECBAgQEAA7AwQIECBAgAABAgQIECBAgAABAgQIECBAgAABAgQIEKhEQABcyUZaBgECBAgQIECAAAECBAgQIECAAAECBAgQIECAAAECBATAzgABAgQIECBAgAABAgQIECBAgAABAgQIECBAgAABAgQqERAAV7KRlkGAAAECBAgQIECAAAECBAgQIECAAAECBAgQIECAAAEBsDNAgAABAgQIECBAgAABAgQIECBAgAABAgQIECBAgACBSgQEwJVspGUQIECAAAECBAgQIECAAAECBAgQIECAAAECBAgQIEBAAOwMECBAgAABAgQIECBAgAABAgQIECBAgAABAgQIECBAoBIBAXAlG2kZBAgQIECAAAECBAgQIECAAAECBAgQIECAAAECBAgQEAA7AwQIECBAgAABAgQIECBAgAABAgQIECBAgAABAgQIEKhEQABcyUZaBgECBAgQIECAAAECBAgQIECAAAECBAgQIECAAAECBATAzgABAgQIECBAgAABAgQIECBAgAABAgQIECBAgAABAgQqERAAV7KRlkGAAAECBAgQIECAAAECBAgQIECAAAECBAgQIECAAAEBsDNAgAABAgQIECBAgAABAgQIECBAgAABAgQIECBAgACBSgQEwJVspGUQIECAAAECBAgQIECAAAECBAgQIECAAAECBAgQIEBAAOwMECBAgAABAgQIECBAgAABAgQIECBAgAABAgQIECBAoBIBAXAlG2kZBAgQIECAAAECBAgQIECAAAECBAgQIECAAAECBAgQEAA7AwQIECBAgAABAgQIECBAgAABAgQIECBAgAABAgQIEKhEQABcyUZaBgECBAgQIECAAAECBAgQIECAAAECBAgQIECAAAECBATAzgABAgQIECBAgAABAgQIECBAgAABAgQIECBAgAABAgQqERAAV7KRlkGAAAECBAgQIECAAAECBAgQIECAAAECBAgQIECAAAEBsDNAgAABAgQIECBAgAABAgQIECBAgAABAgQIECBAgACBSgQEwJVspGUQIECAAAECBAgQIECAAAECBAgQIECAAAECBAgQIEBAAOwMECBAgAABAgQIECBAgAABAgQIECBAgAABAgQIECBAoBIBAXAlG2kZBAgQIECAAAECBAgQIECAAAECBAgQIECAAAECBAgQEAA7AwQIECBAgAABAgQIECBAgAABAgQIECBAgAABAgQIEKhEQABcyUZaBgECBAgQIECAAAECBAgQIECAAAECBAgQIECAAAECBATAzgABAgQIECBAgAABAgQIECBAgAABAgQIECBAgAABAgQqERAAV7KRlkGAAAECBAgQIECAAAECBAgQIECAAAECBAgQIECAAAEBsDNAgAABAgQIECBAgAABAgQIECBAgAABAgQIECBAgACBSgQEwJVspGUQIECAAAECBAgQIECAAAECBAgQIECAAAECBAgQIEBAAOwMECBAgAABAgQIECBAgAABAgQIECBAgAABAgQIECBAoBIBAXAlG2kZBAgQIECAAAECBAgQIECAAAECBAgQIECAAAECBAgQEAA7AwQIECBAgAABAgQIECBAgAABAgQIECBAgAABAgQIEKhEQABcyUZaBgECBAgQIECAAAECBAgQIECAAAECBAgQIECAAAECBATAzgABAgQIECBAgAABAgQIECBAgAABAgQIECBAgAABAgQqERAAV7KRlkGAAAECBAgQIECAAAECBAgQIECAAAECBAgQIECAAAEBsDNAgAABAgQIECBAgAABAgQIECBAgAABAgQIECBAgACBSgQEwJVspGUQIECAAAECBAgQIECAAAECBAgQIECAAAECBAgQIEBAAOwMECBAgAABAgQIECBAgAABAgQIECBAgAABAgQIECBAoBIBAXAlG2kZBAgQIECAAAECBAgQIECAAAECBAgQIECAAAECBAgQEAA7AwQIECBAgAABAgQIECBAgAABAgQIECBAgAABAgQIEKhEQABcyUZaBgECBAgQIECAAAECBAgQIECAAAECBAgQIECAAAECBATAzgABAgQIECBAgAABAgQIECBAgAABAgQIECBAgAABAgQqERAAV7KRlkGAAAECBAgQIECAAAECBAgQIECAAAECBAgQIECAAAEBsDNAgAABAgQIECBAgAABAgQIECBAgAABAgQIECBAgACBSgQEwJVspGUQIECAAAECBAgQIECAAAECBAgQIECAAAECBAgQIEBAAOwMECBAgAABAgQIECBAgAABAgQIECBAgAABAgQIECBAoBIBAXAlG2kZBAgQIECAAAECBAgQIECAAAECBAgQIECAAAECBAgQEAA7AwQIECBAgAABAgQIECBAgAABAgQIECBAgAABAgQIEKhEQABcyUZaBgECBAgQIECAAAECBAgQIECAAAECBAgQIECAAAECBATAzgABAgQIECBAgAABAgQIECBAgAABAgQIECBAgAABAgQqERAAV7KRlkGAAAECBAgQIECAAAECBAgQIECAAAECBAgQIECAAAEBsDNAgAABAgQIECBAgAABAgQIECBAgAABAgQIECBAgACBSgQEwJVspGUQIECAAAECBAgQIECAAAECBAgQIECAAAECBAgQIEBAAOwMECBAgAABAgQIECBAgAABAgQIECBAgAABAgQIECBAoBIBAXAlG2kZBAgQIECAAAECBAgQIECAAAECBAgQIECAAAECBAgQEAA7AwQIECBAgAABAgQIECBAgAABAgQIECBAgAABAgQIEKhEQABcyUZaBgECBAgQIECAAAECBAgQIECAAAECBAgQIECAAAECBATAzgABAgQIECBAgAABAgQIECBAgAABAgQIECBAgAABAgQqERAAV7KRlkGAAAECBAgQIECAAAECBAgQIECAAAECBAgQIECAAAEBsDNAgAABAgQIECBAgAABAgQIECBAgAABAgQIECBAgACBSgQEwJVspGUQIECAAAECBAgQIECAAAECBAgQIECAAAECBAgQIEBAAOwMECBAgAABAgQIECBAgAABAgQIECBAgAABAgQIECBAoBIBAXAlG2kZBAgQIECAAAECBAgQIECAAAECBAgQIECAAAECBAgQEAA7AwQIECBAgAABAgQIECBAgAABAgQIECBAgAABAgQIEKhEQABcyUZaBgECBAgQIECAAAECBAgQIECAAAECBAgQIECAAAECBATAzgABAgQIECBAgAABAgQIECBAgAABAgQIECBAgAABAgQqERAAV7KRlkGAAAECBAgQIECAAAECBAgQIECAAAECBAgQIECAAAEBsDNAgAABAgQIECBAgAABAgQIECBAgAABAgQIECBAgACBSgQEwJVsZ4sDKgAADe9JREFUpGUQIECAAAECBAgQIECAAAECBAgQIECAAAECBAgQIEBAAOwMECBAgAABAgQIECBAgAABAgQIECBAgAABAgQIECBAoBIBAXAlG2kZBAgQIECAAAECBAgQIECAAAECBAgQIECAAAECBAgQEAA7AwQIECBAgAABAgQIECBAgAABAgQIECBAgAABAgQIEKhEQABcyUZaBgECBAgQIECAAAECBAgQIECAAAECBAgQIECAAAECBATAzgABAgQIECBAgAABAgQIECBAgAABAgQIECBAgAABAgQqERAAV7KRlkGAAAECBAgQIECAAAECBAgQIECAAAECBAgQIECAAAEBsDNAgAABAgQIECBAgAABAgQIECBAgAABAgQIECBAgACBSgQEwJVspGUQIECAAAECBAgQIECAAAECBAgQIECAAAECBAgQIEBAAOwMECBAgAABAgQIECBAgAABAgQIECBAgAABAgQIECBAoBIBAXAlG2kZBAgQIECAAAECBAgQIECAAAECBAgQIECAAAECBAgQEAA7AwQIECBAgAABAgQIECBAgAABAgQIECBAgAABAgQIEKhEQABcyUZaBgECBAgQIECAAAECBAgQIECAAAECBAgQIECAAAECBATAzgABAgQIECBAgAABAgQIECBAgAABAgQIECBAgAABAgQqERAAV7KRlkGAAAECBAgQIECAAAECBAgQIECAAAECBAgQIECAAAEBsDNAgAABAgQIECBAgAABAgQIECBAgAABAgQIECBAgACBSgQEwJVspGUQIECAAAECBAgQIECAAAECBAgQIECAAAECBAgQIEBAAOwMECBAgAABAgQIECBAgAABAgQIECBAgAABAgQIECBAoBIBAXAlG2kZBAgQIECAAAECBAgQIECAAAECBAgQIECAAAECBAgQEAA7AwQIECBAgAABAgQIECBAgAABAgQIECBAgAABAgQIEKhEQABcyUZaBgECBAgQIECAAAECBAgQIECAAAECBAgQIECAAAECBATAzgABAgQIECBAgAABAgQIECBAgAABAgQIECBAgAABAgQqERAAV7KRlkGAAAECBAgQIECAAAECBAgQIECAAAECBAgQIECAAAEBsDNAgAABAgQIECBAgAABAgQIECBAgAABAgQIECBAgACBSgQEwJVspGUQIECAAAECBAgQIECAAAECBAgQIECAAAECBAgQIEBAAOwMECBAgAABAgQIECBAgAABAgQIECBAgAABAgQIECBAoBIBAXAlG2kZBAgQIECAAAECBAgQIECAAAECBAgQIECAAAECBAgQEAA7AwQIECBAgAABAgQIECBAgAABAgQIECBAgAABAgQIEKhEQABcyUZaBgECBAgQIECAAAECBAgQIECAAAECBAgQIECAAAECBATAzgABAgQIECBAgAABAgQIECBAgAABAgQIECBAgAABAgQqERAAV7KRlkGAAAECBAgQIECAAAECBAgQIECAAAECBAgQIECAAAEBsDNAgAABAgQIECBAgAABAgQIECBAgAABAgQIECBAgACBSgQEwJVspGUQIECAAAECBAgQIECAAAECBAgQIECAAAECBAgQIEBAAOwMECBAgAABAgQIECBAgAABAgQIECBAgAABAgQIECBAoBIBAXAlG2kZBAgQIECAAAECBAgQIECAAAECBAgQIECAAAECBAgQEAA7AwQIECBAgAABAgQIECBAgAABAgQIECBAgAABAgQIEKhEQABcyUZaBgECBAgQIECAAAECBAgQIECAAAECBAgQIECAAAECBATAzgABAgQIECBAgAABAgQIECBAgAABAgQIECBAgAABAgQqERAAV7KRlkGAAAECBAgQIECAAAECBAgQIECAAAECBAgQIECAAAEBsDNAgAABAgQIECBAgAABAgQIECBAgAABAgQIECBAgACBSgQEwJVspGUQIECAAAECBAgQIECAAAECBAgQIECAAAECBAgQIEBAAOwMECBAgAABAgQIECBAgAABAgQIECBAgAABAgQIECBAoBIBAXAlG2kZBAgQIECAAAECBAgQIECAAAECBAgQIECAAAECBAgQEAA7AwQIECBAgAABAgQIECBAgAABAgQIECBAgAABAgQIEKhEQABcyUZaBgECBAgQIECAAAECBAgQIECAAAECBAgQIECAAAECBATAzgABAgQIECBAgAABAgQIECBAgAABAgQIECBAgAABAgQqERAAV7KRlkGAAAECBAgQIECAAAECBAgQIECAAAECBAgQIECAAAEBsDNAgAABAgQIECBAgAABAgQIECBAgAABAgQIECBAgACBSgQEwJVspGUQIECAAAECBAgQIECAAAECBAgQIECAAAECBAgQIEBAAOwMECBAgAABAgQIECBAgAABAgQIECBAgAABAgQIECBAoBIBAXAlG2kZBAgQIECAAAECBAgQIECAAAECBAgQIECAAAECBAgQEAA7AwQIECBAgAABAgQIECBAgAABAgQIECBAgAABAgQIEKhEQABcyUZaBgECBAgQIECAAAECBAgQIECAAAECBAgQIECAAAECBATAzgABAgQIECBAgAABAgQIECBAgAABAgQIECBAgAABAgQqERAAV7KRlkGAAAECBAgQIECAAAECBAgQIECAAAECBAgQIECAAAEBsDNAgAABAgQIECBAgAABAgQIECBAgAABAgQIECBAgACBSgQEwJVspGUQIECAAAECBAgQIECAAAECBAgQIECAAAECBAgQIEBAAOwMECBAgAABAgQIECBAgAABAgQIECBAgAABAgQIECBAoBIBAXAlG2kZBAgQIECAAAECBAgQIECAAAECBAgQIECAAAECBAgQEAA7AwQIECBAgAABAgQIECBAgAABAgQIECBAgAABAgQIEKhEQABcyUZaBgECBAgQIECAAAECBAgQIECAAAECBAgQIECAAAECBATAzgABAgQIECBAgAABAgQIECBAgAABAgQIECBAgAABAgQqERAAV7KRlkGAAAECBAgQIECAAAECBAgQIECAAAECBAgQIECAAAEBsDNAgAABAgQIECBAgAABAgQIECBAgAABAgQIECBAgACBSgQEwJVspGUQIECAAAECBAgQIECAAAECBAgQIECAAAECBAgQIEBAAOwMECBAgAABAgQIECBAgAABAgQIECBAgAABAgQIECBAoBIBAXAlG2kZBAgQIECAAAECBAgQIECAAAECBAgQIECAAAECBAgQEAA7AwQIECBAgAABAgQIECBAgAABAgQIECBAgAABAgQIEKhEQABcyUZaBgECBAgQIECAAAECBAgQIECAAAECBAgQIECAAAECBATAzgABAgQIECBAgAABAgQIECBAgAABAgQIECBAgAABAgQqERAAV7KRlkGAAAECBAgQIECAAAECBAgQIECAAAECBAgQIECAAAEBsDNAgAABAgQIECBAgAABAgQIECBAgAABAgQIECBAgACBSgQEwJVspGUQIECAAAECBAgQIECAAAECBAgQIECAAAECBAgQIEBAAOwMECBAgAABAgQIECBAgAABAgQIECBAgAABAgQIECBAoBIBAXAlG2kZBAgQIECAAAECBAgQIECAAAECBAgQIECAAAECBAgQEAA7AwQIECBAgAABAgQIECBAgAABAgQIECBAgAABAgQIEKhEQABcyUZaBgECBAgQIECAAAECBAgQIECAAAECBAgQIECAAAECBATAzgABAgQIECBAgAABAgQIECBAgAABAgQIECBAgAABAgQqERAAV7KRlkGAAAECBAgQIECAAAECBAgQIECAAAECBAgQIECAAAEBsDNAgAABAgQIECBAgAABAgQIECBAgAABAgQIECBAgACBSgQEwJVspGUQIECAAAECBAgQIECAAAECBAgQIECAAAECBAgQIEBAAOwMECBAgAABAgQIECBAgAABAgQIECBAgAABAgQIECBAoBIBAXAlG2kZBAgQIECAAAECBAgQIECAAAECBAgQIECAAAECBAgQEAA7AwQIECBAgAABAgQIECBAgAABAgQIECBAgAABAgQIEKhEQABcyUZaBgECBAgQIECAAAECBAgQIECAAAECBAgQIECAAAECBATAzgABAgQIECBAgAABAgQIECBAgAABAgQIECBAgAABAgQqERAAV7KRlkGAAAECBAgQIECAAAECBAgQIECAAAECBAgQIECAAAEBsDNAgAABAgQIECBAgAABAgQIECBAgAABAgQIECBAgACBSgQEwJVspGUQIECAAAECBAgQIECAAAECBAgQIECAAAECBAgQIEBAAOwMECBAgAABAgQIECBAgAABAgQIECBAgAABAgQIECBAoBIBAXAlG2kZBAgQIECAAAECBAgQIECAAAECBAgQIECAAAECBAgQEAA7AwQIECBAgAABAgQIECBAgAABAgQIECBAgAABAgQIEKhEQABcyUZaBgECBAgQIECAAAECBAgQIECAAAECBAgQIECAAAECBATAzgABAgQIECBAgAABAgQIECBAgAABAgQIECBAgAABAgQqERAAV7KRlkGAAAECBAgQIECAAAECBAgQIECAAAECBAgQIECAAAEBsDNAgAABAgQIECBAgAABAgQIECBAgAABAgQIECBAgACBSgQEwJVspGUQIECAAAECBAgQIECAAAECBAgQIECAAAECBAgQIEBAAOwMECBAgAABAgQIECBAgAABAgQIECBAgAABAgQIECBAoBKB/wG7QmIBviJSDgAAAABJRU5ErkJggg==;" vertex="1" parent="2">
                    <mxGeometry x="130" y="57.190000000000005" width="978.92" height="550.62" as="geometry"/>
                </mxCell>
            </root>
        </mxGraphModel>
    </diagram>
</mxfile>